<svg width="55" height="62" viewBox="0 0 55 62" fill="none" xmlns="http://www.w3.org/2000/svg">
<g clip-path="url(#clip0_73:5)">
<path d="M27.5 0.440918C12.3121 0.440918 0 14.1996 0 31.172C0 48.1443 12.3121 61.9031 27.5 61.9031C42.6879 61.9031 55 48.1443 55 31.172C55 14.1996 42.6879 0.440918 27.5 0.440918ZM37.9914 16.091L34.1878 16.0929C31.2051 16.0929 30.6284 17.6767 30.6284 20.0007V25.1251H37.741L37.7376 33.1514H30.629V53.7486H23.2103V33.1514H17.0086V25.1251H23.2103V19.2059C23.2103 12.3366 26.966 8.59542 32.4492 8.59542L37.9919 8.60485V16.091H37.9914Z" fill="#EDEFFE"/>
</g>
<defs>
<clipPath id="clip0_73:5">
<rect width="55" height="61.4621" fill="white" transform="translate(0 0.440918)"/>
</clipPath>
</defs>
</svg>
