<svg width="55" height="62" viewBox="0 0 55 62" fill="none" xmlns="http://www.w3.org/2000/svg">
<g clip-path="url(#clip0_73:8)">
<path d="M32.7637 31.1722C32.7637 34.4208 30.4071 37.0543 27.5 37.0543C24.5929 37.0543 22.2363 34.4208 22.2363 31.1722C22.2363 27.9235 24.5929 25.29 27.5 25.29C30.4071 25.29 32.7637 27.9235 32.7637 31.1722Z" fill="#EDEFFE"/>
<path d="M39.8098 20.7645C39.5568 19.9983 39.1531 19.3048 38.6286 18.7355C38.1192 18.1493 37.499 17.6982 36.8129 17.4155C36.2565 17.174 35.4207 16.8865 33.8811 16.8082C32.2156 16.7234 31.7163 16.7051 27.5 16.7051C23.2832 16.7051 22.7839 16.7229 21.1189 16.8078C19.5793 16.8865 18.743 17.174 18.187 17.4155C17.5009 17.6982 16.8803 18.1493 16.3713 18.7355C15.8468 19.3048 15.4431 19.9978 15.1897 20.7645C14.9736 21.3863 14.7163 22.3209 14.6463 24.0413C14.5703 25.902 14.554 26.46 14.554 31.1722C14.554 35.8839 14.5703 36.4419 14.6463 38.303C14.7163 40.0235 14.9736 40.9576 15.1897 41.5794C15.4431 42.346 15.8464 43.0391 16.3709 43.6084C16.8803 44.1945 17.5005 44.6456 18.1866 44.9284C18.743 45.1703 19.5793 45.4578 21.1189 45.5361C22.7839 45.621 23.2828 45.6388 27.4995 45.6388C31.7167 45.6388 32.216 45.621 33.8807 45.5361C35.4202 45.4578 36.2565 45.1703 36.8129 44.9284C38.1901 44.3347 39.2786 43.1183 39.8098 41.5794C40.0259 40.9576 40.2832 40.0235 40.3537 38.303C40.4296 36.4419 40.4456 35.8839 40.4456 31.1722C40.4456 26.46 40.4296 25.902 40.3537 24.0413C40.2836 22.3209 40.0264 21.3863 39.8098 20.7645ZM27.5 40.2331C23.0214 40.2331 19.3909 36.1765 19.3909 31.1717C19.3909 26.1669 23.0214 22.1103 27.5 22.1103C31.9781 22.1103 35.6086 26.1669 35.6086 31.1717C35.6086 36.1765 31.9781 40.2331 27.5 40.2331ZM35.9292 23.8697C34.8827 23.8697 34.0342 22.9215 34.0342 21.7521C34.0342 20.5826 34.8827 19.6344 35.9292 19.6344C36.9758 19.6344 37.8242 20.5826 37.8242 21.7521C37.8238 22.9215 36.9758 23.8697 35.9292 23.8697Z" fill="#EDEFFE"/>
<path d="M27.5 0.440918C12.3145 0.440918 0 14.2023 0 31.172C0 48.1417 12.3145 61.9031 27.5 61.9031C42.6855 61.9031 55 48.1417 55 31.172C55 14.2023 42.6855 0.440918 27.5 0.440918ZM43.1958 38.4473C43.1194 40.3258 42.8521 41.6082 42.4619 42.7308C41.6415 45.1012 39.9647 46.975 37.8436 47.8918C36.8394 48.3279 35.6913 48.6261 34.0108 48.7119C32.3269 48.7977 31.7889 48.8183 27.5004 48.8183C23.2115 48.8183 22.674 48.7977 20.9896 48.7119C19.3091 48.6261 18.161 48.3279 17.1569 47.8918C16.1028 47.4486 15.1486 46.7542 14.3597 45.8562C13.5566 44.9751 12.9351 43.9083 12.5386 42.7308C12.1483 41.6087 11.881 40.3258 11.8047 38.4477C11.727 36.5655 11.709 35.9643 11.709 31.172C11.709 26.3796 11.727 25.7785 11.8042 23.8967C11.8806 22.0182 12.1475 20.7357 12.5377 19.6131C12.9343 18.4357 13.5561 17.3689 14.3597 16.4878C15.1482 15.5898 16.1028 14.8953 17.1564 14.4522C18.161 14.0161 19.3087 13.7179 20.9896 13.6321C22.6736 13.5463 23.2115 13.5256 27.5 13.5256C31.7885 13.5256 32.3264 13.5463 34.0104 13.6325C35.6913 13.7179 36.839 14.0161 37.8436 14.4517C38.8972 14.8949 39.8518 15.5898 40.6407 16.4878C41.4439 17.3694 42.0657 18.4357 42.4619 19.6131C42.8525 20.7357 43.1194 22.0182 43.1962 23.8967C43.273 25.7785 43.291 26.3796 43.291 31.172C43.291 35.9643 43.273 36.5655 43.1958 38.4473Z" fill="#EDEFFE"/>
</g>
<defs>
<clipPath id="clip0_73:8">
<rect width="55" height="61.4621" fill="white" transform="translate(0 0.440918)"/>
</clipPath>
</defs>
</svg>
