<svg width="55" height="62" viewBox="0 0 55 62" fill="none" xmlns="http://www.w3.org/2000/svg">
<g clip-path="url(#clip0_73:13)">
<path d="M27.5 0.440918C12.3145 0.440918 0 14.2023 0 31.172C0 48.1417 12.3145 61.9031 27.5 61.9031C42.6855 61.9031 55 48.1417 55 31.172C55 14.2023 42.6855 0.440918 27.5 0.440918ZM40.0562 24.4017C40.0684 24.7042 40.0742 25.0081 40.0742 25.3133C40.0742 34.634 33.7254 45.3821 22.1151 45.3826H22.1155H22.1151C18.5504 45.3826 15.2333 44.215 12.44 42.2141C12.9338 42.2793 13.4365 42.3116 13.9455 42.3116C16.903 42.3116 19.6246 41.1843 21.7852 39.2923C19.0221 39.2351 16.6924 37.1957 15.8884 34.393C16.2732 34.4755 16.6689 34.5205 17.0746 34.5205C17.6508 34.5205 18.2088 34.4338 18.7392 34.272C15.851 33.6258 13.6753 30.7734 13.6753 27.3578C13.6753 27.3259 13.6753 27.2973 13.6761 27.2678C14.5267 27.7962 15.4994 28.1142 16.535 28.1498C14.8402 26.8861 13.7261 24.7258 13.7261 22.2785C13.7261 20.9861 14.0387 19.7754 14.5808 18.733C17.6936 23.0011 22.3454 25.808 27.5915 26.103C27.4832 25.5862 27.4274 25.0479 27.4274 24.4946C27.4274 20.6007 30.2544 17.4416 33.7401 17.4416C35.5558 17.4416 37.1957 18.2992 38.3475 19.6703C39.7855 19.3534 41.1359 18.7663 42.3557 17.9583C41.8836 19.6047 40.8833 20.9861 39.5799 21.8597C40.8568 21.689 42.0737 21.3106 43.2046 20.7489C42.3599 22.1636 41.2886 23.4062 40.0562 24.4017Z" fill="#EDEFFE"/>
</g>
<defs>
<clipPath id="clip0_73:13">
<rect width="55" height="61.4621" fill="white" transform="translate(0 0.440918)"/>
</clipPath>
</defs>
</svg>
