<svg width="796" height="755" viewBox="0 0 796 755" fill="none" xmlns="http://www.w3.org/2000/svg">
<path opacity="0.9" d="M215.223 522.128C326.026 568.017 349.253 493.257 432.722 444.272C499.251 405.209 566.959 415.914 617.505 349.927C661.556 292.427 671.299 191.891 627.71 152.616C574.617 104.749 486.881 110.758 424.204 163.186C376.444 203.08 347.565 291.445 286.289 303.616C215.78 317.644 175.98 253.197 109.896 292.547C-11.8763 364.982 195.259 513.853 215.223 522.128Z" fill="#1C102E"/>
<path opacity="0.1" d="M398 645.615C568.475 645.615 706.673 637.963 706.673 628.522C706.673 619.082 568.475 611.429 398 611.429C227.525 611.429 89.3271 619.082 89.3271 628.522C89.3271 637.963 227.525 645.615 398 645.615Z" fill="#0D1C41"/>
<path opacity="0.6" d="M329.698 303.647L329.698 303.652C330.195 310.458 333.373 316.832 338.593 321.51C341.99 324.554 346.091 326.735 350.517 327.91H120.279C113.346 327.828 106.703 325.275 101.67 320.765C96.638 316.255 93.5836 310.121 93.1055 303.582C93.1054 303.581 93.1054 303.58 93.1053 303.579L88.9518 236.951H325.524L329.698 303.647Z" fill="white" stroke="black"/>
<path d="M375.473 191.77H163.976C160.604 191.732 157.261 192.359 154.158 193.61C151.055 194.862 148.26 196.711 145.949 199.04C143.638 201.369 141.863 204.128 140.735 207.142C139.607 210.156 139.151 213.359 139.396 216.549L144.872 303.631C145.122 306.821 144.669 310.027 143.543 313.043C142.416 316.059 140.641 318.819 138.33 321.15C136.018 323.48 133.221 325.329 130.115 326.579C127.01 327.828 123.665 328.452 120.292 328.41H357.866C361.239 328.452 364.584 327.828 367.689 326.579C370.795 325.329 373.592 323.48 375.904 321.15C378.215 318.819 379.991 316.059 381.117 313.043C382.243 310.027 382.696 306.821 382.446 303.631L383.035 313.053L377.017 216.609C376.758 213.414 377.204 210.202 378.326 207.179C379.448 204.156 381.222 201.387 383.535 199.05C385.847 196.713 388.648 194.859 391.758 193.606C394.868 192.352 398.219 191.727 401.598 191.77H375.473Z" fill="#0D1C41"/>
<path d="M171.35 192.27H401.595C408.535 192.353 415.184 194.912 420.218 199.431C425.251 203.949 428.301 210.095 428.768 216.641C428.768 216.642 428.768 216.644 428.768 216.645L449.144 543.251H212.572L192.144 216.518L192.144 216.518L192.144 216.513C191.65 209.706 188.472 203.332 183.251 198.656C179.86 195.619 175.767 193.443 171.35 192.27Z" fill="white" stroke="black"/>
<path d="M271.691 284.907H227.656L224.997 243.11H269.048L271.691 284.907ZM232.432 279.984H266.135L264.272 248.017H230.506L232.432 279.984Z" fill="#0D1C41"/>
<path d="M277.836 383.223H233.753L231.142 341.411H275.225L277.836 383.223ZM238.625 378.3H272.327L270.337 346.333H236.635L238.625 378.3Z" fill="#0D1C41"/>
<path d="M283.965 481.539H239.883L237.208 439.727H281.29L283.965 481.539ZM244.77 476.616H278.473L276.467 444.65H242.764L244.77 476.616Z" fill="#0D1C41"/>
<path d="M394.561 243.095H293.215V248.017H394.561V243.095Z" fill="#0D1C41"/>
<path d="M383.799 261.547H294.361V266.469H383.799V261.547Z" fill="#0D1C41"/>
<path d="M396.854 279.984H295.507V284.907H396.854V279.984Z" fill="#0D1C41"/>
<path d="M400.69 341.411H299.344V346.333H400.69V341.411Z" fill="#0D1C41"/>
<path d="M359.983 359.863H300.49V364.786H359.983V359.863Z" fill="#0D1C41"/>
<path d="M332.362 378.3H301.652V383.223H332.362V378.3Z" fill="#0D1C41"/>
<path d="M402.999 378.3H352.325V383.223H402.999V378.3Z" fill="#0D1C41"/>
<path d="M406.82 439.727H305.473V444.65H406.82V439.727Z" fill="#0D1C41"/>
<path d="M407.982 458.179H306.635V463.102H407.982V458.179Z" fill="#0D1C41"/>
<path d="M363.836 476.616H307.781V481.539H363.836V476.616Z" fill="#0D1C41"/>
<path d="M252.539 275.061C251.437 275.063 250.377 274.663 249.578 273.944L238.8 264.25C238.388 263.88 238.057 263.437 237.826 262.946C237.594 262.455 237.467 261.925 237.452 261.387C237.421 260.301 237.845 259.248 238.633 258.459C239.42 257.67 240.506 257.21 241.651 257.18C242.796 257.151 243.906 257.554 244.738 258.3L252.412 265.171L269.685 247.761C270.47 246.97 271.555 246.507 272.7 246.474C273.845 246.442 274.956 246.842 275.79 247.587C276.624 248.332 277.112 249.36 277.146 250.446C277.18 251.532 276.759 252.587 275.973 253.378L255.739 273.778C255.351 274.173 254.883 274.49 254.364 274.711C253.844 274.931 253.283 275.05 252.714 275.061H252.539Z" fill="#A89060"/>
<path d="M258.684 373.378C257.582 373.382 256.521 372.981 255.723 372.26L244.897 362.566C244.471 362.201 244.126 361.758 243.882 361.265C243.638 360.771 243.501 360.236 243.478 359.692C243.455 359.147 243.547 358.604 243.749 358.094C243.951 357.583 244.258 357.116 244.652 356.72C245.047 356.324 245.52 356.006 246.046 355.786C246.572 355.566 247.138 355.447 247.713 355.438C248.287 355.428 248.858 355.527 249.392 355.73C249.925 355.932 250.411 356.234 250.82 356.617L258.509 363.487L275.766 346.077C276.552 345.286 277.636 344.823 278.781 344.791C279.926 344.758 281.038 345.158 281.872 345.903C282.705 346.648 283.193 347.677 283.228 348.763C283.262 349.849 282.84 350.903 282.055 351.694L261.82 372.094C261.435 372.488 260.97 372.805 260.453 373.025C259.936 373.246 259.378 373.366 258.811 373.378H258.684Z" fill="#A89060"/>
<path d="M264.813 471.709C263.709 471.707 262.648 471.302 261.852 470.576L251.027 460.882C250.6 460.517 250.255 460.074 250.011 459.581C249.767 459.087 249.63 458.552 249.607 458.008C249.584 457.463 249.677 456.92 249.878 456.41C250.08 455.899 250.387 455.432 250.781 455.036C251.176 454.64 251.65 454.322 252.175 454.102C252.701 453.882 253.268 453.763 253.842 453.754C254.417 453.744 254.987 453.843 255.521 454.046C256.054 454.248 256.54 454.55 256.949 454.933L264.638 461.803L281.911 444.393C282.72 443.734 283.758 443.382 284.824 443.406C285.89 443.43 286.909 443.827 287.684 444.521C288.459 445.215 288.936 446.157 289.023 447.165C289.109 448.173 288.799 449.176 288.152 449.98L267.918 470.38C267.528 470.773 267.06 471.089 266.541 471.309C266.022 471.53 265.462 471.65 264.893 471.663L264.813 471.709Z" fill="#A89060"/>
<path d="M493.133 240.277L462.214 247.485L554.485 603.53L585.405 596.321L493.133 240.277Z" fill="white"/>
<path d="M462.826 247.856L492.772 240.874L584.792 595.95L554.847 602.932L462.826 247.856Z" stroke="#556CA4" stroke-opacity="0.7"/>
<path opacity="0.2" d="M493.117 240.274L483.702 242.469L575.974 598.513L585.389 596.318L493.117 240.274Z" fill="black"/>
<path d="M583.069 601.618L559.106 607.204C557.185 607.652 556.011 609.493 556.483 611.315L560.496 626.799C560.968 628.621 562.908 629.735 564.829 629.288L588.792 623.701C590.713 623.253 591.888 621.413 591.415 619.59L587.402 604.106C586.93 602.284 584.99 601.17 583.069 601.618Z" fill="#407BFF"/>
<path opacity="0.7" d="M583.069 601.618L559.106 607.204C557.185 607.652 556.011 609.493 556.483 611.315L560.496 626.799C560.968 628.621 562.908 629.735 564.829 629.288L588.792 623.701C590.713 623.253 591.888 621.413 591.415 619.59L587.402 604.106C586.93 602.284 584.99 601.17 583.069 601.618Z" fill="#EB5757"/>
<path d="M583.254 591.198L553.865 598.05C552.089 598.464 551.004 600.165 551.44 601.85L554.07 611.997C554.506 613.681 556.3 614.711 558.076 614.297L587.465 607.445C589.241 607.031 590.327 605.33 589.89 603.645L587.26 593.498C586.824 591.814 585.03 590.784 583.254 591.198Z" fill="#E0E0E0"/>
<path d="M493.138 240.241L462.221 247.459L465.851 222.921L468.175 207.187L477.934 220.097L493.138 240.241Z" fill="#E0E0E0"/>
<path d="M477.934 220.097L465.851 222.921L468.175 207.187L477.934 220.097Z" fill="#EB5757"/>
<path d="M572.993 216.957C572.833 226.017 570.987 243.095 576.017 248.667C564.454 252.273 554.086 258.687 545.945 267.27C539.051 256.579 548.046 250.826 548.046 250.826C557.964 247.806 557.359 240.724 555.274 234.216L572.993 216.957Z" fill="#FFB573"/>
<path d="M543.015 258.044C545.642 248.787 538.239 247.474 550.577 242.944C560.225 239.32 578.453 238.806 582.736 241.721C585.108 243.351 581.844 249.059 581.844 249.059L543.015 258.044Z" fill="#263238"/>
<path d="M596.491 256.05C597.207 257.138 597.716 257.968 598.29 258.919C598.863 259.871 599.34 260.747 599.882 261.668C600.9 263.51 601.856 265.352 602.779 267.224C604.626 270.954 606.234 274.774 607.714 278.64C610.688 286.47 612.821 294.564 614.082 302.8L614.496 305.911C614.576 306.349 614.639 307.134 614.687 307.813C614.735 308.493 614.687 309.112 614.687 309.716C614.651 311.944 614.475 314.167 614.162 316.375C613.605 320.543 612.761 324.484 611.837 328.455C609.957 336.201 607.581 343.83 604.721 351.301C604.341 352.314 603.585 353.161 602.595 353.684C601.604 354.207 600.447 354.37 599.339 354.142C598.231 353.915 597.249 353.312 596.575 352.448C595.901 351.583 595.583 350.515 595.679 349.444C596.315 341.773 597.064 334.042 597.653 326.492C597.939 322.717 598.162 318.942 598.226 315.378C598.226 313.612 598.226 311.86 598.051 310.395L597.907 309.384L597.7 308.402L597.111 305.775C595.411 298.698 593.122 291.761 590.266 285.027C588.833 281.645 587.289 278.293 585.665 274.986C584.858 273.325 584.015 271.694 583.134 270.093L581.796 267.708L580.539 265.518L580.316 265.126C579.156 263.098 578.875 260.721 579.533 258.501C580.191 256.28 581.736 254.39 583.839 253.232C585.943 252.074 588.439 251.74 590.799 252.3C593.158 252.86 595.194 254.27 596.475 256.232L596.491 256.05Z" fill="#FFB573"/>
<path d="M592.224 354.352L593.545 352.268L597.271 346.318L604.1 349.988C605.517 356.028 601.187 361.373 601.187 361.373L599.261 362.883C598.604 363.425 597.755 363.709 596.886 363.678C596.016 363.647 595.192 363.304 594.58 362.717L593.1 361.418C592.168 360.488 591.579 359.297 591.421 358.023C591.263 356.749 591.545 355.461 592.224 354.352V354.352Z" fill="#FFB573"/>
<path d="M501.48 351.271L500.381 347.496C500.124 346.608 499.509 345.852 498.67 345.389C497.83 344.926 496.833 344.793 495.892 345.02L491.116 346.183L488.171 346.877C486.622 347.26 485.246 348.112 484.252 349.302C483.259 350.493 482.701 351.958 482.662 353.476V355.726C482.656 356.706 483.041 357.652 483.742 358.372C484.442 359.093 485.405 359.534 486.435 359.607L489.381 359.878C493.799 359.211 497.85 357.146 500.875 354.02C501.203 353.642 501.429 353.195 501.535 352.716C501.64 352.237 501.621 351.742 501.48 351.271Z" fill="#FFB573"/>
<path d="M588.53 249.407C596.888 252.925 604.546 261.305 610.818 276.813C608.813 283.2 588.101 293.665 588.101 293.665C588.101 293.665 562.262 241.706 588.53 249.407Z" fill="#407BFF"/>
<path d="M519.39 269.263C519.47 275.016 509.424 288.349 520.982 296.081C521.985 307.723 523.338 319.184 525.965 338.285H587.782C581.908 317.145 586.986 302.951 596.411 265.805C596.949 263.809 597.026 261.726 596.637 259.699C596.247 257.672 595.401 255.749 594.155 254.061C592.909 252.373 591.294 250.961 589.419 249.92C587.544 248.88 585.455 248.236 583.293 248.032C580.825 247.806 578.214 247.61 575.556 247.474C566.207 246.839 556.822 246.839 547.473 247.474C544.432 247.73 541.296 248.093 538.287 248.485C533.028 249.212 528.223 251.713 524.751 255.53C521.28 259.347 519.377 264.223 519.39 269.263V269.263Z" fill="#EB5757"/>
<path d="M539.863 263.661C540.006 267.98 539.863 272.117 539.863 276.345C539.863 280.573 539.577 284.756 539.29 288.984C538.797 297.555 537.733 306.089 536.106 314.533C535.915 315.605 535.612 316.722 535.342 317.81C535.071 318.897 534.832 319.984 534.466 321.132L533.957 322.808L533.686 323.653C533.584 324.033 533.456 324.406 533.304 324.771C532.638 326.397 531.726 327.923 530.598 329.301C529.045 331.212 527.347 333.014 525.519 334.691C523.848 336.277 522.144 337.711 520.425 339.221C513.654 344.754 506.46 349.801 498.901 354.321C497.952 354.887 496.82 355.111 495.712 354.952C494.603 354.793 493.592 354.262 492.861 353.456C492.131 352.649 491.73 351.621 491.731 350.558C491.732 349.495 492.135 348.467 492.867 347.662V347.662C498.551 341.517 504.409 335.416 509.87 329.376C511.207 327.866 512.513 326.356 513.754 324.846C514.92 323.505 515.984 322.087 516.938 320.603C517.32 320.044 517.559 319.365 517.352 319.742C517.145 320.12 517.352 319.546 517.352 319.38L517.496 318.716L517.798 317.402C518.021 316.556 518.148 315.605 518.307 314.684C518.467 313.763 518.658 312.842 518.753 311.875C519.836 304.25 520.345 296.217 520.648 288.183C520.95 280.15 521.141 271.966 521.189 264.023C521.175 262.859 521.404 261.704 521.861 260.624C522.318 259.544 522.995 258.559 523.853 257.727C525.586 256.046 527.952 255.088 530.431 255.062C532.909 255.036 535.297 255.944 537.069 257.588C538.841 259.232 539.852 261.476 539.879 263.827L539.863 263.661Z" fill="#FFB573"/>
<path d="M533.049 249.829C525.424 253.423 517.862 260.399 514.725 276.375C516.715 282.702 543.97 294.888 543.97 294.888C543.97 294.888 559.142 240.588 533.049 249.829Z" fill="#EB5757"/>
<path d="M534.721 211.188C534.928 212.321 534.45 213.378 533.654 213.514C532.858 213.65 532.062 212.865 531.855 211.717C531.648 210.569 532.142 209.527 532.922 209.391C533.702 209.256 534.53 210.041 534.721 211.188Z" fill="#263238"/>
<path d="M533.32 209.376L530.279 209.135C530.279 209.135 532.11 210.992 533.32 209.376Z" fill="#263238"/>
<path d="M534.434 212.457C533.809 215.272 532.786 217.995 531.394 220.55C532.092 220.859 532.852 221.019 533.622 221.019C534.393 221.019 535.153 220.859 535.851 220.55L534.434 212.457Z" fill="#ED893E"/>
<path d="M531.569 203.397C531.386 203.396 531.211 203.331 531.075 203.216C531.008 203.153 530.954 203.077 530.918 202.994C530.881 202.911 530.863 202.822 530.863 202.733C530.863 202.643 530.881 202.554 530.918 202.471C530.954 202.388 531.008 202.313 531.075 202.249C531.853 201.437 532.823 200.811 533.904 200.422C534.986 200.034 536.15 199.894 537.3 200.015C537.391 200.031 537.478 200.064 537.556 200.112C537.633 200.161 537.7 200.223 537.752 200.297C537.804 200.37 537.84 200.452 537.858 200.538C537.876 200.624 537.876 200.713 537.857 200.8C537.819 200.981 537.707 201.14 537.547 201.244C537.386 201.349 537.189 201.39 536.997 201.358C536.087 201.28 535.169 201.404 534.318 201.721C533.467 202.039 532.705 202.54 532.094 203.186C531.955 203.319 531.766 203.395 531.569 203.397V203.397Z" fill="#263238"/>
<path d="M574.123 199.939C575.715 214.133 576.67 220.113 570.573 228.629C561.387 241.539 542.92 240.709 536.981 227.376C531.632 215.296 529.961 194.156 543.27 185.911C546.133 184.059 549.459 182.953 552.914 182.704C556.369 182.456 559.833 183.073 562.958 184.493C566.083 185.914 568.759 188.089 570.718 190.8C572.678 193.51 573.852 196.662 574.123 199.939V199.939Z" fill="#FFB573"/>
<path d="M546.9 210.313C537.348 208.712 535.039 198.308 538.574 193.778C522.478 194.458 511.637 177.38 529.022 167.64C546.406 157.901 561.753 172.985 560.511 178.678C581.924 176.836 594.469 193.552 582.799 205.979C598.194 208.35 621.246 224.809 604.323 242.098C627.2 245.284 629.684 313.234 567.405 301.154C501.751 288.41 558.792 234.216 558.792 234.216C558.792 234.216 542.156 229.777 546.9 210.313Z" fill="#263238"/>
<path d="M607.889 246.522L606.536 245.737C612.315 236.828 613.27 228.72 609.37 221.577C604.355 212.517 592.192 207.172 582.751 206.658L582.847 205.148C592.717 205.677 605.501 211.188 610.787 220.868C614.894 228.418 613.891 237.266 607.889 246.522Z" fill="#263238"/>
<path d="M589.788 207.504C595.281 206.643 592.686 198.142 588.642 195.892C584.598 193.642 565.224 197.296 567.357 203.155C569.49 209.014 582.417 208.667 589.788 207.504Z" fill="white"/>
<path d="M590.775 205.36C596.252 204.363 594.055 197.478 589.947 195.318C585.84 193.159 568.917 194.76 571.225 200.543C573.534 206.326 583.452 206.734 590.775 205.36Z" fill="#EB5757"/>
<path d="M533.4 195.5C529.732 195.453 526.185 194.247 523.322 192.072C518.753 188.705 516.238 183.661 516.954 179.222C517.384 176.398 519.247 172.517 525.742 170.056L526.331 171.46C521.746 173.197 519.056 175.99 518.53 179.433C517.957 183.359 520.234 187.844 524.357 190.879C526.27 192.392 528.574 193.394 531.03 193.781C533.487 194.169 536.009 193.928 538.335 193.084L538.94 194.488C537.182 195.17 535.299 195.514 533.4 195.5V195.5Z" fill="#263238"/>
<path d="M550.673 211.974C549.956 215.688 549.734 217.274 547.696 219.01C547.117 219.625 546.355 220.059 545.512 220.256C544.668 220.453 543.781 220.404 542.967 220.115C542.154 219.826 541.451 219.311 540.951 218.637C540.451 217.963 540.177 217.162 540.166 216.338C539.847 212.925 541.073 207.429 544.719 206.281C548.364 205.133 551.389 208.274 550.673 211.974Z" fill="#FFB573"/>
<path d="M541.885 223.797L540.596 221.608C540.541 221.518 540.512 221.417 540.512 221.313C540.512 221.21 540.541 221.108 540.596 221.019L541.885 218.844C541.94 218.75 542.021 218.671 542.119 218.616C542.217 218.562 542.328 218.533 542.442 218.533C542.556 218.533 542.668 218.562 542.766 218.616C542.864 218.671 542.944 218.75 542.999 218.844L544.289 221.019C544.343 221.108 544.372 221.21 544.372 221.313C544.372 221.417 544.343 221.518 544.289 221.608L542.999 223.797C542.944 223.892 542.864 223.97 542.766 224.025C542.668 224.08 542.556 224.109 542.442 224.109C542.328 224.109 542.217 224.08 542.119 224.025C542.021 223.97 541.94 223.892 541.885 223.797V223.797Z" fill="white"/>
<path d="M525.997 338.24C525.997 338.24 523.816 413.951 520.902 463.751C517.814 509.459 513.85 616.352 513.85 616.352L526.029 616.956C526.029 616.956 552.965 527.005 551.835 472.66C583.452 396.647 572.085 340.52 572.085 340.52L525.997 338.24Z" fill="#FFB573"/>
<path d="M514.757 611.55C514.486 611.364 514.16 611.265 513.826 611.265C513.492 611.265 513.166 611.364 512.895 611.55C507.05 615.665 499.971 617.898 492.692 617.922C484.605 618.254 486.595 622.452 498.169 623.856C511.78 625.457 514.693 628.115 519.087 629.157C523.481 630.198 526.968 627.027 526.888 618.269C526.881 617.97 526.78 617.68 526.599 617.436C526.417 617.191 526.164 617.003 525.869 616.895C521.957 615.534 518.227 613.74 514.757 611.55V611.55Z" fill="#263238"/>
<path d="M542.156 338.24C542.156 338.24 564.444 427.843 577.355 469.61C590.934 513.4 601.696 613.332 601.617 616.639H612.156C612.156 616.639 625.767 535.642 608.972 469.565C607.38 362.355 587.894 338.315 587.894 338.315L542.156 338.24Z" fill="#FFB573"/>
<path d="M601.346 613.06C601.072 612.953 600.768 612.933 600.481 613.004C600.194 613.075 599.939 613.232 599.754 613.453C597.032 616.805 595.058 620.519 587.018 623.781C580.364 626.469 584.041 630.153 594.453 628.809C606.695 627.209 606.87 629.096 610.994 629.096C615.117 629.096 617.059 625.2 614.05 616.729C613.955 616.449 613.779 616.199 613.543 616.007C613.307 615.815 613.02 615.689 612.713 615.642C608.828 615.22 605.011 614.353 601.346 613.06V613.06Z" fill="#263238"/>
<path d="M525.997 338.24C525.997 338.24 515.49 404.589 516.97 495.28C550.21 495.101 583.239 490.267 614.99 480.935C614.99 480.935 615.467 363.427 587.814 338.285C571.846 334.208 526.363 336.911 525.997 338.24Z" fill="#263238"/>
<path opacity="0.2" d="M527.223 482.4C527.12 482.4 527.021 482.362 526.947 482.295C526.872 482.227 526.829 482.135 526.825 482.037C523.848 424.129 531.075 342.377 531.139 341.607C531.141 341.557 531.154 341.507 531.177 341.462C531.2 341.417 531.233 341.376 531.273 341.344C531.314 341.311 531.361 341.287 531.412 341.272C531.463 341.258 531.516 341.254 531.569 341.26C531.621 341.264 531.672 341.277 531.719 341.3C531.766 341.323 531.807 341.354 531.841 341.392C531.875 341.429 531.901 341.473 531.917 341.521C531.933 341.568 531.939 341.618 531.935 341.668C531.855 342.498 524.644 424.189 527.621 482.098C527.625 482.148 527.618 482.198 527.601 482.246C527.584 482.293 527.557 482.337 527.521 482.374C527.485 482.411 527.441 482.44 527.392 482.46C527.344 482.48 527.291 482.49 527.238 482.49L527.223 482.4Z" fill="white"/>
<path opacity="0.2" d="M568.822 424.491L577.88 378.979L581.526 389.867L568.822 424.491Z" fill="black"/>
</svg>
