<svg width="784" height="766" viewBox="0 0 784 766" fill="none" xmlns="http://www.w3.org/2000/svg">
<g filter="url(#filter0_dd_77:91)">
<path d="M179.411 383.659C175.726 337.959 85.0012 262.998 116.926 224.944C156.596 177.666 307.406 244.783 374.877 231.868C447.225 218.08 573.088 89.3922 636.733 119.312C712.28 154.916 609.105 327.159 619.689 398.979C625.632 439.347 698.089 528.831 665.365 559.839C613.464 608.863 454.061 529.046 376.195 534.484C315.717 538.712 175.412 616.14 133.531 580.628C90.1913 543.86 183.566 435.333 179.411 383.659Z" fill="#407BFF"/>
<path opacity="0.9" d="M179.411 383.659C175.726 337.959 85.0012 262.998 116.926 224.944C156.596 177.666 307.406 244.783 374.877 231.868C447.225 218.08 573.088 89.3922 636.733 119.312C712.28 154.916 609.105 327.159 619.689 398.979C625.632 439.347 698.089 528.831 665.365 559.839C613.464 608.863 454.061 529.046 376.195 534.484C315.717 538.712 175.412 616.14 133.531 580.628C90.1913 543.86 183.566 435.333 179.411 383.659Z" fill="#DDD0A4"/>
<path opacity="0.4" d="M392 655.022C559.905 655.022 696.02 647.257 696.02 637.68C696.02 628.102 559.905 620.337 392 620.337C224.095 620.337 87.9805 628.102 87.9805 637.68C87.9805 647.257 224.095 655.022 392 655.022Z" fill="#939CA6"/>
<path opacity="0.9" d="M630.179 585.546C630.179 585.546 619.862 563.577 631.637 541.899C643.413 520.221 646.847 515.12 639.336 510.692C631.826 506.265 628.36 528.019 628.36 528.019C628.36 528.019 622.088 513.036 627.247 497.379C632.406 481.722 635.761 456.168 628.627 453.426C621.492 450.684 627.263 485.276 621.069 497.073C617.911 488.793 615.871 480.146 615.001 471.35C614.154 458.757 615.487 438.657 609.842 433.495C604.197 428.332 600.607 431.963 606.142 459.692C609.469 476.3 611.31 493.159 611.645 510.079C611.645 510.079 599.399 473.618 591.261 472.561C583.123 471.504 583.061 483.285 590.101 493.534C597.141 503.783 610.626 522.106 612.837 531.604C612.837 531.604 599.415 504.181 587.326 512.577C575.236 520.972 597.847 537.563 607.914 543.554C617.98 549.544 624.989 587.062 624.989 587.062L630.179 585.546Z" fill="#406C2B"/>
<path d="M622.026 594.569C622.026 594.569 632.076 572.431 620.034 550.937C607.992 529.444 604.495 524.388 611.959 519.838C619.423 515.288 623.123 537.012 623.123 537.012C623.123 537.012 629.27 521.952 623.86 506.372C618.45 490.791 614.844 465.283 621.947 462.449C629.05 459.615 623.703 494.284 630.038 505.973C633.097 497.656 635.026 488.982 635.777 480.174C636.482 467.566 634.899 447.482 640.481 442.242C646.063 437.003 649.716 440.526 644.511 468.393C641.39 485.039 639.758 501.919 639.634 518.842C639.634 518.842 651.426 482.212 659.626 481.032C667.827 479.853 667.952 491.649 661.053 501.99C654.154 512.331 640.826 530.868 638.709 540.29C638.709 540.29 651.802 512.714 663.985 520.91C676.169 529.106 653.778 546.035 643.789 552.163C633.801 558.291 627.2 595.948 627.2 595.948L622.026 594.569Z" fill="#61A73A"/>
<path d="M668.344 578.79H585.397L592.108 636.791H661.633L668.344 578.79Z" fill="#263238"/>
<path d="M411.271 246.041H356.532C354.424 246.041 352.402 246.859 350.911 248.316C349.42 249.773 348.582 251.748 348.582 253.808V305.804C348.582 307.864 349.42 309.84 350.911 311.297C352.402 312.753 354.424 313.572 356.532 313.572H374.047L362.255 329.229L382.639 313.572H411.255C413.364 313.572 415.386 312.753 416.877 311.297C418.367 309.84 419.205 307.864 419.205 305.804V253.808C419.205 251.751 418.37 249.778 416.882 248.321C415.395 246.865 413.377 246.045 411.271 246.041Z" fill="#A89060"/>
<path d="M404.641 284.573C407.344 273.382 400.25 262.169 388.796 259.528C377.342 256.886 365.865 263.817 363.162 275.008C360.459 286.199 367.552 297.413 379.006 300.054C390.46 302.695 401.937 295.764 404.641 284.573Z" fill="white"/>
<path d="M381.259 289.749C380.971 289.755 380.683 289.706 380.414 289.603C380.145 289.501 379.9 289.347 379.691 289.152L370.644 280.496C370.228 280.102 369.99 279.562 369.981 278.996C369.972 278.43 370.194 277.884 370.597 277.478C371 277.071 371.552 276.838 372.132 276.83C372.711 276.821 373.27 277.038 373.686 277.432L381.103 284.525L393.929 270.538C394.322 270.151 394.852 269.926 395.411 269.909C395.969 269.893 396.512 270.086 396.928 270.45C397.345 270.813 397.602 271.319 397.648 271.863C397.694 272.407 397.524 272.947 397.175 273.372L382.827 289.014C382.629 289.23 382.388 289.404 382.118 289.525C381.849 289.647 381.556 289.712 381.259 289.718V289.749Z" fill="#DDD0A4"/>
<path d="M145.667 601.953L190.841 597.602V547.828H208.748V597.587L254.11 601.953C256.284 602.159 258.301 603.149 259.768 604.729C261.235 606.31 262.047 608.368 262.044 610.502V617.135H137.733V610.502C137.731 608.368 138.542 606.31 140.009 604.729C141.476 603.149 143.494 602.159 145.667 601.953Z" fill="#263238"/>
<path opacity="0.1" d="M145.667 601.953L190.841 597.602V547.828H208.748V597.587L254.11 601.953C256.284 602.159 258.301 603.149 259.768 604.729C261.235 606.31 262.047 608.368 262.044 610.502V617.135H137.733V610.502C137.731 608.368 138.542 606.31 140.009 604.729C141.476 603.149 143.494 602.159 145.667 601.953Z" fill="white"/>
<path d="M257.262 636.791C263.73 636.791 268.974 631.667 268.974 625.347C268.974 619.027 263.73 613.903 257.262 613.903C250.793 613.903 245.549 619.027 245.549 625.347C245.549 631.667 250.793 636.791 257.262 636.791Z" fill="#263238"/>
<path d="M142.515 636.791C148.984 636.791 154.228 631.667 154.228 625.347C154.228 619.027 148.984 613.903 142.515 613.903C136.047 613.903 130.802 619.027 130.802 625.347C130.802 631.667 136.047 636.791 142.515 636.791Z" fill="#263238"/>
<path d="M205.345 561.156H194.181C192.464 561.156 190.816 560.49 189.602 559.303C188.388 558.117 187.705 556.507 187.705 554.829V505.897H211.821V554.829C211.821 556.507 211.139 558.117 209.924 559.303C208.71 560.49 207.063 561.156 205.345 561.156Z" fill="#263238"/>
<path opacity="0.2" d="M205.345 561.156H194.181C192.464 561.156 190.816 560.49 189.602 559.303C188.388 558.117 187.705 556.507 187.705 554.829V505.897H211.821V554.829C211.821 556.507 211.139 558.117 209.924 559.303C208.71 560.49 207.063 561.156 205.345 561.156Z" fill="white"/>
<path d="M137.262 409.994C137.262 409.994 150.684 491.772 177.184 505.912H150.245C150.245 505.912 123.589 478.03 115.561 409.994H137.262Z" fill="#263238"/>
<path opacity="0.1" d="M137.262 409.994C137.262 409.994 150.684 491.772 177.184 505.912H150.245C150.245 505.912 123.589 478.03 115.561 409.994H137.262Z" fill="white"/>
<path d="M148.96 494.346H253.89C255.97 494.346 257.964 495.153 259.434 496.589C260.904 498.026 261.73 499.974 261.73 502.006V512.255H141.12V502.006C141.12 499.974 141.946 498.026 143.416 496.589C144.886 495.153 146.881 494.346 148.96 494.346Z" fill="#0D1C41"/>
<path d="M263.549 503.292H139.191C137.451 503.292 136.04 504.671 136.04 506.372V509.16C136.04 510.861 137.451 512.239 139.191 512.239H263.549C265.29 512.239 266.701 510.861 266.701 509.16V506.372C266.701 504.671 265.29 503.292 263.549 503.292Z" fill="#263238"/>
<path opacity="0.6" d="M263.549 503.292H139.191C137.451 503.292 136.04 504.671 136.04 506.372V509.16C136.04 510.861 137.451 512.239 139.191 512.239H263.549C265.29 512.239 266.701 510.861 266.701 509.16V506.372C266.701 504.671 265.29 503.292 263.549 503.292Z" fill="white"/>
<path d="M112.378 426.631H155.483C168.121 426.631 176.321 416.734 173.813 404.524L170.457 388.224C167.948 375.968 155.671 366.132 143.049 366.132H99.9442C87.3061 366.132 79.1055 376.029 81.6143 388.224L84.9698 404.524C87.4786 416.704 99.7403 426.631 112.378 426.631Z" fill="#0D1C41"/>
<path d="M341.103 563.607L331.224 567.391L324.121 554.308L317.661 542.404L328.606 536L335.223 550.6L341.103 563.607Z" fill="#EBBC9B"/>
<path opacity="0.2" d="M335.223 550.6L324.121 554.308L317.661 542.404L328.606 536L335.223 550.6Z" fill="black"/>
<path d="M333.169 543.461L319.731 550.509C319.731 550.509 268.943 463.261 261.135 463.997C253.326 464.732 179.238 510.845 156.643 493.809C134.048 476.774 156.032 425.482 156.032 425.482C156.032 425.482 202.774 412.43 207.776 422.418C209.094 425.409 210.215 428.479 211.131 431.61C212.119 434.751 212.872 437.401 212.872 437.401C214.298 436.834 260.46 418.343 281.064 428.209C302.091 438.351 333.169 543.461 333.169 543.461Z" fill="#263238"/>
<path opacity="0.3" d="M333.169 543.461L319.731 550.509C319.731 550.509 268.943 463.261 261.135 463.997C253.326 464.732 179.238 510.845 156.643 493.809C134.048 476.774 156.032 425.482 156.032 425.482C156.032 425.482 202.774 412.43 207.776 422.418C209.094 425.409 210.215 428.479 211.131 431.61C212.119 434.751 212.872 437.401 212.872 437.401C214.298 436.834 260.46 418.343 281.064 428.209C302.091 438.351 333.169 543.461 333.169 543.461Z" fill="white"/>
<path d="M260.162 614.608L249.625 613.428L249.563 598.905L249.547 585.576L262.295 584.994L261.166 600.666L260.162 614.608Z" fill="#EBBC9B"/>
<path opacity="0.2" d="M261.134 600.988L249.531 599.18V585.714L262.279 585.055L261.134 600.988Z" fill="black"/>
<path d="M313.161 546.173L332.824 536.552L334.878 544.702L319.982 552.209L313.161 546.173Z" fill="#A89060"/>
<path d="M191.547 493.947C191.547 493.947 194.777 493.595 244.467 484.602C244.467 484.602 245.596 546.679 247.948 592.96L263.251 593.435C263.251 593.435 285.203 490.791 282.616 475.226C280.029 459.661 261.15 457.624 261.15 457.624C261.15 457.624 228.363 482.58 191.547 493.947Z" fill="#263238"/>
<path opacity="0.4" d="M191.547 493.947C191.547 493.947 194.777 493.595 244.467 484.602C244.467 484.602 245.596 546.679 247.948 592.96L263.251 593.435C263.251 593.435 285.203 490.791 282.616 475.226C280.029 459.661 261.15 457.624 261.15 457.624C261.15 457.624 228.363 482.58 191.547 493.947Z" fill="white"/>
<path opacity="0.3" d="M191.547 493.947C191.547 493.947 194.777 493.595 244.467 484.602C244.467 484.602 245.596 546.679 247.948 592.96L263.251 593.435C263.251 593.435 285.203 490.791 282.616 475.226C280.029 459.661 261.15 457.624 261.15 457.624C261.15 457.624 228.363 482.58 191.547 493.947Z" fill="black"/>
<path d="M245.141 588.824L266.011 588.349L263.157 596.744L246.223 596.898L245.141 588.824Z" fill="#A89060"/>
<path opacity="0.3" d="M212.934 437.432L185.855 446.853C185.855 446.853 200.092 436.466 211.194 431.641C212.181 434.781 212.934 437.432 212.934 437.432Z" fill="black"/>
<path d="M152.896 422.326L153.899 429.664L204.655 419.139L203.479 410.468L152.896 422.326Z" fill="#263238"/>
<path opacity="0.2" d="M152.896 422.326L153.899 429.664L204.655 419.139L203.479 410.468L152.896 422.326Z" fill="black"/>
<path d="M169.713 416.994L167.184 417.453L169.573 430.03L172.101 429.572L169.713 416.994Z" fill="#263238"/>
<path d="M191.845 413.811L180.771 416.25L182.663 424.454L193.738 422.016L191.845 413.811Z" fill="white"/>
<path d="M198.966 408.687L196.446 409.14L198.803 421.676L201.323 421.224L198.966 408.687Z" fill="#263238"/>
<path opacity="0.3" d="M169.713 416.994L167.184 417.453L169.573 430.03L172.101 429.572L169.713 416.994Z" fill="white"/>
<path opacity="0.3" d="M198.966 408.687L196.446 409.14L198.803 421.676L201.323 421.224L198.966 408.687Z" fill="white"/>
<path d="M360.734 580.735C359.085 580.241 357.358 580.049 355.638 580.168C355.638 580.168 349.256 577.564 341.526 565.17L334.94 566.013C333.832 566.175 332.801 566.667 331.988 567.42C331.175 568.174 330.618 569.153 330.393 570.226C330.346 570.53 330.346 570.84 330.393 571.145C330.676 572.7 331.064 574.235 331.553 575.741C333.242 580.721 335.237 585.596 337.527 590.341L338.594 589.912L335.191 580.628C334.062 577.457 337.998 580.138 340.083 583.202C342.169 586.266 345.132 589.238 352.172 586.633C360.357 583.508 363.603 581.853 360.734 580.735Z" fill="#263238"/>
<path d="M339.879 561.876C339.879 561.876 350.448 577.564 355.638 580.168C355.638 580.168 349.821 584.764 342.059 577.38C332.039 567.897 330.362 571.145 330.362 571.145C330.272 569.287 330.362 567.425 330.628 565.583C331.428 561.983 339.879 561.876 339.879 561.876Z" fill="#EBBC9B"/>
<path d="M275.968 632.869C274.466 632.023 272.819 631.452 271.107 631.184C271.107 631.184 265.541 627.185 261.072 613.366L254.471 612.662C253.35 612.558 252.225 612.797 251.25 613.346C250.275 613.895 249.499 614.727 249.03 615.726C248.889 616 248.794 616.295 248.747 616.599C248.638 618.165 248.638 619.736 248.747 621.302C249.173 626.531 249.927 631.729 251.005 636.867L252.15 636.699L251.131 626.863C250.801 623.524 253.984 627.047 255.27 630.51C256.556 633.972 258.704 637.541 266.168 636.638C274.886 635.489 278.43 634.631 275.968 632.869Z" fill="#263238"/>
<path d="M260.288 609.736C260.288 609.736 266.748 627.43 271.154 631.184C271.154 631.184 264.396 634.248 258.61 625.331C251.162 613.795 248.763 616.568 248.763 616.568C249.114 614.747 249.639 612.962 250.331 611.237C251.993 607.867 260.288 609.736 260.288 609.736Z" fill="#EBBC9B"/>
<path d="M141.841 297.208L128.576 299.812C128.058 300.239 127.445 300.542 126.787 300.699C126.129 300.856 125.442 300.862 124.781 300.716C120.83 299.184 115.138 294.695 114.417 293.056C113.35 290.743 114.417 283.956 117.208 282.73C119.999 281.505 129.611 292.842 129.611 292.842L143.864 289.701L141.841 297.208Z" fill="#EBBC9B"/>
<path d="M183.675 340.288C183.675 340.288 182.468 298.296 177.497 296.503C172.527 294.711 135.161 299.72 135.161 299.72L134.252 290.13C134.252 290.13 177.732 283.588 186.153 287.464C194.573 291.34 197.348 353.922 195.811 365.979L183.675 340.288Z" fill="#A89060"/>
<path d="M135.804 300.639L133.201 290.099L136.933 288.782L139.301 300.961L135.804 300.639Z" fill="#4A607A"/>
<path opacity="0.7" d="M135.804 300.639L133.201 290.099L136.933 288.782L139.301 300.961L135.804 300.639Z" fill="white"/>
<path d="M183.456 335.048C183.456 335.048 180.116 347.825 164.029 351.9C147.941 355.975 130.144 345.328 130.144 345.328L133.688 375.815L153.382 423.843L203.715 411.02C203.715 411.02 200.704 355.148 183.456 335.048Z" fill="#A89060"/>
<path opacity="0.6" d="M192.203 385.711L198.095 383.894C198.747 383.693 199.11 383.014 198.904 382.376L195.394 371.506C195.188 370.869 194.492 370.515 193.84 370.716L187.948 372.532C187.296 372.733 186.934 373.413 187.139 374.05L190.649 384.92C190.855 385.558 191.551 385.912 192.203 385.711Z" fill="#4A607A"/>
<path opacity="0.2" d="M191.004 382.397L197.703 380.332L194.811 371.376L188.112 373.441L191.004 382.397Z" fill="black"/>
<path d="M190.779 368.138L189.299 368.595L191.002 373.869L192.482 373.413L190.779 368.138Z" fill="#263238"/>
<path d="M149.242 287.326C136.839 287.326 128.654 300.164 131.555 320.525C134.456 340.885 146.075 346.752 146.075 346.752L145.338 341.835C158.236 344.695 171.535 345.42 184.679 343.98C184.679 343.98 178.689 327.373 180.634 310.413C180.634 310.413 184.569 287.296 149.242 287.326Z" fill="#263238"/>
<path opacity="0.2" d="M173.875 347.764L178.94 366.148L170.034 359.514C170.034 359.514 178.705 378.879 181.01 390.154C181.01 390.154 173.515 370.958 167.055 360.434L163.276 370.974L148.082 355.853C148.082 355.853 161.504 345.803 173.875 347.764Z" fill="black"/>
<path d="M166.474 353.693L151.014 354.152C157.866 345.588 145.479 330.667 145.479 330.667L160.751 333.899C164.389 348.668 170.677 349.112 170.677 349.112L166.474 353.693Z" fill="#EBBC9B"/>
<path opacity="0.2" d="M165.016 344.501C159.117 344.019 153.63 341.349 149.681 337.04C148.461 334.826 147.055 332.715 145.479 330.728L160.751 333.976C161.56 337.693 163.002 341.25 165.016 344.501Z" fill="black"/>
<path d="M160.736 293.562C174.048 294.649 177.748 301.957 177.576 315.454C177.372 332.306 172.543 343.903 156.204 338.97C134.001 332.275 138.611 291.754 160.736 293.562Z" fill="#EBBC9B"/>
<path d="M169.03 314.06C169.931 316.091 171.079 318.01 172.448 319.774C172.01 320.276 171.439 320.652 170.798 320.86C170.157 321.068 169.469 321.1 168.811 320.954L169.03 314.06Z" fill="#986B4B"/>
<path d="M160.014 311.885L162.9 310.965C162.9 310.965 161.363 313.202 160.014 311.885Z" fill="#263238"/>
<path d="M161.018 311.563C160.481 311.305 159.867 311.247 159.29 311.399C158.713 311.551 158.212 311.903 157.882 312.39C158.374 312.17 158.909 312.057 159.45 312.057C159.991 312.057 160.525 312.17 161.018 312.39V311.563Z" fill="#263238"/>
<path d="M155.655 305.358C155.507 305.354 155.366 305.294 155.263 305.19C155.209 305.139 155.165 305.079 155.135 305.012C155.106 304.945 155.09 304.872 155.09 304.799C155.09 304.726 155.106 304.653 155.135 304.586C155.165 304.519 155.209 304.458 155.263 304.408C156.138 303.661 157.178 303.123 158.302 302.835C159.425 302.548 160.602 302.52 161.739 302.754C161.887 302.784 162.016 302.871 162.098 302.994C162.181 303.118 162.209 303.268 162.178 303.412C162.147 303.557 162.058 303.683 161.932 303.763C161.805 303.844 161.651 303.872 161.504 303.841C160.555 303.652 159.575 303.674 158.636 303.904C157.697 304.135 156.823 304.569 156.079 305.174C156.026 305.233 155.961 305.28 155.888 305.312C155.815 305.344 155.735 305.36 155.655 305.358Z" fill="#263238"/>
<path d="M176.541 305.588C176.417 305.592 176.295 305.554 176.196 305.48C175.569 304.919 174.821 304.5 174.007 304.257C173.193 304.013 172.334 303.949 171.492 304.071C171.42 304.09 171.345 304.095 171.271 304.086C171.197 304.077 171.125 304.053 171.06 304.017C170.996 303.981 170.939 303.932 170.893 303.874C170.847 303.817 170.814 303.751 170.794 303.68C170.775 303.61 170.77 303.536 170.779 303.464C170.789 303.392 170.813 303.322 170.85 303.259C170.887 303.195 170.936 303.14 170.995 303.095C171.055 303.05 171.122 303.018 171.194 302.999C172.21 302.823 173.254 302.877 174.246 303.155C175.238 303.434 176.152 303.931 176.917 304.607C177.033 304.7 177.108 304.834 177.126 304.979C177.143 305.125 177.102 305.272 177.011 305.389C176.955 305.456 176.882 305.509 176.801 305.543C176.719 305.578 176.63 305.593 176.541 305.588Z" fill="#263238"/>
<path d="M144.256 314.305C144.256 314.305 151.39 304.132 151.155 295.798C151.155 295.798 178.454 287.403 177.529 313.692C177.529 313.692 182.076 290.712 159.23 288.276C136.385 285.84 133.735 318.656 144.726 329.38C144.726 329.38 139.881 320.678 144.256 314.305Z" fill="#263238"/>
<path d="M146.247 317.231C146.247 315.714 145.632 314.259 144.535 313.185C143.439 312.111 141.951 311.506 140.399 311.501C136.228 311.609 133.562 319.728 143.66 322.563C145.103 322.961 146.059 321.628 146.247 317.231Z" fill="#EBBC9B"/>
<path d="M168.92 324.784C167.944 326.065 167.068 327.417 166.302 328.828C166.035 328.736 165.753 328.66 165.486 328.553C161.802 327.281 160.516 325.489 160.218 323.957C160.077 323.178 160.137 322.378 160.39 321.628C160.521 321.196 160.711 320.784 160.955 320.402C162.871 322.181 165.161 323.53 167.666 324.355C168.418 324.631 168.92 324.784 168.92 324.784Z" fill="#263238"/>
<path d="M167.666 324.324L166.867 325.504C163.386 324.293 161.112 322.991 160.391 321.597C160.521 321.166 160.711 320.753 160.955 320.372C162.871 322.151 165.162 323.5 167.666 324.324Z" fill="white"/>
<path d="M165.487 328.552C161.802 327.281 160.516 325.489 160.218 323.957C161.612 324.458 162.903 325.2 164.028 326.147C164.758 326.782 165.268 327.622 165.487 328.552Z" fill="#DE5753"/>
<path d="M160.375 294.527C160.375 294.527 153.178 315.5 139.411 314.06C125.644 312.62 149.242 287.28 149.242 287.28C149.242 287.28 172.464 280.8 182.578 293.408C192.691 306.017 177.576 313.661 177.576 313.661C177.576 313.661 179.834 297.208 160.375 294.527Z" fill="#263238"/>
<path d="M149.399 312.374C149.319 312.371 149.242 312.346 149.176 312.303C149.11 312.26 149.057 312.2 149.023 312.129C148.987 312.032 148.991 311.924 149.035 311.83C149.079 311.736 149.159 311.662 149.258 311.624C160.234 307.533 159.983 293.148 159.983 292.995C159.978 292.945 159.985 292.894 160.002 292.847C160.019 292.799 160.046 292.756 160.082 292.72C160.118 292.683 160.161 292.655 160.209 292.636C160.256 292.618 160.308 292.609 160.359 292.612C160.461 292.615 160.558 292.654 160.633 292.721C160.708 292.789 160.756 292.88 160.767 292.979C160.767 293.133 161.018 308.054 149.54 312.344L149.399 312.374Z" fill="#263238"/>
<path d="M173.531 313.156L176.416 312.252C176.416 312.252 174.863 314.473 173.531 313.156Z" fill="#263238"/>
<path d="M174.534 312.834C173.996 312.575 173.38 312.517 172.802 312.672C172.224 312.828 171.724 313.185 171.398 313.677C171.883 313.441 172.414 313.311 172.956 313.295C173.497 313.279 174.035 313.378 174.534 313.585V312.834Z" fill="#263238"/>
<path d="M153.193 347.963L164.844 353.754L164.656 365.29L148.003 355.807L153.193 347.963Z" fill="#4A607A"/>
<path d="M166.616 345.788L167.306 352.789L174.91 360.648L173.876 347.718L166.616 345.788Z" fill="#4A607A"/>
<path d="M112.786 266.568L107.925 254.312C108.014 253.657 107.945 252.99 107.725 252.365C107.504 251.74 107.138 251.174 106.655 250.712C103.268 248.245 96.275 246.008 94.5188 246.269C91.963 246.636 86.6788 251.156 87.1335 254.113C87.5883 257.069 102.516 258.892 102.516 258.892L107.47 272.328L112.786 266.568Z" fill="#EBBC9B"/>
<path d="M133.719 375.815C133.719 375.815 143.127 368.507 139.379 352.36L129.266 307.687L111.892 261.543L103.394 265.741C103.394 265.741 117.663 310.827 118.98 313.876C119.654 315.408 122.335 338.802 125.989 354.474C129.344 368.906 133.719 375.815 133.719 375.815Z" fill="#A89060"/>
<path d="M101.904 264.423L111.829 259.566L113.993 262.799L102.39 267.824L101.904 264.423Z" fill="#4A607A"/>
<path opacity="0.7" d="M101.904 264.423L111.829 259.566L113.993 262.799L102.39 267.824L101.904 264.423Z" fill="white"/>
<path opacity="0.6" d="M153.193 347.963L164.844 353.754L164.656 365.29L148.003 355.807L153.193 347.963Z" fill="#A89060"/>
<path opacity="0.6" d="M166.616 345.788L167.306 352.789L174.91 360.648L173.876 347.718L166.616 345.788Z" fill="#A89060"/>
<path d="M497.464 323.88H450.486V359.545H497.464V323.88Z" fill="white"/>
<path opacity="0.1" d="M497.464 323.88H485.421V359.545H497.464V323.88Z" fill="black"/>
<path d="M447.789 391.043H500.898V326.316H483.791L447.789 343.153V391.043Z" fill="#4A607A"/>
<path d="M500.898 326.316H483.791V391.043H500.898V326.316Z" fill="#939CA6"/>
<path opacity="0.7" d="M478.13 355.915H453.262V367.558H478.13V355.915Z" fill="white"/>
<path opacity="0.7" d="M478.13 371.449H453.262V373.119H478.13V371.449Z" fill="white"/>
<path opacity="0.7" d="M499.235 376.336H485.421V386.217H499.235V376.336Z" fill="white"/>
<path d="M477.503 321.935H430.526V359.545H477.503V321.935Z" fill="white"/>
<path opacity="0.1" d="M477.503 321.935H465.461V359.545H477.503V321.935Z" fill="black"/>
<path d="M427.829 391.043H480.937V326.316H463.83L427.829 343.153V391.043Z" fill="#4A607A"/>
<path d="M480.937 326.316H463.83V391.043H480.937V326.316Z" fill="#939CA6"/>
<path opacity="0.7" d="M458.17 355.915H433.301V367.558H458.17V355.915Z" fill="white"/>
<path opacity="0.7" d="M458.17 371.449H433.301V373.119H458.17V371.449Z" fill="white"/>
<path opacity="0.7" d="M479.275 376.336H465.461V386.217H479.275V376.336Z" fill="white"/>
<path d="M394.838 636.791H404.45L421.698 402.012H408.95L394.838 636.791Z" fill="#263238"/>
<path opacity="0.1" d="M394.838 636.791H404.45L420.851 413.671L421.698 402.395H408.95L408.276 413.671L394.838 636.791Z" fill="white"/>
<path opacity="0.2" d="M408.276 413.119H420.851L421.698 402.395H408.95L408.276 413.119Z" fill="black"/>
<path d="M324.341 636.791H333.953L335.521 402.012H322.773L324.341 636.791Z" fill="#263238"/>
<path opacity="0.1" d="M322.757 402.395L323.024 440.266L324.325 636.791H333.937L335.254 440.266L335.505 402.395H322.757Z" fill="white"/>
<path opacity="0.2" d="M322.757 402.395L323.024 440.695H335.254L335.505 402.395H322.757Z" fill="black"/>
<path d="M222.358 636.791H231.97L249.218 402.012H236.47L222.358 636.791Z" fill="#263238"/>
<path opacity="0.1" d="M222.358 636.791H231.97L248.387 413.671L249.218 402.395H236.47L235.796 413.671L222.358 636.791Z" fill="white"/>
<path opacity="0.2" d="M235.796 413.119H248.387L249.218 402.395H236.47L235.796 413.119Z" fill="black"/>
<path d="M504.723 636.791H514.335L500.208 402.012H487.46L504.723 636.791Z" fill="#263238"/>
<path opacity="0.1" d="M487.46 402.395L488.322 413.671L504.723 636.791H514.32L500.897 413.671L500.208 402.395H487.46Z" fill="white"/>
<path opacity="0.2" d="M500.208 402.395H487.46L488.322 413.119H500.898L500.208 402.395Z" fill="black"/>
<path d="M506.934 407.895L229.775 407.895C229.33 407.895 228.889 407.809 228.478 407.643C228.068 407.477 227.694 407.233 227.38 406.926C227.065 406.619 226.816 406.254 226.645 405.852C226.475 405.451 226.388 405.02 226.388 404.586V396.145L510.321 396.145V404.586C510.321 405.02 510.233 405.451 510.063 405.852C509.893 406.254 509.644 406.619 509.329 406.926C509.015 407.233 508.641 407.477 508.23 407.643C507.819 407.809 507.379 407.895 506.934 407.895Z" fill="#0D1C41"/>
<path opacity="0.4" d="M506.934 407.895L229.775 407.895C229.33 407.895 228.889 407.809 228.478 407.643C228.068 407.477 227.694 407.233 227.38 406.926C227.065 406.619 226.816 406.254 226.645 405.852C226.475 405.451 226.388 405.02 226.388 404.586V396.145L510.321 396.145V404.586C510.321 405.02 510.233 405.451 510.063 405.852C509.893 406.254 509.644 406.619 509.329 406.926C509.015 407.233 508.641 407.477 508.23 407.643C507.819 407.809 507.379 407.895 506.934 407.895Z" fill="white"/>
<path opacity="0.2" d="M226.388 402.012L510.321 402.012V396.129L226.388 396.129V402.012Z" fill="black"/>
<path d="M220.429 397.661H516.264C516.709 397.663 517.151 397.579 517.563 397.413C517.974 397.248 518.349 397.004 518.664 396.697C518.978 396.389 519.228 396.023 519.397 395.621C519.567 395.218 519.653 394.787 519.651 394.352C519.651 393.474 519.294 392.633 518.659 392.012C518.024 391.392 517.162 391.043 516.264 391.043H220.429C219.53 391.043 218.667 391.391 218.029 392.011C217.391 392.631 217.031 393.473 217.027 394.352C217.027 394.788 217.115 395.22 217.286 395.622C217.457 396.024 217.708 396.39 218.024 396.697C218.341 397.005 218.716 397.248 219.128 397.414C219.541 397.579 219.983 397.663 220.429 397.661Z" fill="#0D1C41"/>
<path opacity="0.4" d="M220.429 397.661H516.264C516.709 397.663 517.151 397.579 517.563 397.413C517.974 397.248 518.349 397.004 518.664 396.697C518.978 396.389 519.228 396.023 519.397 395.621C519.567 395.218 519.653 394.787 519.651 394.352C519.651 393.474 519.294 392.633 518.659 392.012C518.024 391.392 517.162 391.043 516.264 391.043H220.429C219.53 391.043 218.667 391.391 218.029 392.011C217.391 392.631 217.031 393.473 217.027 394.352C217.027 394.788 217.115 395.22 217.286 395.622C217.457 396.024 217.708 396.39 218.024 396.697C218.341 397.005 218.716 397.248 219.128 397.414C219.541 397.579 219.983 397.663 220.429 397.661Z" fill="white"/>
<path d="M452.697 391.012V385.834H456.257L452.697 383.812H455.363L451.803 381.545H448.432V378.94H452.352L448.432 377.423V371.77H452.352V368.078H456.257L452.352 366.791V364.156H455.143L452.854 361.935L450.878 359.989H390.291V362.64H386.292L390.745 364.601V366.791H382.576V370.866H378.954L382.576 372.644V377.194H385.148V379.369H390.291V385.834H387.406L389.773 388.147V391.043L452.697 391.012Z" fill="white"/>
<path opacity="0.7" d="M452.697 391.012V385.834H456.257L452.697 383.812H455.363L451.803 381.545H448.432V378.94H452.352L448.432 377.423V371.77H452.352V368.078H456.257L452.352 366.791V364.156H455.143L452.854 361.935L450.878 359.989H390.291V362.64H386.292L390.745 364.601V366.791H382.576V370.866H378.954L382.576 372.644V377.194H385.148V379.369H390.291V385.834H387.406L389.773 388.147V391.043L452.697 391.012Z" fill="white"/>
<path opacity="0.1" d="M452.697 391.012V385.834H456.257L452.697 383.812H455.363L451.803 381.545H448.432V378.94H452.352L448.432 377.423V371.77H452.352V368.078H456.257L452.352 366.791V364.156H455.143L452.854 361.935L450.878 359.989H418.97V362.64H414.971L419.409 364.601V366.791H411.239V370.866H407.617L411.239 372.644V377.194H413.811V379.369H418.97V385.834H416.084L418.436 388.147V391.043L452.697 391.012Z" fill="black"/>
<path opacity="0.1" d="M390.746 366.791H419.409L390.746 365.78V366.791Z" fill="black"/>
<path opacity="0.1" d="M390.291 379.369H418.97L419.095 381.33L390.291 379.369Z" fill="black"/>
<path opacity="0.1" d="M385.148 377.194H413.811L385.148 378.174V377.194Z" fill="black"/>
<path opacity="0.1" d="M390.291 385.834H418.97L390.291 384.808V385.834Z" fill="black"/>
<path opacity="0.1" d="M389.773 388.147H418.436V389.22L389.773 388.147Z" fill="black"/>
<path opacity="0.1" d="M382.576 370.867H411.239L382.576 369.978V370.867Z" fill="black"/>
<path opacity="0.1" d="M390.291 362.64H418.97L390.291 361.659V362.64Z" fill="black"/>
<path opacity="0.1" d="M452.352 364.156H423.266L452.352 365.03V364.156Z" fill="black"/>
<path opacity="0.1" d="M419.409 366.792H452.352L422.482 367.741L419.409 366.792Z" fill="black"/>
<path opacity="0.1" d="M411.24 370.867L452.352 371.771V370.867H411.24Z" fill="black"/>
<path opacity="0.1" d="M411.24 372.644H431.577L411.24 373.609V372.644Z" fill="black"/>
<path opacity="0.1" d="M448.432 377.424L418.969 377.194L448.432 376.55V377.424Z" fill="black"/>
<path opacity="0.1" d="M448.432 378.94H418.437L448.432 379.921V378.94Z" fill="black"/>
<path opacity="0.1" d="M452.697 383.812H419.409V384.808L452.697 383.812Z" fill="black"/>
<path opacity="0.1" d="M452.697 385.834H428.581L452.697 386.493V385.834Z" fill="black"/>
<path d="M375.552 384.333V389.251C375.552 390.507 373.984 391.028 372.745 391.028H272.205C270.919 391.028 269.367 390.507 269.367 389.251V384.333H375.552Z" fill="#263238"/>
<path opacity="0.4" d="M375.552 384.333V389.251C375.552 390.507 373.984 391.028 372.745 391.028H272.205C270.919 391.028 269.367 390.507 269.367 389.251V384.333H375.552Z" fill="white"/>
<path opacity="0.2" d="M375.552 384.333V389.251C375.552 390.507 373.984 391.028 372.745 391.028H306.434C305.148 391.028 303.612 390.507 303.612 389.251V384.333H375.552Z" fill="black"/>
<path d="M392.376 333.287L380.397 386.34C380.191 387.201 379.696 387.97 378.992 388.525C378.287 389.081 377.413 389.39 376.508 389.404H311.138C310.732 389.395 310.332 389.295 309.972 389.11C309.612 388.925 309.3 388.662 309.062 388.34C308.823 388.018 308.664 387.646 308.598 387.254C308.531 386.862 308.558 386.46 308.676 386.08L320.625 333.44C320.87 332.637 321.39 331.94 322.097 331.466C322.805 330.992 323.658 330.769 324.513 330.836H389.899C391.655 330.774 392.753 331.556 392.376 333.287Z" fill="#263238"/>
<path opacity="0.4" d="M392.376 333.286L380.397 386.34C380.191 387.201 379.696 387.97 378.992 388.525C378.287 389.08 377.413 389.389 376.508 389.404H313.349C312.942 389.395 312.543 389.294 312.183 389.11C311.823 388.925 311.511 388.661 311.273 388.339C311.034 388.017 310.875 387.645 310.809 387.253C310.742 386.861 310.769 386.459 310.887 386.079L322.851 333.44C323.094 332.635 323.613 331.936 324.321 331.462C325.03 330.987 325.884 330.766 326.74 330.835H389.899C391.655 330.774 392.753 331.555 392.376 333.286Z" fill="white"/>
<path opacity="0.2" d="M360.138 360.25C360.138 364.846 355.152 368.476 351.499 368.476C347.845 368.476 345.681 364.784 346.795 360.25C347.908 355.715 351.499 352.176 355.042 352.038C354.007 356.634 356.234 360.25 359.872 360.25H360.138Z" fill="black"/>
</g>
<defs>
<filter id="filter0_dd_77:91" x="-7" y="-7" width="798" height="780" filterUnits="userSpaceOnUse" color-interpolation-filters="sRGB">
<feFlood flood-opacity="0" result="BackgroundImageFix"/>
<feColorMatrix in="SourceAlpha" type="matrix" values="0 0 0 0 0 0 0 0 0 0 0 0 0 0 0 0 0 0 127 0" result="hardAlpha"/>
<feOffset dx="-2" dy="-2"/>
<feGaussianBlur stdDeviation="2.5"/>
<feColorMatrix type="matrix" values="0 0 0 0 0.0791667 0 0 0 0 0.114 0 0 0 0 0.2375 0 0 0 0.15 0"/>
<feBlend mode="normal" in2="BackgroundImageFix" result="effect1_dropShadow_77:91"/>
<feColorMatrix in="SourceAlpha" type="matrix" values="0 0 0 0 0 0 0 0 0 0 0 0 0 0 0 0 0 0 127 0" result="hardAlpha"/>
<feOffset dx="2" dy="2"/>
<feGaussianBlur stdDeviation="2.5"/>
<feColorMatrix type="matrix" values="0 0 0 0 0.0784314 0 0 0 0 0.113725 0 0 0 0 0.239216 0 0 0 0.15 0"/>
<feBlend mode="normal" in2="effect1_dropShadow_77:91" result="effect2_dropShadow_77:91"/>
<feBlend mode="normal" in="SourceGraphic" in2="effect2_dropShadow_77:91" result="shape"/>
</filter>
</defs>
</svg>
