<svg width="1920" height="815" viewBox="0 0 1920 815" fill="none" xmlns="http://www.w3.org/2000/svg">
<path d="M1474.14 804.256C1144.13 818.642 988.125 814.962 933.375 813.395C879.015 811.88 829.694 809.314 731.063 804.256C440.117 789.34 341.956 776.741 184.585 787.841C122.5 792.213 60.8466 799.58 0 809.897C0.39326 548.162 0.77985 286.436 1.15978 24.7213C43.5518 18.8382 106.44 11.1681 183.036 5.86799C395.266 -8.88149 509.075 8.41963 739.601 22.9344C817.887 27.8711 1203.14 50.9493 1483.46 31.6569C1505.39 30.1426 1604.13 21.4352 1741.99 11.7284C1819.64 6.25415 1882.38 2.30177 1919.98 0V778.459C1742.48 791.24 1591.1 799.153 1474.14 804.256Z" fill="#1C102E"/>
</svg>
