<svg width="1920" height="1071" viewBox="0 0 1920 1071" fill="none" xmlns="http://www.w3.org/2000/svg">
<path d="M1474.14 1056.28C1144.13 1075.18 988.125 1070.34 933.375 1068.28C879.015 1066.29 829.694 1062.92 731.063 1056.28C440.117 1036.69 341.956 1020.14 184.585 1034.72C122.5 1040.46 60.8466 1050.14 0 1063.69C0.39326 719.936 0.77985 376.195 1.15978 32.4681C43.5518 24.7414 106.44 14.6678 183.036 7.70681C395.266 -11.6646 509.075 11.058 739.601 30.1212C817.887 36.6049 1203.14 66.915 1483.46 41.577C1505.39 39.5882 1604.13 28.1522 1741.99 15.4037C1819.64 8.21397 1882.38 3.02306 1919.98 0V1022.4C1742.48 1039.19 1591.1 1049.58 1474.14 1056.28Z" fill="#1C102E"/>
</svg>
