<svg xmlns="http://www.w3.org/2000/svg" viewBox="0 0 1028.19 634.44">
  <defs>
    <style>
      .cls-1 {
        fill: #2c0a5b;
      }

      .cls-2 {
        fill: #1f0744;
      }

      .cls-3 {
        fill: #f99e19;
      }

      .cls-4 {
        fill: #111f49;
      }

      .cls-5 {
        fill: #7b0b2d;
      }

      .cls-6 {
        fill: #e59c45;
      }

      .cls-7 {
        fill: #11594f;
      }

      .cls-8 {
        fill: #8344cc;
      }

      .cls-9 {
        fill: #0b1633;
      }

      .cls-10 {
        fill: #dcdee2;
      }

      .cls-11 {
        fill: #0f2860;
      }

      .cls-12 {
        fill: #540a22;
      }

      .cls-13 {
        fill: #ffbe91;
      }

      .cls-14 {
        fill: #6125bf;
      }

      .cls-15 {
        fill: #c3b8d4;
      }

      .cls-16 {
        fill: #ece3fa;
      }

      .cls-17 {
        fill: #0a0319;
      }

      .cls-18 {
        fill: #f9b186;
      }

      .cls-19 {
        fill: #dd8d0e;
      }

      .cls-20, .cls-21, .cls-22 {
        fill: none;
        stroke-miterlimit: 10;
      }

      .cls-20 {
        stroke: #190909;
      }

      .cls-20, .cls-21 {
        stroke-width: 0.25px;
      }

      .cls-21, .cls-22 {
        stroke: #281e1e;
      }

      .cls-22 {
        stroke-width: 5px;
      }
    </style>
  </defs>
  <title>2Ресурс 3</title>
  <g id="Слой_2" data-name="Слой 2">
    <g id="Слой_2-2" data-name="Слой 2">
      <g>
        <g>
          <path class="cls-1" d="M227.73,217.37c-.16-.76-.6-2.81.49-3.72.9-.75,2.46-.42,3.47-.1q15.83,26.73,31.67,53.45,3-22.53,6.07-45.05a2.47,2.47,0,0,1,2.64-2.54,2.37,2.37,0,0,1,1.85,2.29q-2.78,27.23-5.54,54.46,9.86,14.86,19.73,29.72l-7.73.07C266.19,283.08,228.85,222.68,227.73,217.37Z" transform="translate(-0.25 -0.13)"/>
          <path class="cls-2" d="M323,306.86l-119,1v-.4a180.1,180.1,0,0,1-.77-36.9c.73-9,1.95-15.11,4.38-27.35,7-35.09,12-38.52,14.71-39.75s7.25-.77,16,.26,15.13,2.94,22.45,5.16a198,198,0,0,1,25.55,9.81c7.38,3.44,11.15,5.31,15,8a67.14,67.14,0,0,1,8.79,7.39,44.28,44.28,0,0,1-1.31,6.54,45.19,45.19,0,0,1-8.55,16.26h-3.45v7.36l33.09-.14a123.62,123.62,0,0,0-6.76,35.36C323,302,323,304.48,323,306.86Zm-94.77-93.21c-1.09.91-.65,3-.49,3.72,1.12,5.31,38.46,65.71,52.65,88.58l7.73-.07q-9.87-14.86-19.73-29.72,2.76-27.23,5.54-54.46a2.37,2.37,0,0,0-1.85-2.29,2.47,2.47,0,0,0-2.64,2.54q-3,22.53-6.07,45.05-15.84-26.73-31.67-53.45C230.68,213.23,229.12,212.9,228.22,213.65Z" transform="translate(-0.25 -0.13)"/>
          <path class="cls-3" d="M323.15,311.42c0,.12,0,.23,0,.34.05.91.11,1.8.18,2.69,0,.19,0,.38,0,.57,0,.51.09,1,.14,1.51.11,1.21.24,2.4.39,3.55.08.67.17,1.33.26,2,.11.81.24,1.61.36,2.39.09.57.19,1.13.29,1.68,0,.21.07.42.11.62l.24,1.31q.3,1.56.63,3.06c.07.34.15.69.23,1,.24,1.06.48,2.08.73,3.07l-261.64-.63q-.27,14.34-.53,28.68l-12.33-.06q.24-47.61.47-95.2l107.1-.26,25.81,40.78,2.06,3.09,135.41-.57C323.14,311.18,323.14,311.3,323.15,311.42Z" transform="translate(-0.25 -0.13)"/>
          <path class="cls-4" d="M384.43,272.78c-.36,4.72,1,6.53,0,11A23.17,23.17,0,0,1,382.5,289c-1.85,3.63-3.54,4.62-3.29,6.39.32,2.35,3.73,3.67,4.25,3.87,5.9,2.19,14.19-1.78,17.62-7.55.95-1.61.43-1.5,2.51-6,2.39-5.14,3.51-6.22,3.29-8.32-.15-1.51-.9-2.61-4.25-6-2-2.05-4.73-4.66-8.08-7.58l93.33-.4a76.43,76.43,0,0,0,0,78.15l-159.38-.3q-.64-2.07-1.29-4.47c-.14-.52-.28-1.06-.43-1.61h0c-.25-1-.5-2-.74-3.07-.08-.34-.16-.69-.23-1q-.33-1.5-.63-3.06l-.24-1.31c0-.2-.08-.41-.11-.62-.1-.55-.2-1.11-.29-1.68-.12-.78-.25-1.58-.36-2.39-.09-.65-.18-1.31-.26-2-.15-1.15-.28-2.34-.39-3.55-.05-.51-.1-1-.14-1.51,0-.19,0-.38,0-.57-.07-.91-.13-1.81-.18-2.69,0-.11,0-.22,0-.34,0-.35,0-.69,0-1,0-.16,0-.33,0-.5q-.06-1.54-.09-3c0-2.38,0-4.84.09-7.37a123.62,123.62,0,0,1,6.76-35.36l38.28-.17c-.56,2.22-.91,3.5-.91,3.5a1.8,1.8,0,0,0-.1,1.16,14.92,14.92,0,0,0-6.29,4.55c-2.63,3.36-1.66,5.41-4.26,8.71-.7.89-3.11,2.46-7.93,5.61-4.05,2.65-5.24,3.28-6,5-.88,2-.95,4.9.58,6.38,1.23,1.2,3,1,5.8.78,10.65-.71,10.61.94,14.91-.58a17.53,17.53,0,0,0,8.13-5.42c2.05-2.6,1.24-3.42,3.48-6.78,3.08-4.61,5.66-4.69,6.77-7.93.56-1.61.8-4.17-1.06-8l-.12-.34,1-.34a16.78,16.78,0,0,0,1.55-.68c1.35-.7,1.87-3.16,2-5.7l3.71,0-.57.21a13,13,0,0,0-2.51,1.29h0A23.35,23.35,0,0,0,384.43,272.78Z" transform="translate(-0.25 -0.13)"/>
          <path class="cls-1" d="M788.08,335.49h-2v-.08a72.86,72.86,0,0,1-3.5-63.38h3.11l-.78-9.29-37.54-.39a126.89,126.89,0,0,0,4.13-20.25q26.76-15.24,53.54-30.46a3.41,3.41,0,0,0-2.71-5L752.12,235c.17-2.65.26-5.39.25-8.23a126,126,0,0,0-3-26.95q10.38-45,20.77-90a3.38,3.38,0,0,0-3.09-1.94,3.49,3.49,0,0,0-2.71,1.55q-4.8,22.57-9.61,45.15l-19.81-27-3.1,3.1,20.9,29.42L744.2,193H682.83l-3.36-15.44c1.44-2.74,3-5.6,4.77-8.56a188,188,0,0,1,21.68-29.8c9-10,16.45-15.78,30.58-26.71a172.57,172.57,0,0,1,14.71-9.29c13.44-7.66,16.95-7.49,18.19-7.36,7,.74,12.16,7.68,15.87,14.32,29.52,52.81,33,112.76,33.29,131.5.06,3.81,0,5.92,0,5.92-.23,7.62-1.6,44.36-14.71,90.2-3.9,13.63-7.91,24.85-11,32.84A57.4,57.4,0,0,0,781,382.33a59.63,59.63,0,0,0-10.45,22.84c.07.19.14.38.22.58l-11.44-.19c.08-2.67.17-5.34.25-8a23.65,23.65,0,0,0-2.45-.26,24.62,24.62,0,0,0-2.58,0l-.11-.17a46,46,0,0,1-.53-47.51h5.8c0-2.48.07-5,.1-7.45v-.05l28.26.05Z" transform="translate(-0.25 -0.13)"/>
          <path class="cls-4" d="M453.14,40.91c3.22,7-.69,14.4-1,14.91-.67,1.24-3.88,7.13-9.87,8.13a13,13,0,0,1-6.83-.81,36.8,36.8,0,0,1-3.42-1.52A26,26,0,0,1,424.43,56c-.17-.17-.32-.34-.46-.5a18.52,18.52,0,0,1,.72-2.38,19,19,0,0,1,1.74-3.49,10.52,10.52,0,0,0,2.13-1.93c.94-1.3.74-2.91.58-4.26a7.53,7.53,0,0,0-1-3.53,18,18,0,0,0,.14-12,19.87,19.87,0,0,0-3.77-6c-1.84-2.15-3.26-3.82-5.71-4.84-1.7-.71-2.19-.52-3.58-1.45a9.69,9.69,0,0,1-3.39-4.07A8.83,8.83,0,0,1,411,7a9,9,0,0,1,2.9-5.71v0l1-.25c2.66-.65,5.95-1.47,9.1.2a10.72,10.72,0,0,1,4.64,5.61c2.84,6.67-1.34,10.36,1,15.48,1,2.21,2,2.1,10.26,7.55C447.72,35.14,451.71,37.83,453.14,40.91Z" transform="translate(-0.25 -0.13)"/>
          <path class="cls-5" d="M428.75,63.46c-2.25-1.71-3.09-1.76-3.87-3a6.12,6.12,0,0,1-.58-4.35l.13-.12a26,26,0,0,0,7.62,5.63,36.8,36.8,0,0,0,3.42,1.52l-.19.48h0a81.76,81.76,0,0,1,8.86,3.9,47.67,47.67,0,0,1,8.42,5c3.51,2.86,5.22,6.26,8.23,14.13,7.57,19.78,4.73,19,9.29,28.26,0,0,3.46,7,3.77,13.35a22.43,22.43,0,0,1-.68,6.39,9.34,9.34,0,0,1-1.25,3.29c-1.83,2.46-5.31,4.82-7.55,3.87-2.78-1.18-.57-6.06-3.59-8.8-4-3.61-14.34-1.1-21,3.32-2.31,1.52-3.78,3-4.59,2.48-1.78-1.16,1.78-10.8,2.61-16.94a22,22,0,0,0,.23-2.66c0-2-.31-3.48-.4-11.12,0-1.23,0-2.63,0-4.22,0-12.47,1.1-14.27.19-20.42a45.89,45.89,0,0,0-5.41-15.87C432.07,66,430.56,64.84,428.75,63.46Z" transform="translate(-0.25 -0.13)"/>
          <path class="cls-6" d="M52.75,268q-.22,47.6-.47,95.2h-2.7q0-50,.08-100.08l111.48-.26L190.05,308l13.93-.12,119-1q0,1.54.09,3c0,.17,0,.34,0,.5l0,.66-135.41.57-2.06-3.09-25.81-40.78Z" transform="translate(-0.25 -0.13)"/>
          <path class="cls-7" d="M1027.21,566.59s.86,3.72-2.38,8.53c-10.19,15.11-120.75,15.19-255.9,13.53-.57-2.63-1.14-5.27-1.72-7.9q-1.19-5.49-2.39-11l56.42,0,41.28,0h7.68l74.55,0a75.7,75.7,0,0,0,1.3-24.07c8.31,1.06,15.91,2.14,22.66,3.19,5.71.87,10.82,1.72,15.25,2.49C1016.7,557,1025.8,560.58,1027.21,566.59Z" transform="translate(-0.25 -0.13)"/>
          <path class="cls-8" d="M1024.88,417.17c5.37,7.14,3.5,17,.78,31.36a109.82,109.82,0,0,1-3.44,13.52,239.7,239.7,0,0,1-23.14,49.41,213.71,213.71,0,0,1-30.37,37.34h0c-6.75-1-14.35-2.13-22.66-3.19-.13-1.24-.31-2.51-.52-3.8-2.56-15.48-8.41-19.4-11.61-36.78-1.66-9-3.57-19.32.38-30.58,3.47-9.87,8.33-11.64,23.23-27.48,15.61-16.59,24.25-25.79,27.93-36.94a41.19,41.19,0,0,1,21.3-1.78C1012.1,409.26,1020.12,410.82,1024.88,417.17Z" transform="translate(-0.25 -0.13)"/>
          <path class="cls-2" d="M946.05,545.62a75.7,75.7,0,0,1-1.3,24.07l-74.55,0c-2.28-14.7-4.42-26.44-6-34.48-1.78-9.3-3-15.08-3.49-24-.36-7.23-.69-13.87,1-21.91.55-2.59,3.22-14.22,13.32-27.18s18.68-15.65,29-23.92c26.49-21.17,33.45-54.2,34.07-57.36,4.64-23.59-5.38-27.92.12-62.11,2.74-17.11,6.78-25.57,10.31-31.27,8.6-13.91,20.57-21.78,19.74-22.84-.64-.81-8.39,3-15.1,8.91-8.3,7.29-16.82,19.33-21.39,44.22-5.83,31.74,4,33.87-1.18,58.75-1.19,5.68-7.22,34.47-30.26,55.25-12.12,10.93-19.73,11.34-30.39,25.26a82.87,82.87,0,0,0-14.71,31c-4.12,17.18-.66,34.26,1.54,46.45.52,2.85,1.65,8.69,3.1,17.81,1.19,7.43,2,13.51,2.54,17.45l-41.28,0,0-7h-4.83a94,94,0,0,1-3.47-9.6c-.81-2.71-1.57-5.68-2.2-8.88a95,95,0,0,1-1.5-11.32,89.63,89.63,0,0,1-.15-9.91,94.08,94.08,0,0,1,6.12-29.95h2.16l-.39-6.19-27.69-.37a134.83,134.83,0,0,0,.53-80.4l-19.07-.33c-.08-.2-.15-.39-.22-.58A59.63,59.63,0,0,1,781,382.33a57.4,57.4,0,0,1,11.85-11.67c8-5.91,16.17-8.9,21.44-10.78,15.48-5.5,17.33-1.29,35.23-7,8.22-2.61,20.05-6.48,31.74-16.26A76.62,76.62,0,0,0,892.52,325a118,118,0,0,0,9.27-14.26c8.28-14.41,5.74-17,13.93-30.58,5.71-9.48,11.3-18.51,22.45-24.78a48.57,48.57,0,0,1,25.17-6.19c4.52.2,13.89.73,22.45,7.36,2.85,2.21,8.71,6.74,10.45,14.32.54,2.37,1.26,7.53-5,20.9-6.88,14.62-10.65,14.64-15.1,25.16-1.65,3.9-6.07,15.57-4.26,29,1.62,12.05,7.42,13.46,12,27.09,1.14,3.39,6,17.74,2.75,32.82a36.25,36.25,0,0,1-1.14,4.18c-3.68,11.15-12.32,20.35-27.93,36.94-14.9,15.84-19.76,17.61-23.23,27.48-3.95,11.26-2,21.59-.38,30.58,3.2,17.38,9.05,21.3,11.61,36.78C945.74,543.11,945.92,544.38,946.05,545.62Z" transform="translate(-0.25 -0.13)"/>
          <path class="cls-1" d="M968.37,264.65c.83,1.06-11.14,8.93-19.74,22.84-3.53,5.7-7.57,14.16-10.31,31.27-5.5,34.19,4.52,38.52-.12,62.11-.62,3.16-7.58,36.19-34.07,57.36-10.35,8.27-18.86,10.87-29,23.92s-12.77,24.59-13.32,27.18c-1.72,8-1.39,14.68-1,21.91.45,8.92,1.71,14.7,3.49,24,1.54,8,3.68,19.78,6,34.48h-7.68c-.52-3.94-1.35-10-2.54-17.45-1.45-9.12-2.58-15-3.1-17.81-2.2-12.19-5.66-29.27-1.54-46.45a82.87,82.87,0,0,1,14.71-31c10.66-13.92,18.27-14.33,30.39-25.26,23-20.78,29.07-49.57,30.26-55.25,5.21-24.88-4.65-27,1.18-58.75,4.57-24.89,13.09-36.93,21.39-44.22C960,267.67,967.73,263.84,968.37,264.65Z" transform="translate(-0.25 -0.13)"/>
          <path class="cls-8" d="M891.34,284.78c.1,16.76.67,30.63,1.18,40.2a76.62,76.62,0,0,1-11.25,11.67c-11.69,9.78-23.52,13.65-31.74,16.26-17.9,5.68-19.75,1.47-35.23,7-5.27,1.88-13.42,4.87-21.44,10.78,3.08-8,7.09-19.21,11-32.84,13.11-45.84,14.48-82.58,14.71-90.2,0,0,.06-2.11,0-5.92h0c21.42-15,55.33-35.61,68.51-25C894.93,223,891,236.82,891.34,284.78Z" transform="translate(-0.25 -0.13)"/>
          <path class="cls-9" d="M821.27,562.72l0,7-56.42,0-1.56-7.18,53.18.12Z" transform="translate(-0.25 -0.13)"/>
          <path class="cls-9" d="M817,486.85l.39,6.19h-2.16l-67,.37c-.5-2.31-1-4.62-1.51-6.93l28.4,0h14.22Z" transform="translate(-0.25 -0.13)"/>
          <path class="cls-10" d="M748.21,493.42l67-.37A94.08,94.08,0,0,0,809.12,523h0c-8.25-.92-29.17-3.2-55.62-5.3Z" transform="translate(-0.25 -0.13)"/>
          <path class="cls-2" d="M804.68,207.86a3.58,3.58,0,0,1,.33,3.76q-26.78,15.23-53.54,30.46c.27-2.29.49-4.66.65-7.13l50.18-28.36A3.57,3.57,0,0,1,804.68,207.86Z" transform="translate(-0.25 -0.13)"/>
          <path class="cls-5" d="M789.85,406.08a134.83,134.83,0,0,1-.53,80.4h-.24l-1.49,0H770.36v0a115.15,115.15,0,0,0,.42-80.67Z" transform="translate(-0.25 -0.13)"/>
          <path class="cls-7" d="M728.47,615.36c16.48-.66,27.13-3,44,0l2.34.42c6.3,1.18,15.42,3.13,15.46,5.78.08,5.29-36.15,10.8-64.25,12.39-20.48,1.15-35.37.16-59.62-1.55-26.23-1.85-65.71-4.63-65.8-9.29-.09-4.34,34-8.18,37.16-8.52,17.39-1.91,31.16-1.52,55-.77,28.22.89,24.09,2,35.62,1.54Z" transform="translate(-0.25 -0.13)"/>
          <path class="cls-11" d="M788.08,335.49v6.68l-28.26-.05L715.26,342q-.75-3.48-1.52-7,36.15.15,72.31.41Z" transform="translate(-0.25 -0.13)"/>
          <path class="cls-10" d="M786.05,335.4v.08q-36.15-.25-72.31-.41-2.73-12.57-5.47-25.13-4.08-18.79-8.18-37.59l82.46-.33a72.86,72.86,0,0,0,3.5,63.38Z" transform="translate(-0.25 -0.13)"/>
          <path class="cls-11" d="M784.88,262.72l.78,9.29h-3.11l-82.46.33c-.44-2.06-.89-4.11-1.34-6.17-.26-1.21-.53-2.43-.79-3.64l49.38-.21Z" transform="translate(-0.25 -0.13)"/>
          <path class="cls-3" d="M770.78,405.75a115.15,115.15,0,0,1-.42,80.67v0l-23.67,0q-3.51-16.1-7-32.19c.45-2.08.81-4.24,1.07-6.5a70.14,70.14,0,0,0-8.55-42.19h27.14Z" transform="translate(-0.25 -0.13)"/>
          <path class="cls-2" d="M770.17,109.82q-10.38,45-20.77,90c-.54-2.43-1.11-4.68-1.68-6.73H744.2l8.55-32.9-20.9-29.42,3.1-3.1,19.81,27q4.8-22.58,9.61-45.15a3.49,3.49,0,0,1,2.71-1.55A3.38,3.38,0,0,1,770.17,109.82Z" transform="translate(-0.25 -0.13)"/>
          <path class="cls-7" d="M767.21,580.75c.58,2.63,1.15,5.27,1.72,7.9L722.62,588l-.48-2.25,1.58-.34,41.55-4.28Z" transform="translate(-0.25 -0.13)"/>
          <path class="cls-7" d="M764.82,569.77q1.2,5.49,2.39,11l-1.94.42-41.55,4.28-1.58.34q-1.71-8-3.43-16Z" transform="translate(-0.25 -0.13)"/>
          <path class="cls-9" d="M763.26,562.59l1.56,7.18-46.11,0-1.56-7.3Z" transform="translate(-0.25 -0.13)"/>
          <path class="cls-9" d="M759.82,342.12v.05c0,2.48-.07,5-.1,7.45h-5.8l-37,.12q-.82-3.86-1.67-7.71Z" transform="translate(-0.25 -0.13)"/>
          <path class="cls-9" d="M728.2,401.49c-.3-1.39-.6-2.77-.91-4.16l26.88,0,.28-.17.11.17a24.62,24.62,0,0,1,2.58,0,23.65,23.65,0,0,1,2.45.26c-.08,2.66-.17,5.33-.25,8H729.08C728.79,404.2,728.5,402.85,728.2,401.49Z" transform="translate(-0.25 -0.13)"/>
          <path class="cls-10" d="M754.45,397.13l-.28.17-26.88,0q-4.35-20.06-8.73-40.12-.81-3.73-1.63-7.47l37-.12a46,46,0,0,0,.53,47.51Z" transform="translate(-0.25 -0.13)"/>
          <path class="cls-10" d="M748.21,493.42l5.28,24.28c-14.29-1.13-30.19-2.21-46.58-3q-2.24-10.52-4.5-21Z" transform="translate(-0.25 -0.13)"/>
          <path class="cls-5" d="M752.37,226.72c0,2.84-.08,5.58-.25,8.23-.16,2.47-.38,4.84-.65,7.13a126.89,126.89,0,0,1-4.13,20.25l-49.38.21-9.24-42.43q-2.94-13.53-5.89-27.07h64.89c.57,2.05,1.14,4.3,1.68,6.73A126,126,0,0,1,752.37,226.72Z" transform="translate(-0.25 -0.13)"/>
          <path class="cls-9" d="M732.69,486.49h14c.5,2.31,1,4.62,1.51,6.93l-45.8.26-1.53-7.17Z" transform="translate(-0.25 -0.13)"/>
          <path class="cls-3" d="M733.58,486.43H723.32v-.12a70.08,70.08,0,0,0,16.36-32.05q3.51,16.1,7,32.19Z" transform="translate(-0.25 -0.13)"/>
          <path class="cls-5" d="M732.2,405.56a70.14,70.14,0,0,1,8.55,42.19c-.26,2.26-.62,4.42-1.07,6.5-.67-3.1-1.35-6.2-2-9.3q-4.29-19.69-8.58-39.39Z" transform="translate(-0.25 -0.13)"/>
          <path class="cls-5" d="M737.66,445c.67,3.1,1.35,6.2,2,9.3a70.08,70.08,0,0,1-16.36,32.05v.12l-22.47,0q-3.86-18.06-7.73-36.13l2.09-.45,41.42-4.65Z" transform="translate(-0.25 -0.13)"/>
          <path class="cls-5" d="M690.4,405.56h38.68q4.3,19.69,8.58,39.39l-1,.22-41.42,4.65-2.09.45q-4.79-22.35-9.58-44.71Z" transform="translate(-0.25 -0.13)"/>
          <path class="cls-9" d="M728.2,401.49c.3,1.36.59,2.71.88,4.07H690.4Z" transform="translate(-0.25 -0.13)"/>
          <path class="cls-9" d="M727.29,397.33c.31,1.39.61,2.77.91,4.16l-37.8,4.07h-6.86c-.58-2.73-1.17-5.45-1.75-8.18Z" transform="translate(-0.25 -0.13)"/>
          <path class="cls-10" d="M718.56,357.21q4.38,20.06,8.73,40.12l-45.5.05q-3.82-17.83-7.64-35.67l1.31-.28,42.07-4Z" transform="translate(-0.25 -0.13)"/>
          <path class="cls-7" d="M461.89,569.89l256.82-.1q1.72,8,3.43,16l.48,2.25C617,586.61,502.2,585,411,589c-35.62,1.57-71.33.94-106.91,3.3,0,0-213.63,14.16-266.25-14.91-3-1.67-11.09-6.13-10.84-11.61.32-7,13.87-11.44,17.78-12.63L49,570.07,213.79,570l119,0h9l29.67,0Z" transform="translate(-0.25 -0.13)"/>
          <path class="cls-9" d="M717.15,562.49l1.56,7.3-256.82.1a91.82,91.82,0,0,1-.66-83.23l239.65-.15,1.53,7.17L467.46,495a78.66,78.66,0,0,0-7.35,24,80.79,80.79,0,0,0,6.19,43l53.5.12Z" transform="translate(-0.25 -0.13)"/>
          <path class="cls-10" d="M716.93,349.74q.83,3.74,1.63,7.47l-1,.22-42.07,4-1.31.28q-1.26-5.91-2.54-11.83Z" transform="translate(-0.25 -0.13)"/>
          <path class="cls-9" d="M715.26,342q.84,3.86,1.67,7.71l-45.32.14c-.56-2.64-1.12-5.29-1.7-7.93Z" transform="translate(-0.25 -0.13)"/>
          <path class="cls-11" d="M713.74,335.07q.76,3.48,1.52,7L669.91,342c-.49-2.34-1-4.69-1.5-7Q691.08,335,713.74,335.07Z" transform="translate(-0.25 -0.13)"/>
          <path class="cls-10" d="M708.27,309.94q2.75,12.57,5.47,25.13-22.66-.1-45.33-.15-2.11-9.87-4.23-19.73l42.9-5Z" transform="translate(-0.25 -0.13)"/>
          <path class="cls-10" d="M700.09,272.35q4.1,18.79,8.18,37.59l-1.19.26-42.9,5q-4.56-21.33-9.13-42.66Z" transform="translate(-0.25 -0.13)"/>
          <path class="cls-10" d="M529.48,543.78a64.3,64.3,0,0,0-6.34,10.37,74.81,74.81,0,0,0-3.34,7.91h0L466.3,562a80.79,80.79,0,0,1-6.19-43,78.66,78.66,0,0,1,7.35-24l235-1.3q2.26,10.51,4.5,21c-19.5-.94-39.69-1.45-58.67-1.14-9.56.16-27,2.17-61.94,6.19-22.59,2.61-34.52,4.36-46.06,13.16A56.32,56.32,0,0,0,529.48,543.78Z" transform="translate(-0.25 -0.13)"/>
          <path class="cls-5" d="M693.12,450.27q3.87,18.06,7.73,36.13l-112.17-.09v-.9a97.5,97.5,0,0,0,7.69-31.08,99.18,99.18,0,0,0-8.89-48.77h96.06Q688.33,427.91,693.12,450.27Z" transform="translate(-0.25 -0.13)"/>
          <path class="cls-11" d="M698.75,266.18c.45,2.06.9,4.11,1.34,6.17l-45,.18c-.17-.81-.35-1.62-.52-2.43l.68-.15,42.84-3.62Z" transform="translate(-0.25 -0.13)"/>
          <path class="cls-11" d="M698,262.54c.26,1.21.53,2.43.79,3.64l-.7.15L655.21,270l-.68.15c-.53-2.45-1-4.91-1.58-7.36Z" transform="translate(-0.25 -0.13)"/>
          <path class="cls-5" d="M688.72,220.11,698,262.54l-45,.2q-4-18.78-8.05-37.57l.63-.13L688,220.27Z" transform="translate(-0.25 -0.13)"/>
          <path class="cls-5" d="M682.83,193q3,13.53,5.89,27.07l-.74.16L645.53,225l-.63.13Q641.47,209.11,638,193h44.81Z" transform="translate(-0.25 -0.13)"/>
          <path class="cls-9" d="M287,364.39a64.54,64.54,0,0,1,8.62-23.09H328.5l159.38.3,182,.35c.58,2.64,1.14,5.29,1.7,7.93L502,350.42l-204.61.65a80.05,80.05,0,0,0-.68,46.75l207-.24,178.07-.2c.58,2.73,1.17,5.45,1.75,8.18H294.05a64.69,64.69,0,0,1-7.75-34.84C286.44,368.52,286.69,366.4,287,364.39Z" transform="translate(-0.25 -0.13)"/>
          <path class="cls-1" d="M679.47,177.6,682.83,193H672.2C674,188.64,676.42,183.4,679.47,177.6Z" transform="translate(-0.25 -0.13)"/>
          <path class="cls-10" d="M674.15,361.71q3.83,17.84,7.64,35.67l-178.07.2a39.24,39.24,0,0,1-8.38-18.73c-2.24-14.65,4.85-25.71,6.7-28.43l169.57-.54Q672.89,355.79,674.15,361.71Z" transform="translate(-0.25 -0.13)"/>
          <path class="cls-11" d="M668.41,334.92c.51,2.34,1,4.69,1.5,7l-182-.35a76.43,76.43,0,0,1,0-78.15l88.32-.38,76.75-.33c.53,2.45,1,4.91,1.58,7.36.17.81.35,1.62.52,2.43l-161.65.64a58,58,0,0,0-6.58,14.71,60.38,60.38,0,0,0-.39,31,65.65,65.65,0,0,0,6.2,16.26q73.92-.35,147.87-.25Q654.45,334.88,668.41,334.92Z" transform="translate(-0.25 -0.13)"/>
          <path class="cls-10" d="M664.18,315.19q2.13,9.87,4.23,19.73-13.95,0-27.91-.06-73.95-.09-147.87.25a65.65,65.65,0,0,1-6.2-16.26,60.38,60.38,0,0,1,.39-31,58,58,0,0,1,6.58-14.71l161.65-.64Q659.63,293.86,664.18,315.19Z" transform="translate(-0.25 -0.13)"/>
          <path class="cls-5" d="M644.9,225.17q4,18.78,8.05,37.57l-76.75.33a65.53,65.53,0,0,0,9.72-28.22C588,214,579.14,198.3,575.84,193H638Q641.47,209.11,644.9,225.17Z" transform="translate(-0.25 -0.13)"/>
          <path class="cls-12" d="M461.46,486.2l-144.58-.13.39-6.19,4.3,0,243.35-1.78,16.35-.12c.87-2,1.84-4.54,2.77-7.49a80.49,80.49,0,0,0,2.27-8.91c.47-2.38.86-4.92,1.13-7.62.23-2.31.38-4.73.4-7.26,0-.54,0-1.08,0-1.63a82.25,82.25,0,0,0-6.19-30.58l-260.09-1.89-5.07,0q0-3.5,0-7h271a99.18,99.18,0,0,1,8.89,48.77,97.5,97.5,0,0,1-7.69,31.08v.9Z" transform="translate(-0.25 -0.13)"/>
          <path class="cls-10" d="M587.85,445c0,.55,0,1.09,0,1.63L520,446.45a202.5,202.5,0,0,0-32.42-13.8c-43.27-14.09-81.86-10.54-112.25-7.74a377.07,377.07,0,0,0-50.12,8h0c-.1-1.1-.21-2-.29-2.75a133.21,133.21,0,0,0-3.33-17.64l260.09,1.89A82.25,82.25,0,0,1,587.85,445Z" transform="translate(-0.25 -0.13)"/>
          <path class="cls-10" d="M520,446.45l67.83.22c0,2.53-.17,4.95-.4,7.26l-54.29.08C528.63,451.19,524.23,448.68,520,446.45Z" transform="translate(-0.25 -0.13)"/>
          <path class="cls-10" d="M533.15,454l54.29-.08c-.27,2.7-.66,5.24-1.13,7.62l-41.6.21C540.79,459,536.92,456.38,533.15,454Z" transform="translate(-0.25 -0.13)"/>
          <path class="cls-10" d="M544.71,461.76l41.6-.21a80.49,80.49,0,0,1-2.27,8.91l-28,0Q550.3,465.75,544.71,461.76Z" transform="translate(-0.25 -0.13)"/>
          <path class="cls-12" d="M394.55,263.85l-5.15,0a17.52,17.52,0,0,1,3.8-.76c2.68-.32,3.07.13,3.68-.26.77-.48.6-3,.15-5.94h173.4a37.78,37.78,0,0,0,5-8.51c3.57-8.35,3.13-15.74,2.71-21.68a69.27,69.27,0,0,0-7-25.55l-166.92-.24a5.47,5.47,0,0,0,0-.92c-.25-2.26-.39-5,1.36-6.58a3.21,3.21,0,0,1,.52-.39h7.21c3.53.92,16.76,4.38,28.43,0H575.84c3.3,5.26,12.15,20.91,10.08,41.81a65.53,65.53,0,0,1-9.72,28.22l-88.32.38Z" transform="translate(-0.25 -0.13)"/>
          <path class="cls-10" d="M556,470.43l28,0c-.93,3-1.9,5.46-2.77,7.49l-16.35.12Q560.45,474,556,470.43Z" transform="translate(-0.25 -0.13)"/>
          <path class="cls-10" d="M578.17,226.72c.42,5.94.86,13.33-2.71,21.68a37.78,37.78,0,0,1-5,8.51H555.8c-3.19-7.27-9.54-18.83-21.75-27.48s-24.31-10.3-31.36-11.23c-46.32-6.09-74.88-9.83-99.82-10.94a27.82,27.82,0,0,0,1.42-6.33l166.92.24A69.27,69.27,0,0,1,578.17,226.72Z" transform="translate(-0.25 -0.13)"/>
          <path class="cls-5" d="M462.53,155.88c1,2.47,1.93,3.73,1.84,6.19s-1.17,3-2.71,8.13a13.36,13.36,0,0,1-1.45,3.1,6.38,6.38,0,0,1-1.06,1.4,2.06,2.06,0,0,1-.4.25c-1.42.68-3.35-.57-4-1-3.46-2.26-5.76-8.68-8.11-14.33H447l-.56-.67c-2-4.77-4.08-8.83-7-9.1a3.52,3.52,0,0,0-.58,0l0-.09,22.24-6.9A27.46,27.46,0,0,0,462.53,155.88Z" transform="translate(-0.25 -0.13)"/>
          <path class="cls-13" d="M464.37,141.85l-3.34,1-22.24,6.9-21.45,6.57v.08l-2.23-.08c-.66-1.82-1.33-3.63-2-5.45l.15-.06,21.87-12c.81.52,2.28-1,4.59-2.48,6.71-4.42,17.07-6.93,21-3.32C463.8,135.79,461.59,140.67,464.37,141.85Z" transform="translate(-0.25 -0.13)"/>
          <path class="cls-4" d="M461.89,569.89l-90.43,0v-2.31A130.73,130.73,0,0,0,360.63,538c-11.49-22.48-28.3-38.9-46-51.2l146.57-.09a91.82,91.82,0,0,0,.66,83.23Z" transform="translate(-0.25 -0.13)"/>
          <path class="cls-14" d="M316.88,486.07l144.58.13-.23.46-146.57.09c-14.69-10.23-30-17.62-43.28-23.3-5.79-2.47-11.2-4.62-16-6.54a290.9,290.9,0,0,0-72.78-18.32l-2.42-.56a1.77,1.77,0,0,0,1.39-.47c1.78-1.95-2.72-8.66-4.39-11.36a67.94,67.94,0,0,1-8.51-35.09,48,48,0,0,1,10.72-27.26l58.71.29c1,.91,1.72,1.6,2.05,1.93,5.65,5.57,5.26,7.86,17.29,28.65C267.15,411.57,272,420,277.27,426.2c7.35,8.7,21.08,20.29,48,26.33l.38,0a138.26,138.26,0,0,1-1.95,17.28c-.55,3.18-1.26,6.53-2.13,10l-4.3,0Z" transform="translate(-0.25 -0.13)"/>
          <path class="cls-4" d="M459.15,174.7l.19.05c-1.46,3.72-5.34,11.95-13.94,16.65a27.68,27.68,0,0,1-3.61,1.64H413.36c-1.52-.4-5-1.4-7.21,0H382.28c.31-1.82,1.59-8.95,3.8-17.71,1.08-4.31,2.1-7.27,4.64-10.06a18.81,18.81,0,0,1,9.39-5.39v-.39l14.52.16h32.05c2.35,5.65,4.65,12.07,8.11,14.33.61.4,2.54,1.65,4,1A2.06,2.06,0,0,0,459.15,174.7Z" transform="translate(-0.25 -0.13)"/>
          <path class="cls-15" d="M446.68,159.65H414.63l-14.52-.16-27.74-.32L355.59,159l-21.48-46.26,44.9.33,16.35.12,4,0,2.53,6.94,11.25,30.77c.66,1.82,1.33,3.63,2,5.45l2.23.08,27.77,1c.43.52.86,1,1.28,1.55C446.49,159.2,446.58,159.43,446.68,159.65ZM375,140.21c3.11-.2,5.5-2.32,5.34-4.72s-2.81-4.18-5.92-4-5.51,2.32-5.35,4.72S371.88,140.42,375,140.21Z" transform="translate(-0.25 -0.13)"/>
          <path class="cls-4" d="M413.36,193h28.43C430.12,197.42,416.89,194,413.36,193Z" transform="translate(-0.25 -0.13)"/>
          <path class="cls-16" d="M437.58,108.13c.09,7.64.44,9.15.4,11.12a22,22,0,0,1-.23,2.66c-6.9,1.1-11.69,0-14.8-1.26-3.41-1.35-4.65-2.79-7.74-3.48-5.18-1.16-10,1-13.34,3l-2.53-6.94-4,0v-.84c.11-2.12.19-4.13.26-6h0a25.51,25.51,0,0,0,12.6,5.44c3.51.42,6.06-.12,9.68-.77C422.51,110.15,429.16,109.07,437.58,108.13Z" transform="translate(-0.25 -0.13)"/>
          <path class="cls-13" d="M403.11,70.14a5.33,5.33,0,0,1,.29-1,7.61,7.61,0,0,1,4-3.93,5.75,5.75,0,0,0,.19.83,4.88,4.88,0,0,0,1.36,2.13,5.69,5.69,0,0,0,2.51,1.26,7,7,0,0,0,4,.39c.78-.21,1.55-.85,3.1-2.13,1-.81,1.61-1.34,2.24-2l.66-.66a34.31,34.31,0,0,0,3.48-4.65c.78,1.24,1.62,1.29,3.87,3,1.81,1.38,3.32,2.52,3.59,4.16.12.76,0,1.44-1.55,4.07a39.19,39.19,0,0,1-4.65,7.06,21.41,21.41,0,0,1-4.84,4.55c-1.84,1.2-4.45,2.89-7.84,2.52A9.31,9.31,0,0,1,409,84.07c-1.56-1.14-2.27-2.44-3.67-5a16.18,16.18,0,0,1-2-4.93A9.69,9.69,0,0,1,403.11,70.14Z" transform="translate(-0.25 -0.13)"/>
          <path class="cls-13" d="M428.13,39.9a7.53,7.53,0,0,1,1,3.53c.16,1.35.36,3-.58,4.26a10.52,10.52,0,0,1-2.13,1.93,19,19,0,0,0-1.74,3.49,18.52,18.52,0,0,0-.72,2.38c-.13.62-.21,1.07-.25,1.29-.61,3.32-4.79,8.54-9.09,9.1-2.5.33-4.84-1-6.88-3-3.45-3.43-6-9-7-12.2-.15-.46-.26-.87-.34-1.23l0-.18a16.1,16.1,0,0,1,.54-9.52,14.88,14.88,0,0,1,5.81-6.58c3.06-2,4.72-3.33,7.74-2.32a9.79,9.79,0,0,1,2.42,1.08,9.53,9.53,0,0,1,3.49,3.56c.74,1.37,1.83,3.34,1.45,5.42-.09.46-.35,1.51.19,2a3.46,3.46,0,0,0,1.36.58v0c0-.29,0-2.89,1.35-3.95a2.63,2.63,0,0,1,2.52-.39A2.2,2.2,0,0,1,428.13,39.9Z" transform="translate(-0.25 -0.13)"/>
          <path class="cls-17" d="M428.27,27.85a18,18,0,0,1-.14,12,2.2,2.2,0,0,0-.92-.73,2.63,2.63,0,0,0-2.52.39c-1.31,1.06-1.35,3.66-1.35,3.95v0A3.46,3.46,0,0,1,422,43c-.54-.53-.28-1.58-.19-2,.38-2.08-.71-4-1.45-5.42a9.53,9.53,0,0,0-3.49-3.56,9.79,9.79,0,0,0-2.42-1.08c-3-1-4.68.29-7.74,2.32a14.88,14.88,0,0,0-5.81,6.58,16.1,16.1,0,0,0-.54,9.52l0,.18c.08.36.19.77.34,1.23h0a19.83,19.83,0,0,1-8.32-10.36c-.86-2.53-2.48-7.48-.2-11.42,3.12-5.37,12.63-7,17-11.42a2.54,2.54,0,0,0,1-1.93c-.22-1.68-3.47-1.56-4.64-3.68-1.29-2.32.83-5.68,1.16-6.19,1.8-2.77,4.71-3.77,7.15-4.4v0A9,9,0,0,0,411,7a8.83,8.83,0,0,0,.87,4.45,9.69,9.69,0,0,0,3.39,4.07c1.39.93,1.88.74,3.58,1.45,2.45,1,3.87,2.69,5.71,4.84A19.87,19.87,0,0,1,428.27,27.85Z" transform="translate(-0.25 -0.13)"/>
          <path class="cls-18" d="M407.43,63.56a3.65,3.65,0,0,1,.13-.49l.19-.19c2,2,4.38,3.33,6.88,3,4.3-.56,8.48-5.78,9.09-9.1,0-.22.12-.67.25-1.29.14.16.29.33.46.5l-.13.12a6.12,6.12,0,0,0,.58,4.35,34.31,34.31,0,0,1-3.48,4.65l-.66.66c-.63.61-1.26,1.14-2.24,2-1.55,1.28-2.32,1.92-3.1,2.13a7,7,0,0,1-4-.39,5.69,5.69,0,0,1-2.51-1.26,4.88,4.88,0,0,1-1.36-2.13,5.75,5.75,0,0,1-.19-.83A5.24,5.24,0,0,1,407.43,63.56Z" transform="translate(-0.25 -0.13)"/>
          <path class="cls-5" d="M407.43,63.56a5.24,5.24,0,0,0-.06,1.68,7.61,7.61,0,0,0-4,3.93,5.33,5.33,0,0,0-.29,1,25.07,25.07,0,0,0-5.32,7.93A27.61,27.61,0,0,0,396,89.69c0,4.2,0,9.65-.32,16.62-.07,1.89-.15,3.9-.26,6v.84L379,113.05v0c.47-1,1.15-2.59,1.84-4.55,2.07-5.86,2.11-9.18,3.29-15.77,1.23-6.86,1.84-10.29,3.78-14.52,1.44-3.16,3.08-6.72,6.77-9.77A22.22,22.22,0,0,1,407.43,63.56Z" transform="translate(-0.25 -0.13)"/>
          <path class="cls-4" d="M382.28,193h23.87a3.21,3.21,0,0,0-.52.39c-1.75,1.57-1.61,4.32-1.36,6.58a5.47,5.47,0,0,1,0,.92l-23.58,0c.46-1.92,1-4.24,1.5-7.47C382.22,193.36,382.25,193.23,382.28,193Z" transform="translate(-0.25 -0.13)"/>
          <path class="cls-4" d="M380.71,200.9l23.58,0a27.82,27.82,0,0,1-1.42,6.33c-7.58-.34-14.82-.44-22.12-.28l-1.67,0C379.65,204.94,380.16,203.2,380.71,200.9Z" transform="translate(-0.25 -0.13)"/>
          <path class="cls-9" d="M400.11,159.49v.39a18.81,18.81,0,0,0-9.39,5.39c-2.54,2.79-3.56,5.75-4.64,10.06-2.21,8.76-3.49,15.89-3.8,17.71H367.69c-.54-1.94-1-3.1-1.72-5.66-1.35-4.78-2.15-7.63-2.3-11.35-.14-3.18-.33-7.81,2.3-11.75a13.76,13.76,0,0,1,1.44-1.77,12.33,12.33,0,0,1,5-3v-.32Z" transform="translate(-0.25 -0.13)"/>
          <path class="cls-9" d="M397,256.91c.45,2.9.62,5.46-.15,5.94-.61.39-1-.06-3.68.26a17.52,17.52,0,0,0-3.8.76l-3.71,0a42.8,42.8,0,0,0-.19-6.69l0-.29Z" transform="translate(-0.25 -0.13)"/>
          <path class="cls-9" d="M397,256.91H385.47a8,8,0,0,1,0-1.61c.54-7,3.53-11,7.15-19.5.32-.74.93-2.42,2.09-5.61h0a60.48,60.48,0,0,0,.77,18.71C395.83,250.74,396.58,254,397,256.91Z" transform="translate(-0.25 -0.13)"/>
          <path class="cls-4" d="M402.87,207.26c-1.49,4.8-4.1,11.77-7.7,21.59-.18.47-.34.92-.5,1.34-1.16,3.19-1.77,4.87-2.09,5.61-3.62,8.46-6.61,12.54-7.15,19.5a8,8,0,0,0,0,1.61H369.83c1.3-5.61,2.86-12.9,4.15-20.42s1.23-9,1.69-12.56c.2-1.51.49-3.38,1-6.21,1-5.15,1.71-8.18,2.39-10.7l1.67,0C388.05,206.82,395.29,206.92,402.87,207.26Z" transform="translate(-0.25 -0.13)"/>
          <path class="cls-4" d="M385.5,257.2a42.8,42.8,0,0,1,.19,6.69l-17.57.07c.45-1.79,1-4.21,1.71-7h15.64Z" transform="translate(-0.25 -0.13)"/>
          <path class="cls-4" d="M368.12,264l17.57-.07c-.16,2.54-.68,5-2,5.7a16.78,16.78,0,0,1-1.55.68l-1,.34c-.95.28-1.52.32-2.49.63-2.49.77-2.44,1.64-4.07,1.74a6.09,6.09,0,0,1-2.9-.68c-1.41-.6-1-.87-3.39-2.42a2.36,2.36,0,0,1-1.16-1.26,1.8,1.8,0,0,1,.1-1.16S367.56,266.18,368.12,264Z" transform="translate(-0.25 -0.13)"/>
          <path class="cls-9" d="M367.69,193h14.59c0,.19-.06.32-.07.39-.55,3.23-1,5.55-1.5,7.47l-11.39,0c0-.27-.08-.56-.13-.87-.22-1.32-.53-3-1-4.94C368,194.28,367.85,193.63,367.69,193Z" transform="translate(-0.25 -0.13)"/>
          <path class="cls-9" d="M369.32,200.88l11.39,0c-.55,2.3-1.06,4-1.63,6.12q-4.06.09-8.52.25a42.33,42.33,0,0,1-1-4.58C369.55,202.56,369.47,201.87,369.32,200.88Z" transform="translate(-0.25 -0.13)"/>
          <path class="cls-9" d="M379.08,207c-.68,2.52-1.42,5.55-2.39,10.7-.53,2.83-.82,4.7-1,6.21l-.33-.05c-2.44-8-3.92-13.25-4.78-16.61Q375,207.11,379.08,207Z" transform="translate(-0.25 -0.13)"/>
          <path class="cls-1" d="M371.46,567.62v2.31l-29.67,0v-1.81l-58.07-26.58L272.37,466a2.63,2.63,0,0,0-1.46-1.4l.47-1.1c13.32,5.68,28.59,13.07,43.28,23.3,17.67,12.3,34.48,28.72,46,51.2A130.73,130.73,0,0,1,371.46,567.62Z" transform="translate(-0.25 -0.13)"/>
          <path class="cls-12" d="M369.83,256.91c-.67,2.84-1.26,5.26-1.71,7l-38.28.17-33.09.14v-7.36h73.08Z" transform="translate(-0.25 -0.13)"/>
          <path class="cls-10" d="M369.57,202.69a42.33,42.33,0,0,0,1,4.58c-16.88.58-37.85,1.86-61.91,4.57a88.32,88.32,0,0,0-2.4-8.62,0,0,0,0,0,0,0,11.41,11.41,0,0,0-.76-2.39h0l63.84.09C369.47,201.87,369.55,202.56,369.57,202.69Z" transform="translate(-0.25 -0.13)"/>
          <path class="cls-12" d="M369.32,200.88l-63.84-.09h-8.34V193h70.55c.16.59.32,1.24.51,2,.46,1.93.77,3.62,1,4.94C369.24,200.32,369.28,200.61,369.32,200.88Z" transform="translate(-0.25 -0.13)"/>
          <path class="cls-2" d="M341.79,568.14V570h-9v-1L105.14,461.82a2,2,0,0,1,0-2.46,2,2,0,0,1,2.07-.64l137,63L237,467a2,2,0,0,1,1.29-2.39,1.94,1.94,0,0,1,2.07.84l8.26,57.81,29.93,14.45-10.32-72.52a2.63,2.63,0,0,1,2-.77,2.6,2.6,0,0,1,.67.15,2.63,2.63,0,0,1,1.46,1.4l11.35,75.61Z" transform="translate(-0.25 -0.13)"/>
          <path class="cls-1" d="M332.75,568.91v1l-119,0v-1.35c-33.28-18.36-78.67-47.24-105-81.54C92.49,466,94.55,457.16,96.37,453.56c2.68-5.3,9.35-7.06,22.71-10.58,15.14-4,28.74-4.51,45.67-5.16,6.78-.26,10.17-.39,11.36-.26,1.82.2,3.11.47,4,.47l2.42.56a290.9,290.9,0,0,1,72.78,18.32c4.84,1.92,10.25,4.07,16,6.54l-.47,1.1a2.6,2.6,0,0,0-.67-.15,2.63,2.63,0,0,0-2,.77l10.32,72.52-29.93-14.45-8.26-57.81a1.94,1.94,0,0,0-2.07-.84A2,2,0,0,0,237,467l7.23,54.71-137-63a2,2,0,0,0-2.07.64,2,2,0,0,0,0,2.46Z" transform="translate(-0.25 -0.13)"/>
          <path class="cls-6" d="M327.21,336.83,67.46,336.4l-.24,26.88H64.61q.27-14.34.53-28.68l261.64.63C326.93,335.77,327.07,336.31,327.21,336.83Z" transform="translate(-0.25 -0.13)"/>
          <path class="cls-19" d="M325.19,433a136,136,0,0,1,.6,15.57c0,1.26-.07,2.61-.14,4l-.38,0c-26.92-6-40.65-17.63-48-26.33C272,420,267.15,411.57,257.4,394.72c-12-20.79-11.64-23.08-17.29-28.65-.33-.33-1-1-2.05-1.93l49,.25c-.33,2-.58,4.13-.72,6.33a64.69,64.69,0,0,0,7.75,34.84h22.47q0,3.48,0,7l5.07,0a133.21,133.21,0,0,1,3.33,17.64C325,430.93,325.09,431.86,325.19,433Z" transform="translate(-0.25 -0.13)"/>
          <path class="cls-14" d="M238.06,364.14l-58.71-.29a36.38,36.38,0,0,1,18.44-12.49C216,346.35,232.24,358.92,238.06,364.14Z" transform="translate(-0.25 -0.13)"/>
          <path class="cls-6" d="M213.79,568.65V570L49,570.07l-4.28-16.88q-22-87-44.1-174a16.17,16.17,0,0,1,0-7A16.91,16.91,0,0,1,6.43,363l43.15.22h2.7l12.33.06,114.74.58a48,48,0,0,0-10.72,27.26,67.94,67.94,0,0,0,8.51,35.09c1.67,2.7,6.17,9.41,4.39,11.36a1.77,1.77,0,0,1-1.39.47c-.92,0-2.21-.27-4-.47-1.19-.13-4.58,0-11.36.26-16.93.65-30.53,1.17-45.67,5.16-13.36,3.52-20,5.28-22.71,10.58-1.82,3.6-3.88,12.39,12.38,33.55C135.12,521.41,180.51,550.29,213.79,568.65Z" transform="translate(-0.25 -0.13)"/>
        </g>
        <g>
          <path class="cls-20" d="M400.69,50.69a19.83,19.83,0,0,1-8.32-10.36c-.86-2.53-2.48-7.48-.2-11.42,3.12-5.37,12.63-7,17-11.42a2.54,2.54,0,0,0,1-1.93c-.22-1.68-3.47-1.56-4.64-3.68-1.29-2.32.83-5.68,1.16-6.19,1.8-2.77,4.71-3.77,7.15-4.4l1-.25c2.66-.65,5.95-1.47,9.1.2a10.72,10.72,0,0,1,4.64,5.61c2.84,6.67-1.34,10.36,1,15.48,1,2.21,2,2.1,10.26,7.55,7.93,5.26,11.92,8,13.35,11,3.22,7-.69,14.4-1,14.91-.67,1.24-3.88,7.13-9.87,8.13a13,13,0,0,1-6.83-.81,36.8,36.8,0,0,1-3.42-1.52A26,26,0,0,1,424.43,56c-.17-.17-.32-.34-.46-.5l-.05-.06" transform="translate(-0.25 -0.13)"/>
          <path class="cls-20" d="M413.85,1.33A9,9,0,0,0,411,7a8.83,8.83,0,0,0,.87,4.45,9.69,9.69,0,0,0,3.39,4.07c1.39.93,1.88.74,3.58,1.45,2.45,1,3.87,2.69,5.71,4.84a19.87,19.87,0,0,1,3.77,6,18,18,0,0,1-.14,12c0,.05,0,.1-.05.14" transform="translate(-0.25 -0.13)"/>
          <path class="cls-20" d="M403.21,70l-.1.1a25.07,25.07,0,0,0-5.32,7.93A27.61,27.61,0,0,0,396,89.69c0,4.2,0,9.65-.32,16.62-.07,1.89-.15,3.9-.26,6" transform="translate(-0.25 -0.13)"/>
          <path class="cls-20" d="M407.46,63.56h0a22.22,22.22,0,0,0-12.74,4.84c-3.69,3-5.33,6.61-6.77,9.77-1.94,4.23-2.55,7.66-3.78,14.52-1.18,6.59-1.22,9.91-3.29,15.77-.69,2-1.37,3.53-1.84,4.55" transform="translate(-0.25 -0.13)"/>
          <path class="cls-20" d="M425.66,60.65a87.88,87.88,0,0,1,9.19,2.81l.43.16h0a81.76,81.76,0,0,1,8.86,3.9,47.67,47.67,0,0,1,8.42,5c3.51,2.86,5.22,6.26,8.23,14.13,7.57,19.78,4.73,19,9.29,28.26,0,0,3.46,7,3.77,13.35a22.43,22.43,0,0,1-.68,6.39,9.34,9.34,0,0,1-1.25,3.29c-1.83,2.46-5.31,4.82-7.55,3.87-2.78-1.18-.57-6.06-3.59-8.8-4-3.61-14.34-1.1-21,3.32-2.31,1.52-3.78,3-4.59,2.48-1.78-1.16,1.78-10.8,2.61-16.94a22,22,0,0,0,.23-2.66c0-2-.31-3.48-.4-11.12,0-1.23,0-2.63,0-4.22,0-12.47,1.1-14.27.19-20.42a45.89,45.89,0,0,0-5.41-15.87" transform="translate(-0.25 -0.13)"/>
          <path class="cls-20" d="M380.34,135.49c.16,2.4-2.23,4.52-5.34,4.72s-5.77-1.57-5.93-4,2.24-4.52,5.35-4.72S380.19,133.09,380.34,135.49Z" transform="translate(-0.25 -0.13)"/>
          <path class="cls-21" d="M417.34,156.36l21.45-6.57,22.24-6.9,3.34-1" transform="translate(-0.25 -0.13)"/>
          <path class="cls-21" d="M461,142.89a27.46,27.46,0,0,0,1.5,13c1,2.47,1.93,3.73,1.84,6.19s-1.17,3-2.71,8.13a13.36,13.36,0,0,1-1.45,3.1,6.38,6.38,0,0,1-1.06,1.4,2.06,2.06,0,0,1-.4.25c-1.42.68-3.35-.57-4-1-3.46-2.26-5.76-8.68-8.11-14.33-.1-.22-.19-.45-.29-.67-2-4.77-4.08-8.83-7-9.1a3.52,3.52,0,0,0-.58,0" transform="translate(-0.25 -0.13)"/>
          <path class="cls-21" d="M372.37,159.49a12.33,12.33,0,0,0-5,3,13.76,13.76,0,0,0-1.44,1.77c-2.63,3.94-2.44,8.57-2.3,11.75.15,3.72.95,6.57,2.3,11.35.71,2.56,1.18,3.72,1.72,5.66.16.59.32,1.24.51,2,.46,1.93.77,3.62,1,4.94.05.31.09.6.13.87.15,1,.23,1.68.25,1.81a42.33,42.33,0,0,0,1,4.58c.86,3.36,2.34,8.58,4.78,16.61" transform="translate(-0.25 -0.13)"/>
          <path class="cls-21" d="M400.11,159.88a18.81,18.81,0,0,0-9.39,5.39c-2.54,2.79-3.56,5.75-4.64,10.06-2.21,8.76-3.49,15.89-3.8,17.71,0,.19-.06.32-.07.39-.55,3.23-1,5.55-1.5,7.47-.55,2.3-1.06,4-1.63,6.12-.68,2.52-1.42,5.55-2.39,10.7-.53,2.83-.82,4.7-1,6.21-.46,3.55-.42,5.13-1.69,12.56s-2.85,14.81-4.15,20.42c-.67,2.84-1.26,5.26-1.71,7-.56,2.22-.91,3.5-.91,3.5a1.8,1.8,0,0,0-.1,1.16,2.36,2.36,0,0,0,1.16,1.26c2.41,1.55,2,1.82,3.39,2.42a6.09,6.09,0,0,0,2.9.68c1.63-.1,1.58-1,4.07-1.74,1-.31,1.54-.35,2.49-.63l1-.34a16.78,16.78,0,0,0,1.55-.68c1.35-.7,1.87-3.16,2-5.7a42.8,42.8,0,0,0-.19-6.69l0-.29a8,8,0,0,1,0-1.61c.54-7,3.53-11,7.15-19.5.32-.74.93-2.42,2.09-5.61.16-.42.32-.87.5-1.34,3.6-9.82,6.21-16.79,7.7-21.59a27.82,27.82,0,0,0,1.42-6.33,5.47,5.47,0,0,0,0-.92c-.25-2.26-.39-5,1.36-6.58a3.21,3.21,0,0,1,.52-.39c2.22-1.4,5.69-.4,7.21,0,3.53.92,16.76,4.38,28.43,0a27.68,27.68,0,0,0,3.61-1.64c8.6-4.7,12.48-12.93,13.94-16.65" transform="translate(-0.25 -0.13)"/>
          <path class="cls-21" d="M386.32,265.37a13,13,0,0,1,2.51-1.29l.57-.21a17.52,17.52,0,0,1,3.8-.76c2.68-.32,3.07.13,3.68-.26.77-.48.6-3,.15-5.94s-1.2-6.17-1.57-8a60.48,60.48,0,0,1-.77-18.71" transform="translate(-0.25 -0.13)"/>
          <path class="cls-21" d="M385.66,265.82c.2-.15.42-.3.65-.45" transform="translate(-0.25 -0.13)"/>
          <path class="cls-21" d="M381.24,271c1.86,3.86,1.62,6.42,1.06,8-1.11,3.24-3.69,3.32-6.77,7.93-2.24,3.36-1.43,4.18-3.48,6.78a17.53,17.53,0,0,1-8.13,5.42c-4.3,1.52-4.26-.13-14.91.58-2.83.19-4.57.42-5.8-.78-1.53-1.48-1.46-4.38-.58-6.38.76-1.76,1.95-2.39,6-5,4.82-3.15,7.23-4.72,7.93-5.61,2.6-3.3,1.63-5.35,4.26-8.71a14.92,14.92,0,0,1,6.29-4.55" transform="translate(-0.25 -0.13)"/>
          <path class="cls-21" d="M393.92,263.3l.63.55c3.35,2.92,6.06,5.53,8.08,7.58,3.35,3.39,4.1,4.49,4.25,6,.22,2.1-.9,3.18-3.29,8.32-2.08,4.5-1.56,4.39-2.51,6-3.43,5.77-11.72,9.74-17.62,7.55-.52-.2-3.93-1.52-4.25-3.87-.25-1.77,1.44-2.76,3.29-6.39a23.17,23.17,0,0,0,1.93-5.22c1-4.51-.36-6.32,0-11a23.35,23.35,0,0,1,1.88-7.41h0a.69.69,0,0,1,.05-.13" transform="translate(-0.25 -0.13)"/>
          <path class="cls-21" d="M204,307.49a180.1,180.1,0,0,1-.77-36.9c.73-9,1.95-15.11,4.38-27.35,7-35.09,12-38.52,14.71-39.75s7.25-.77,16,.26,15.13,2.94,22.45,5.16a198,198,0,0,1,25.55,9.81c7.38,3.44,11.15,5.31,15,8a67.14,67.14,0,0,1,8.79,7.39" transform="translate(-0.25 -0.13)"/>
          <path class="cls-21" d="M325.27,452.53c-26.92-6-40.65-17.63-48-26.33C272,420,267.15,411.57,257.4,394.72c-12-20.79-11.64-23.08-17.29-28.65-.33-.33-1-1-2.05-1.93-5.82-5.22-22.07-17.79-40.27-12.78a36.38,36.38,0,0,0-18.44,12.49,48,48,0,0,0-10.72,27.26,67.94,67.94,0,0,0,8.51,35.09c1.67,2.7,6.17,9.41,4.39,11.36a1.77,1.77,0,0,1-1.39.47c-.92,0-2.21-.27-4-.47-1.19-.13-4.58,0-11.36.26-16.93.65-30.53,1.17-45.67,5.16-13.36,3.52-20,5.28-22.71,10.58-1.82,3.6-3.88,12.39,12.38,33.55,26.37,34.3,71.76,63.18,105,81.54" transform="translate(-0.25 -0.13)"/>
          <path class="cls-21" d="M371.46,567.62A130.73,130.73,0,0,0,360.63,538c-11.49-22.48-28.3-38.9-46-51.2-14.69-10.23-30-17.62-43.28-23.3-5.79-2.47-11.2-4.62-16-6.54a290.9,290.9,0,0,0-72.78-18.32" transform="translate(-0.25 -0.13)"/>
          <path class="cls-21" d="M341.79,568.14l-58.07-26.58L272.37,466a2.63,2.63,0,0,0-1.46-1.4,2.6,2.6,0,0,0-.67-.15,2.63,2.63,0,0,0-2,.77l10.32,72.52-29.93-14.45-8.26-57.81a1.94,1.94,0,0,0-2.07-.84A2,2,0,0,0,237,467l7.23,54.71-137-63a2,2,0,0,0-2.07.64,2,2,0,0,0,0,2.46L332.75,568.91" transform="translate(-0.25 -0.13)"/>
          <path class="cls-21" d="M770.56,405.17A59.63,59.63,0,0,1,781,382.33a57.4,57.4,0,0,1,11.85-11.67c8-5.91,16.17-8.9,21.44-10.78,15.48-5.5,17.33-1.29,35.23-7,8.22-2.61,20.05-6.48,31.74-16.26A76.62,76.62,0,0,0,892.52,325a118,118,0,0,0,9.27-14.26c8.28-14.41,5.74-17,13.93-30.58,5.71-9.48,11.3-18.51,22.45-24.78a48.57,48.57,0,0,1,25.17-6.19c4.52.2,13.89.73,22.45,7.36,2.85,2.21,8.71,6.74,10.45,14.32.54,2.37,1.26,7.53-5,20.9-6.88,14.62-10.65,14.64-15.1,25.16-1.65,3.9-6.07,15.57-4.26,29,1.62,12.05,7.42,13.46,12,27.09,1.14,3.39,6,17.74,2.75,32.82a36.25,36.25,0,0,1-1.14,4.18c-3.68,11.15-12.32,20.35-27.93,36.94-14.9,15.84-19.76,17.61-23.23,27.48-3.95,11.26-2,21.59-.38,30.58,3.2,17.38,9.05,21.3,11.61,36.78.21,1.29.39,2.56.52,3.8a75.7,75.7,0,0,1-1.3,24.07" transform="translate(-0.25 -0.13)"/>
          <path class="cls-21" d="M862.52,569.72c-.52-3.94-1.35-10-2.54-17.45-1.45-9.12-2.58-15-3.1-17.81-2.2-12.19-5.66-29.27-1.54-46.45a82.87,82.87,0,0,1,14.71-31c10.66-13.92,18.27-14.33,30.39-25.26,23-20.78,29.07-49.57,30.26-55.25,5.21-24.88-4.65-27,1.18-58.75,4.57-24.89,13.09-36.93,21.39-44.22,6.71-5.89,14.46-9.72,15.1-8.91.83,1.06-11.14,8.93-19.74,22.84-3.53,5.7-7.57,14.16-10.31,31.27-5.5,34.19,4.52,38.52-.12,62.11-.62,3.16-7.58,36.19-34.07,57.36-10.35,8.27-18.86,10.87-29,23.92s-12.77,24.59-13.32,27.18c-1.72,8-1.39,14.68-1,21.91.45,8.92,1.71,14.7,3.49,24,1.54,8,3.68,19.78,6,34.48" transform="translate(-0.25 -0.13)"/>
          <path class="cls-21" d="M985.46,410a41.19,41.19,0,0,1,21.3-1.78c5.34,1,13.36,2.56,18.12,8.91,5.37,7.14,3.5,17,.78,31.36a109.82,109.82,0,0,1-3.44,13.52,239.7,239.7,0,0,1-23.14,49.41,213.71,213.71,0,0,1-30.37,37.34" transform="translate(-0.25 -0.13)"/>
          <path class="cls-21" d="M818.57,241.7c21.42-15,55.33-35.61,68.51-25,7.85,6.3,4,20.17,4.26,68.13.1,16.76.67,30.63,1.18,40.2" transform="translate(-0.25 -0.13)"/>
          <path class="cls-21" d="M792.86,370.66c3.08-8,7.09-19.21,11-32.84,13.11-45.84,14.48-82.58,14.71-90.2,0,0,.06-2.11,0-5.92-.32-18.74-3.77-78.69-33.29-131.5-3.71-6.64-8.83-13.58-15.87-14.32-1.24-.13-4.75-.3-18.19,7.36a172.57,172.57,0,0,0-14.71,9.29c-14.13,10.93-21.57,16.69-30.58,26.71A188,188,0,0,0,684.24,169c-1.75,3-3.33,5.82-4.77,8.56-3.05,5.8-5.43,11-7.27,15.44" transform="translate(-0.25 -0.13)"/>
          <path class="cls-21" d="M752.12,235l50.18-28.36a3.41,3.41,0,0,1,2.71,5q-26.78,15.23-53.54,30.46" transform="translate(-0.25 -0.13)"/>
          <path class="cls-21" d="M744.2,193l8.55-32.9-20.9-29.42,3.1-3.1,19.81,27q4.8-22.58,9.61-45.15a3.49,3.49,0,0,1,2.71-1.55,3.38,3.38,0,0,1,3.09,1.94q-10.38,45-20.77,90" transform="translate(-0.25 -0.13)"/>
          <path class="cls-21" d="M44.73,553.19c-3.91,1.19-17.46,5.66-17.78,12.63-.25,5.48,7.82,9.94,10.84,11.61C90.41,606.5,304,592.34,304,592.34,339.62,590,375.33,590.61,411,589c91.25-4,206.06-2.43,311.67-1l46.31.61c135.15,1.66,245.71,1.58,255.9-13.53,3.24-4.81,2.38-8.53,2.38-8.53-1.41-6-10.51-9.61-43.25-15.29-4.43-.77-9.54-1.62-15.25-2.49-6.75-1-14.35-2.13-22.66-3.19H946" transform="translate(-0.25 -0.13)"/>
          <path class="cls-21" d="M774.84,615.78c6.3,1.18,15.42,3.13,15.46,5.78.08,5.29-36.15,10.8-64.25,12.39-20.48,1.15-35.37.16-59.62-1.55-26.23-1.85-65.71-4.63-65.8-9.29-.09-4.34,34-8.18,37.16-8.52,17.39-1.91,31.16-1.52,55-.77,28.22.89,24.09,2,35.62,1.54h.1c16.48-.66,27.13-3,44,0Z" transform="translate(-0.25 -0.13)"/>
          <path class="cls-21" d="M305.48,200.79h-8.34V193H747.72c.57,2.05,1.14,4.3,1.68,6.73a126,126,0,0,1,3,26.95c0,2.84-.08,5.58-.25,8.23-.16,2.47-.38,4.84-.65,7.13a126.89,126.89,0,0,1-4.13,20.25l-49.38.21-45,.2-76.75.33-88.32.38-93.33.4-5.15,0-3.71,0-17.57.07-38.28.17-33.09.14v-7.36H570.43a37.78,37.78,0,0,0,5-8.51c3.57-8.35,3.13-15.74,2.71-21.68a69.27,69.27,0,0,0-7-25.55l-166.92-.24-23.58,0-11.39,0Z" transform="translate(-0.25 -0.13)"/>
          <path class="cls-21" d="M326.05,332.15c.24,1.06.48,2.08.73,3.07.15.55.29,1.09.43,1.61q.65,2.4,1.29,4.47l159.38.3,182,.35,45.35.08,44.56.09,28.26.05v-6.68h-2q-36.15-.25-72.31-.41-22.66-.1-45.33-.15-13.95,0-27.91-.06-73.95-.09-147.87.25a65.65,65.65,0,0,1-6.2-16.26,60.38,60.38,0,0,1,.39-31,58,58,0,0,1,6.58-14.71l161.65-.64,45-.18,82.46-.33h3.11l-.78-9.29-37.54-.39" transform="translate(-0.25 -0.13)"/>
          <path class="cls-21" d="M325,326.75l.24,1.31q.3,1.56.63,3.06" transform="translate(-0.25 -0.13)"/>
          <path class="cls-21" d="M324.55,324.45c.09.57.19,1.13.29,1.68" transform="translate(-0.25 -0.13)"/>
          <path class="cls-21" d="M323.93,320.08c.08.67.17,1.33.26,2" transform="translate(-0.25 -0.13)"/>
          <path class="cls-21" d="M323.4,315c0,.51.09,1,.14,1.51" transform="translate(-0.25 -0.13)"/>
          <path class="cls-21" d="M323.17,311.76c.05.91.11,1.8.18,2.69" transform="translate(-0.25 -0.13)"/>
          <path class="cls-21" d="M323.1,310.39l0,.66c0,.13,0,.25,0,.37" transform="translate(-0.25 -0.13)"/>
          <path class="cls-21" d="M329.84,264.13a123.62,123.62,0,0,0-6.76,35.36c-.11,2.53-.13,5-.09,7.37q0,1.54.09,3" transform="translate(-0.25 -0.13)"/>
          <path class="cls-21" d="M487.88,263.45a76.43,76.43,0,0,0,0,78.15" transform="translate(-0.25 -0.13)"/>
          <path class="cls-21" d="M782.55,272a72.86,72.86,0,0,0,3.5,63.38" transform="translate(-0.25 -0.13)"/>
          <path class="cls-21" d="M328.5,341.3H295.64A64.54,64.54,0,0,0,287,364.39c-.33,2-.58,4.13-.72,6.33a64.69,64.69,0,0,0,7.75,34.84H759.34c.08-2.67.17-5.34.25-8a23.65,23.65,0,0,0-2.45-.26,24.62,24.62,0,0,0-2.58,0l-.11-.17a46,46,0,0,1-.53-47.51h5.8c0-2.48.07-5,.1-7.45" transform="translate(-0.25 -0.13)"/>
          <path class="cls-21" d="M753.92,349.62l-37,.12-45.32.14L502,350.42l-204.61.65a80.05,80.05,0,0,0-.68,46.75l207-.24,178.07-.2,45.5-.05,26.88,0" transform="translate(-0.25 -0.13)"/>
          <path class="cls-21" d="M789.08,486.48H770.36l-23.67,0H723.32l-22.47,0-112.17-.09-127.22-.11-144.58-.13.39-6.19,4.3,0,243.35-1.78,16.35-.12c.87-2,1.84-4.54,2.77-7.49a80.49,80.49,0,0,0,2.27-8.91c.47-2.38.86-4.92,1.13-7.62.23-2.31.38-4.73.4-7.26,0-.54,0-1.08,0-1.63a82.25,82.25,0,0,0-6.19-30.58l-260.09-1.89-5.07,0q0-3.5,0-7" transform="translate(-0.25 -0.13)"/>
          <path class="cls-21" d="M759.34,405.56l11.44.19,19.07.33a134.83,134.83,0,0,1-.53,80.4" transform="translate(-0.25 -0.13)"/>
          <path class="cls-21" d="M732.2,405.56a70.14,70.14,0,0,1,8.55,42.19c-.26,2.26-.62,4.42-1.07,6.5a70.08,70.08,0,0,1-16.36,32.05" transform="translate(-0.25 -0.13)"/>
          <path class="cls-21" d="M770.56,405.17c.07.19.14.38.22.58a115.15,115.15,0,0,1-.42,80.67" transform="translate(-0.25 -0.13)"/>
          <path class="cls-21" d="M328.88,445.82l191.13.63,67.83.22" transform="translate(-0.25 -0.13)"/>
          <path class="cls-21" d="M330.05,454.33l203.1-.32,54.29-.08" transform="translate(-0.25 -0.13)"/>
          <path class="cls-21" d="M329.27,462.85l215.44-1.09,41.6-.21" transform="translate(-0.25 -0.13)"/>
          <path class="cls-21" d="M325.79,470.2l230.24.23,28,0" transform="translate(-0.25 -0.13)"/>
          <path class="cls-21" d="M821.24,569.74l0-7h-4.83l-53.18-.12-46.11-.1-197.35-.42L466.3,562a80.79,80.79,0,0,1-6.19-43,78.66,78.66,0,0,1,7.35-24l235-1.3,45.8-.26,67-.37h2.16l-.39-6.19-27.69-.37h-.24l-1.49,0H775.1l-28.4,0h-14l-31.81,0-239.65.15-146.57.09" transform="translate(-0.25 -0.13)"/>
          <path class="cls-21" d="M461.79,485.56c-.11.21-.21.42-.33.64l-.23.46a91.82,91.82,0,0,0,.66,83.23l0,.06" transform="translate(-0.25 -0.13)"/>
          <path class="cls-21" d="M815.24,493.05A94.08,94.08,0,0,0,809.12,523a89.63,89.63,0,0,0,.15,9.91,95,95,0,0,0,1.5,11.32c.63,3.2,1.39,6.17,2.2,8.88a94,94,0,0,0,3.47,9.6" transform="translate(-0.25 -0.13)"/>
          <path class="cls-21" d="M507.72,543.75l21.76,0,183.73.3,46,.07,51.52.08" transform="translate(-0.25 -0.13)"/>
          <path class="cls-21" d="M508.5,554.2l14.64-.05,192.08-.69,46-.16,51.73-.19" transform="translate(-0.25 -0.13)"/>
          <path class="cls-22" d="M616.88,94.33q4.51,21.11,9,42.21,4.88,22.74,9.74,45.49,1.19,5.5,2.36,11,3.45,16.07,6.88,32.13,4,18.78,8.05,37.57c.53,2.45,1,4.91,1.58,7.36.17.81.35,1.62.52,2.43q4.58,21.33,9.13,42.66,2.13,9.87,4.23,19.73c.51,2.34,1,4.69,1.5,7,.58,2.64,1.14,5.29,1.7,7.93q1.27,5.91,2.54,11.83,3.83,17.84,7.64,35.67c.58,2.73,1.17,5.45,1.75,8.18q4.79,22.35,9.58,44.71,3.87,18.06,7.73,36.13l0,.11,1.53,7.17q2.26,10.51,4.5,21,2.8,13.06,5.6,26.14c.24,1.08.47,2.16.7,3.24l2,9.38c.64,3,1.29,6,1.93,9l1.56,7.3q1.72,8,3.43,16l.48,2.25,5.85,27.32q1.5,7,3,13.94" transform="translate(-0.25 -0.13)"/>
          <path class="cls-22" d="M661,92.78l8.4,38.61q4.92,22.61,9.84,45.21c.08.33.15.67.22,1L682.83,193q3,13.53,5.89,27.07L698,262.54c.26,1.21.53,2.43.79,3.64.45,2.06.9,4.11,1.34,6.17q4.1,18.79,8.18,37.59,2.75,12.57,5.47,25.13.76,3.48,1.52,7,.84,3.86,1.67,7.71t1.63,7.47q4.38,20.06,8.73,40.12c.31,1.39.61,2.77.91,4.16s.59,2.71.88,4.07q4.3,19.69,8.58,39.39c.67,3.1,1.35,6.2,2,9.3q3.51,16.1,7,32.19s0,0,0,.05c.5,2.31,1,4.62,1.51,6.93l5.28,24.28q2,9.06,4,18.13c.6,2.77,1.21,5.55,1.81,8.32.66,3.05,1.33,6.1,2,9.15s1.35,6.19,2,9.29l1.56,7.18q1.2,5.49,2.39,11c.58,2.63,1.15,5.27,1.72,7.9l5.91,27.13.75,3.46" transform="translate(-0.25 -0.13)"/>
          <path class="cls-22" d="M625,136.65l.91-.11q21.23-2.44,42.45-4.92" transform="translate(-0.25 -0.13)"/>
          <path class="cls-22" d="M635.34,182.07l.32,0q21.38-2.62,42.77-5.25" transform="translate(-0.25 -0.13)"/>
          <path class="cls-22" d="M645.53,225,688,220.27" transform="translate(-0.25 -0.13)"/>
          <path class="cls-22" d="M655.21,270l42.84-3.62" transform="translate(-0.25 -0.13)"/>
          <path class="cls-22" d="M663.72,315.24l.46-.05,42.9-5" transform="translate(-0.25 -0.13)"/>
          <path class="cls-22" d="M675.46,361.43l42.07-4" transform="translate(-0.25 -0.13)"/>
          <path class="cls-22" d="M685.66,406.07l4.74-.51,37.8-4.07.55-.06" transform="translate(-0.25 -0.13)"/>
          <path class="cls-22" d="M695.21,449.82l41.42-4.65" transform="translate(-0.25 -0.13)"/>
          <path class="cls-22" d="M702.56,488.58l30.13-2.09.89-.06,12.59-.87" transform="translate(-0.25 -0.13)"/>
          <path class="cls-22" d="M712.88,540.76,756.63,536" transform="translate(-0.25 -0.13)"/>
          <path class="cls-22" d="M723.72,585.45l41.55-4.28" transform="translate(-0.25 -0.13)"/>
        </g>
      </g>
    </g>
  </g>
</svg>
