<svg width="705" height="482" viewBox="0 0 705 482" fill="none" xmlns="http://www.w3.org/2000/svg">
<g clip-path="url(#clip0_73:82)">
<path d="M338.647 202.37C363.988 196.958 390.853 197.647 415.584 189.739C448.956 179.285 474.793 154.984 502.743 135.116C530.992 115.524 567.021 99.5011 600.503 109.598C645.046 122.969 660.836 173.432 669.719 216.155C679.215 261.652 688.71 307.149 698.207 352.923C703.41 377.058 708.028 403.418 695.61 425.425C679.94 453.281 643.282 463.198 610.179 468.374C478.67 489.628 132.238 505.92 229.27 288.217C248.145 245.624 290.35 212.626 338.647 202.37Z" fill="#7B0B2D"/>
</g>
<path fill-rule="evenodd" clip-rule="evenodd" d="M542.097 200.638C542.097 200.638 557.784 174.809 582.617 176.553C601.739 177.915 631.537 189.423 632.882 222.02C634.594 259.153 617.705 248.37 621.13 265.665C624.563 283.226 638.717 284.186 637.049 296.267C635.38 308.348 620.563 319.977 621.253 327.448C621.944 334.919 632.567 352.556 625.345 360.774C616.685 370.901 606.756 370.364 607.694 377.828C609.564 392.49 621.523 394.845 618.847 396.789C616.171 398.733 576.064 400.606 568.909 382.876C563.606 369.644 573.421 356.275 574.457 348.491C576.523 332.655 559.771 317.588 549.095 307.442C538.413 297.028 544.076 276.548 543.804 266.124C543.78 255.693 518.243 245.943 542.097 200.638Z" fill="#6E3122"/>
<path d="M581.538 183.267C594.134 181.326 621.89 190.215 623.725 222.532C625.517 253.246 606.416 252.953 609.843 270.248C613.276 287.811 627.704 289.566 626.043 301.915C624.374 313.996 611.408 320.762 612.099 328.233C612.789 335.704 623.552 349.059 616.335 357.544C607.672 367.672 597.236 366.881 607.797 391.475" stroke="#01080A" stroke-miterlimit="10" stroke-linecap="round" stroke-linejoin="round"/>
<path d="M632.076 220.174C635.391 252.184 624.58 246.588 628.042 265.22C631.257 283.858 644.69 285.373 642.801 298.53C641.153 311.414 625.293 321.466 625.998 329.472C626.702 337.478 635.534 352.757 625.333 361.054" stroke="#01080A" stroke-miterlimit="10" stroke-linecap="round" stroke-linejoin="round"/>
<path d="M576.499 189.553C589.095 187.612 587.915 199.413 617.259 221.634C619.052 252.347 596.24 252.421 599.922 269.977C603.355 287.54 617.783 289.295 616.121 301.644C614.453 313.725 601.487 320.491 602.177 327.962C602.868 335.433 613.631 348.788 606.413 357.273C597.751 367.401 587.315 366.61 597.875 391.204" stroke="#01080A" stroke-miterlimit="10" stroke-linecap="round" stroke-linejoin="round"/>
<path d="M597.156 220.564C600.437 251.238 577.643 252.381 582.063 269.65C586.235 286.926 600.904 288.139 599.73 300.208C598.804 312.27 586.101 319.831 587.04 327.296C588.227 334.754 599.477 347.561 592.51 356.306C584.353 366.956 578.602 365.237 590.393 389.264" stroke="#01080A" stroke-miterlimit="10" stroke-linecap="round" stroke-linejoin="round"/>
<path d="M574.325 219.566C580.319 249.633 558.093 253.436 563.986 270.13C569.878 286.825 584.503 286.435 584.576 298.738C584.649 311.041 572.719 319.651 574.649 327.089C576.58 334.528 589.033 345.965 583.08 355.486C575.936 366.911 569.959 366.001 584.185 388.358" stroke="#01080A" stroke-miterlimit="10" stroke-linecap="round" stroke-linejoin="round"/>
<path d="M254.034 432.166C254.034 432.166 236.231 443.338 235.248 443.631C230.852 446.155 216.936 454.282 201.802 463.243C195.907 465.272 189.254 466.787 190.074 469.706C190.886 472.358 214.497 474.932 220.784 468.881C223.446 466.404 227.333 463.359 230.601 465.143C233.869 466.926 242.29 466.7 245.405 462.606C248.28 458.787 245.721 455.647 247.598 451.587C247.839 451.313 264.877 439.361 265.118 439.087C268.213 434.192 255.237 430.798 254.034 432.166Z" fill="#F4A082"/>
<path d="M430.719 403.935C430.719 403.935 425.95 401.656 423.563 405.197C417.928 407.755 417.441 417.663 417.441 417.663C417.441 417.663 412.728 417.522 409.852 421.343C408.889 422.439 405.139 421.202 405.958 424.122C406.495 425.712 428.439 430.739 430.484 433.09C432.266 434.915 430.541 406.614 430.719 403.935Z" fill="#F4A082"/>
<path d="M416.986 265.495C413.532 266.123 408.151 268.942 404.752 271.707C365.991 287.458 336.137 350.558 319.595 372.393C316.96 375.94 310.905 381.451 308.036 385.538C301.093 395.083 273.446 418.823 250.525 433.611C250.037 433.892 254.496 443.396 257.985 444.104C278.119 436.609 316.77 426.208 336.304 395.469C342.744 385.67 379.261 359.82 400.578 340.53C404.734 338.279 416.33 345.719 416.013 352.679C420.061 375.027 425.17 448.144 432.073 456.246C438.975 464.347 443.702 465.022 447.335 461.715C458.132 457.414 466.592 381.791 461.291 339.692C463.094 332.692 467.669 327.489 467.332 324.022C467.332 324.022 415.851 269.536 416.986 265.495Z" fill="#320714"/>
<path d="M410.805 267.795C410.805 267.795 430.918 315.849 465.564 329.362" stroke="#7B0B2D" stroke-width="1.5" stroke-miterlimit="10"/>
<path d="M407.607 269.632C407.607 269.632 425 322.357 464.208 331.806" stroke="#7B0B2D" stroke-width="1.5" stroke-miterlimit="10"/>
<path d="M559.823 223.145C554.662 224.889 538.038 233.893 537.467 230.967C537.192 229.906 537.824 225.611 537.542 224.282C535.064 214.724 552.995 189.109 546.08 190.098C538.18 191.381 480.299 225.026 475.895 227.284C473.452 228.686 455.246 243.615 439.902 254.189C433.083 258.918 423.016 262.665 415.667 266.072C429.864 297.503 465.572 326.748 467.237 324.03C472.218 315.34 484.879 296.819 501.207 295.576C503.698 296.043 522.518 295.267 526.922 293.01C531.325 290.752 556.972 304.763 556.586 289.802C556.2 274.841 543.599 257.269 546.517 255.052C549.434 252.834 557.258 248.613 565.281 242.514C573.07 236.957 564.984 221.402 559.823 223.145Z" fill="#F4A082"/>
<path opacity="0.6" d="M561.803 243.429C558.136 245.4 550.111 241.873 547.235 236.068C544.358 230.264 546.699 228.691 550.315 227.28C553.983 225.31 557.302 222.695 560.179 228.499C563.062 234.571 565.471 241.458 561.803 243.429Z" fill="#DB8C70"/>
<path d="M480.927 240.765C472.822 234.033 499.985 211.118 519.532 190.813C530.152 179.836 558.514 164.907 582.921 159.975C591.782 157.599 630.153 146.411 670.16 160.039C670.16 160.039 670.78 164.833 666.288 163.617C661.802 162.669 600.995 168.845 586.543 175.381C578.941 178.526 555.587 185.835 543.481 196.852C531.375 207.869 521.516 238.606 502.499 231.633C482.981 224.405 478.485 242.167 480.927 240.765Z" fill="#F4A082"/>
<path d="M657.438 157.717C665.273 154.032 673.356 150.34 677.332 150.767C683.042 151.149 688.78 152.598 692.826 155.697C696.865 158.529 704.928 163.659 704.206 164.48C703.484 165.301 682.935 166.121 682.935 166.121C682.935 166.121 675.98 165.505 677.514 167.335C679.049 169.165 686.939 167.617 687.05 171.891C687.05 171.891 680.604 171.796 678.12 171.596C675.637 171.395 660.474 169.664 655.072 162.057C655.32 162.051 654.501 159.132 657.438 157.717Z" fill="#F4A082"/>
<path d="M553.245 370.722C555.338 374.945 568.411 410.435 570.8 445.142C575.013 445.029 578.07 448.156 582.29 448.31C573.517 435.173 582.061 401.242 567.701 363.915C561.323 347.503 560.309 298.851 559.42 293.258C557.421 283.148 557.406 272.984 548.834 267.598C540.262 262.211 517.601 277.798 518.664 290.073C518.664 290.073 536.624 284.508 535.903 294.959C535.965 297.365 551.151 366.499 553.245 370.722Z" fill="#F4A082"/>
<path d="M597.805 454.064C597.805 454.064 586.102 451.973 584.086 450.69C582.063 449.14 578.071 438.554 578.03 436.951L571.817 436.316C567.305 443.922 569.941 450 566.819 453.827C565.374 455.47 562.231 458.495 563.738 459.257C565.994 460.265 567.962 459.678 569.888 457.487C571.814 455.297 574.716 452.546 576.017 454.917C577.07 457.295 578.612 459.392 581.598 459.846C584.583 460.301 607.864 459.676 607.575 458.079C607.038 456.49 597.805 454.064 597.805 454.064Z" fill="#F4A082"/>
<path d="M570.867 201.465C570.867 201.465 572.696 195.532 568.045 197.797C558.255 202.606 559.928 209.781 559.949 210.583C559.976 211.652 570.867 201.465 570.867 201.465Z" fill="#F4A082"/>
<path d="M590.794 243.203C590.794 243.203 596.291 244.927 591.902 247.718C582.636 253.58 578.288 248.351 577.524 247.569C577.015 247.048 590.794 243.203 590.794 243.203Z" fill="#F4A082"/>
<path fill-rule="evenodd" clip-rule="evenodd" d="M580.404 196.407C576.971 197.837 572.554 199.56 568.653 202.071C549.114 213.292 550.012 228.777 555.002 239.607C561.335 254.412 583.31 251.147 593.279 243.66C599.601 238.944 602.257 236.199 605.359 231.569C612.168 216.947 604.917 224.094 580.404 196.407Z" fill="#F4A082"/>
<path d="M443.316 251.962C456.011 254.025 483.096 285.375 480.668 306.56C480.668 306.56 498.497 296.187 499.99 296.414C500.981 296.388 501.978 296.628 502.722 296.608C521.183 301.189 530.906 293.708 533.975 287.744C537.043 281.78 544.791 274.619 548.176 271.32C551.568 268.288 551.988 265.335 551.988 265.335L549.476 264.067C549.476 264.067 535.261 279.956 532.502 278.694C529.749 277.699 510.076 264.596 507.764 261.45C505.699 258.298 512.393 229.511 517.058 227.781C521.723 226.051 534.832 224.895 538.334 226.138C539.339 226.645 539.235 222.638 538.245 222.664C536.999 222.431 515.42 221.944 501.218 219.119C496.979 218.164 499.16 216.234 491.729 216.435C483.823 217.45 443.302 251.428 443.316 251.962Z" fill="#FFD2B9"/>
<path d="M586.711 219.77C582.35 223.631 576.949 225.647 575.711 225.68C573.97 225.46 573.894 222.521 572.924 223.349C570.496 225.286 572.079 228.986 573.84 230.009" stroke="#EFAFA3" stroke-width="1.38" stroke-miterlimit="10" stroke-linecap="round" stroke-linejoin="round"/>
<path opacity="0.69" d="M580.571 203.082C581.838 204.118 583.896 207.005 584.22 209.938" stroke="#682C1A" stroke-width="1.31" stroke-miterlimit="10" stroke-linecap="round" stroke-linejoin="round"/>
<path d="M577.158 214.672C574.921 214.465 572.588 210.516 573.509 207.816" stroke="#49241B" stroke-miterlimit="10" stroke-linecap="round" stroke-linejoin="round"/>
<path d="M588.175 237.92C585.938 237.713 583.604 233.764 584.526 231.065" stroke="#49241B" stroke-miterlimit="10" stroke-linecap="round" stroke-linejoin="round"/>
<path opacity="0.69" d="M594.996 233.459C594.948 231.588 593.619 228.147 591.829 226.055" stroke="#682C1A" stroke-width="1.31" stroke-miterlimit="10" stroke-linecap="round" stroke-linejoin="round"/>
<path d="M566.026 224.869C565.311 225.958 565.491 232.907 570.99 234.631" stroke="#BC4926" stroke-width="1.45" stroke-miterlimit="10" stroke-linecap="round" stroke-linejoin="round"/>
<path opacity="0.24" fill-rule="evenodd" clip-rule="evenodd" d="M569.09 218.899C566.86 218.958 564.802 216.072 564.471 212.872C564.133 209.404 565.805 206.952 568.035 206.892C570.264 206.832 572.322 209.719 572.653 212.919C572.737 216.126 571.319 218.839 569.09 218.899Z" fill="#ED5851"/>
<path opacity="0.24" fill-rule="evenodd" clip-rule="evenodd" d="M577.237 236.609C576.301 238.774 577.375 241.954 579.908 244.025C582.433 245.829 585.406 245.749 586.341 243.585C587.277 241.42 586.203 238.24 583.67 236.169C581.144 234.365 578.172 234.445 577.237 236.609Z" fill="#ED5851"/>
<path opacity="0.6" d="M441.479 294.777C440.509 295.605 439.271 295.638 438.761 295.117C438.252 294.596 438.961 293.24 439.931 292.412C440.9 291.584 442.139 291.55 442.648 292.071C443.157 292.593 442.697 293.942 441.479 294.777Z" fill="#DB8C70"/>
<path d="M588.35 187.899C595.547 188.242 611.916 198.236 617.797 214.66" stroke="#01080A" stroke-miterlimit="10" stroke-linecap="round" stroke-linejoin="round"/>
<path opacity="0.56" d="M547.772 468.095C547.807 469.512 456.597 473.006 343.961 475.851C231.326 478.696 140.058 479.867 140.021 478.393C139.986 476.976 231.196 473.481 343.831 470.637C456.467 467.792 547.736 466.678 547.772 468.095Z" fill="black" fill-opacity="0.2"/>
<defs>
<clipPath id="clip0_73:82">
<rect width="372.708" height="491.268" fill="white" transform="matrix(0.00534047 0.999986 0.999986 -0.00534047 211 108.624)"/>
</clipPath>
</defs>
</svg>
