<svg width="864" height="855" viewBox="0 0 864 855" fill="none" xmlns="http://www.w3.org/2000/svg">
<path opacity="0.8" d="M466.065 116.048C419.972 76.5309 265.999 120.856 225.046 159.897C174.21 208.392 160.039 260.903 184.292 331.202C204.582 389.836 348.518 456.963 390.873 501.876C479.487 595.876 580.993 579.527 687.203 496.476C731.039 455.898 765.67 344.464 553.508 223.348C501.442 196.353 506.275 150.515 466.065 116.048Z" fill="#7B0B2D"/>
<path d="M432 730.74C246.962 730.74 96.9582 722.078 96.9582 711.393C96.9582 700.709 246.962 692.047 432 692.047C617.039 692.047 767.042 700.709 767.042 711.393C767.042 722.078 617.039 730.74 432 730.74Z" fill="#533737"/>
<path d="M528.647 198.629C526.919 191.433 508.844 184.597 493.292 195.21C486.398 199.827 481.227 206.555 478.574 214.36C475.92 222.166 475.931 230.617 478.604 238.415C486.95 262.854 443.388 261.949 433.296 303.154C425.33 335.626 432.709 381.616 477.17 379.121C545.028 375.31 539.171 309.716 542.143 275.245C545.115 240.774 582.146 202.115 528.647 198.629Z" fill="#4F393A"/>
<path d="M551.059 290.661C551.353 295.651 551.94 300.214 552.597 304.948C553.254 309.682 554.17 314.314 555.189 318.962C556.209 323.611 557.366 328.26 558.835 332.84C560.254 337.488 561.939 342.053 563.881 346.512L565.402 349.93C565.626 350.426 566.041 351.178 566.352 351.81C566.663 352.443 567.078 353.024 567.441 353.639C568.862 355.831 570.444 357.916 572.175 359.877C575.395 363.521 578.859 366.947 582.543 370.131C589.686 376.376 597.287 382.088 605.284 387.222L609.88 381.138C606.632 378.027 603.314 374.814 600.117 371.601C596.92 368.388 593.758 365.124 590.751 361.808C587.789 358.594 584.992 355.234 582.371 351.742C581.173 350.107 580.087 348.394 579.122 346.615C578.932 346.222 578.69 345.812 578.534 345.436C578.379 345.06 578.206 344.752 578.016 344.188L576.841 341.18C573.876 332.922 571.565 324.448 569.929 315.835C569.048 311.494 568.408 307.085 567.752 302.692C567.095 298.3 566.594 293.771 566.214 289.601L551.059 290.661Z" fill="#FBCABA"/>
<path d="M561.427 272.716C567.562 274.254 571.795 299.24 571.795 299.24L548.312 315.032C548.312 315.032 538.652 285.414 543.387 278.732C548.363 271.759 552.476 270.46 561.427 272.716Z" fill="#333333"/>
<path opacity="0.2" d="M560.874 278.287L565.592 303.478L556.088 309.853L560.874 278.287Z" fill="black"/>
<path d="M607.081 379.052L622.892 381.547L613.872 391.426C613.872 391.426 604.558 389.324 602.916 383.427L607.081 379.052Z" fill="#FBCABA"/>
<path d="M630.375 383.513L621.354 393.169L613.872 391.426L622.892 381.548L630.375 383.513Z" fill="#FBCABA"/>
<path d="M528.215 693.209H543.11L544.113 659.097H529.217L528.215 693.209Z" fill="#FBCABA"/>
<path d="M483.359 693.934L498.255 693.925L503.015 659.811L488.119 659.82L483.359 693.934Z" fill="#FBCABA"/>
<path d="M499.868 691.056L483.329 688.629C483.043 688.58 482.749 688.637 482.502 688.788C482.255 688.939 482.072 689.174 481.988 689.448L478.143 702.085C478.066 702.403 478.056 702.735 478.115 703.057C478.174 703.38 478.299 703.687 478.484 703.959C478.668 704.231 478.908 704.462 479.187 704.639C479.467 704.815 479.78 704.932 480.107 704.983C485.886 705.728 488.717 705.8 495.997 706.879C500.472 707.542 511.946 711.356 518.131 712.269C524.315 713.182 525.547 707.18 523.101 706.231C515.067 703.363 507.887 698.549 502.22 692.228C501.593 691.586 500.764 691.173 499.868 691.056Z" fill="#263238"/>
<path d="M543.629 691.517H526.884C526.599 691.511 526.322 691.608 526.105 691.791C525.888 691.974 525.748 692.229 525.709 692.509L523.791 705.617C523.757 705.947 523.794 706.281 523.898 706.596C524.003 706.911 524.173 707.201 524.397 707.447C524.622 707.694 524.896 707.891 525.203 708.026C525.509 708.161 525.84 708.231 526.176 708.232C532.017 708.129 534.816 707.788 542.194 707.788C546.722 707.788 556.018 708.249 562.326 708.249C568.633 708.249 568.909 702.148 566.317 701.584C554.636 699.106 550.04 695.688 546.117 692.423C545.422 691.84 544.54 691.519 543.629 691.517Z" fill="#263238"/>
<g opacity="0.2">
<path opacity="0.2" d="M544.095 659.114L543.594 676.7H528.699L529.2 659.114H544.095Z" fill="black"/>
<path opacity="0.2" d="M490.056 659.042L504.876 660.612L500.497 677.852L485.693 676.277L490.056 659.042Z" fill="black"/>
</g>
<path d="M561.427 272.716C561.427 272.716 568.529 275.177 554.308 361.586H493.828C494.847 337.232 494.865 322.278 483.097 272.254C491.567 270.498 500.155 269.355 508.792 268.836C517.933 268.186 527.11 268.186 536.25 268.836C548.053 270.05 561.427 272.716 561.427 272.716Z" fill="#333333"/>
<path opacity="0.2" d="M488.091 292.062C493.569 293.412 498.632 299.325 498.027 310.212C497.686 315.15 495.937 319.891 492.981 323.884C492.014 315.51 490.389 305.786 487.797 293.344L488.091 292.062Z" fill="black"/>
<path d="M533.071 292.831C533.071 292.831 525.208 297.633 523.152 304.794C514.616 298.608 503.021 281.397 502.554 271.092C502.552 270.792 502.61 270.495 502.724 270.217C502.839 269.939 503.008 269.686 503.221 269.474C503.435 269.261 503.689 269.092 503.969 268.976C504.249 268.861 504.549 268.802 504.852 268.802C506.168 268.768 507.485 268.825 508.792 268.973L533.071 292.831Z" fill="white"/>
<path d="M533.071 292.831C533.071 292.831 540.933 297.633 542.99 304.794C552.165 298.146 547.068 276.202 541.815 268.904C539.965 268.712 538.1 268.712 536.25 268.904L533.071 292.831Z" fill="white"/>
<path d="M511.488 238.347C513.216 247.08 514.944 263.094 508.775 268.939C514.506 278.958 522.903 287.233 533.053 292.865C545.305 283.192 536.233 268.939 536.233 268.939C526.383 266.614 526.643 259.368 528.353 252.583L511.488 238.347Z" fill="#FBCABA"/>
<path opacity="0.2" d="M518.4 244.157L528.388 252.583C527.957 254.16 527.673 255.774 527.541 257.402C523.774 256.855 517.847 253.694 517.035 249.643C516.672 247.729 518.054 245.063 518.4 244.157Z" fill="black"/>
<path d="M496.696 224.298C500.774 238.347 502.209 244.38 511.125 250.105C524.534 258.65 541.089 250.652 541.33 235.681C541.555 222.196 534.833 201.5 519.454 198.919C516.068 198.334 512.586 198.616 509.341 199.738C506.096 200.859 503.195 202.784 500.914 205.327C498.633 207.871 497.048 210.95 496.31 214.27C495.571 217.591 495.704 221.043 496.696 224.298Z" fill="#FBCABA"/>
<path d="M527.368 200.167C526.694 204.918 500.394 220.197 495.4 212.233C490.406 204.268 497.595 198.27 508.792 196.749C515.197 195.754 521.753 196.96 527.368 200.167Z" fill="#4F393A"/>
<path d="M510.227 202.747C513.458 206.951 506.615 237.236 496.817 234.382C487.02 231.527 487.469 221.837 494.277 212.899C498.13 207.668 503.817 204.048 510.227 202.747Z" fill="#4F393A"/>
<path d="M554.308 361.62C554.308 361.62 566.058 475.135 565.056 519.997C564.037 566.723 546.722 673.299 546.722 673.299H526.591C526.591 673.299 529.77 569.457 527.99 523.569C526.055 473.546 509.985 361.62 509.985 361.62H554.308Z" fill="#C37664"/>
<path d="M493.085 360.629C493.085 360.629 481.335 474.144 482.337 519.006C483.356 565.731 483.391 672.308 483.391 672.308H503.522C503.522 672.308 514.944 569.132 519.402 522.578C524.273 471.717 537.408 360.629 537.408 360.629H493.085Z" fill="#C37664"/>
<path d="M524.88 674H548.502L550.23 666.548L523.774 665.643L524.88 674Z" fill="#263238"/>
<path opacity="0.2" d="M528.468 393.29C543.328 422.84 531.457 476.76 526.204 496.824C523.508 466.694 518.964 429.864 515.421 402.827C517.685 387.514 521.625 379.652 528.468 393.29Z" fill="black"/>
<path d="M481.487 675.063L506.683 675.039L509.364 667.214L479.719 665.917L481.487 675.063Z" fill="#263238"/>
<path d="M705.698 211.532C720.747 224.704 731.508 241.995 736.621 261.216C741.734 280.438 740.969 300.727 734.422 319.519C727.876 338.31 715.843 354.76 699.844 366.787C683.845 378.815 664.6 385.88 644.541 387.09C624.482 388.299 604.511 383.598 587.153 373.582C569.796 363.566 555.831 348.684 547.025 330.818C538.22 312.952 534.968 292.905 537.683 273.211C540.397 253.518 548.955 235.063 562.274 220.18C580.136 200.227 605.28 188.107 632.176 186.485C659.071 184.864 685.517 193.873 705.698 211.532ZM581.679 350.135C594.347 361.22 610.053 368.341 626.813 370.597C643.572 372.854 660.632 370.144 675.834 362.812C691.036 355.479 703.699 343.852 712.22 329.402C720.741 314.952 724.739 298.327 723.707 281.63C722.675 264.932 716.66 248.913 706.423 235.596C696.186 222.28 682.186 212.265 666.193 206.818C650.201 201.371 632.935 200.737 616.578 204.995C600.222 209.253 585.509 218.213 574.301 230.741C566.859 239.06 561.146 248.747 557.489 259.249C553.832 269.751 552.303 280.863 552.988 291.95C553.673 303.037 556.56 313.881 561.483 323.865C566.405 333.848 573.268 342.775 581.679 350.135Z" fill="#263238"/>
<g opacity="0.5">
<path opacity="0.5" d="M579.934 235.117L697.317 337.847C693.397 342.325 688.967 346.339 684.115 349.811L569.618 249.541C572.489 244.36 575.951 239.52 579.934 235.117Z" fill="white"/>
</g>
<path d="M558.403 362.799L571.778 374.506C572.751 375.356 574.024 375.789 575.319 375.712C576.615 375.636 577.827 375.054 578.69 374.096C579.54 373.13 579.973 371.873 579.895 370.594C579.818 369.316 579.236 368.119 578.275 367.26L564.9 355.553C563.925 354.706 562.651 354.275 561.355 354.355C560.06 354.435 558.849 355.02 557.988 355.98C557.131 356.94 556.693 358.196 556.77 359.475C556.848 360.753 557.435 361.949 558.403 362.799Z" fill="#263238"/>
<path d="M563.328 360.629C553.254 369.396 543.612 378.557 534.09 387.837C524.569 397.117 515.272 406.636 506.079 416.104C496.886 425.572 487.866 435.348 478.915 445.158C470.517 455.412 459.078 463 457.367 479.1C457.233 480.387 457.411 481.688 457.886 482.894C458.361 484.1 459.12 485.177 460.1 486.035C461.079 486.893 462.251 487.509 463.519 487.83C464.786 488.152 466.113 488.17 467.389 487.884C483.356 484.244 489.56 472.093 498.822 462.59C507.554 452.621 516.159 442.56 524.638 432.409C533.117 422.257 541.44 411.94 549.608 401.458C557.764 390.998 565.782 380.419 573.368 369.464C574.341 368.123 574.778 366.472 574.594 364.831C574.41 363.19 573.618 361.674 572.37 360.576C571.123 359.478 569.509 358.876 567.839 358.886C566.169 358.896 564.562 359.516 563.328 360.629Z" fill="#263238"/>
<path d="M520.508 223.034C520.767 224.196 521.597 224.999 522.374 224.743C523.152 224.486 523.549 223.495 523.29 222.35C523.031 221.205 522.202 220.385 521.424 220.641C520.646 220.897 520.249 221.871 520.508 223.034Z" fill="#263238"/>
<path d="M533.762 220.128C534.021 221.291 534.868 222.094 535.628 221.923C536.389 221.752 536.803 220.675 536.544 219.513C536.285 218.351 535.455 217.548 534.678 217.719C533.9 217.89 533.503 218.966 533.762 220.128Z" fill="#263238"/>
<path d="M534.35 217.855L536.993 216.437C536.993 216.437 536.043 218.932 534.35 217.855Z" fill="#263238"/>
<path d="M530.15 223.119C531.79 225.532 533.755 227.711 535.991 229.596C535.489 230.153 534.87 230.594 534.177 230.889C533.485 231.184 532.736 231.326 531.982 231.305L530.15 223.119Z" fill="#A0602F"/>
<path d="M526.608 237.236C527.19 237.195 527.768 237.109 528.336 236.979C528.38 236.969 528.422 236.951 528.459 236.925C528.496 236.898 528.527 236.865 528.551 236.827C528.576 236.789 528.592 236.747 528.599 236.703C528.607 236.658 528.605 236.613 528.595 236.569C528.585 236.525 528.566 236.484 528.54 236.447C528.513 236.411 528.48 236.38 528.441 236.356C528.403 236.332 528.36 236.316 528.315 236.309C528.271 236.301 528.225 236.303 528.18 236.313C526.728 236.661 525.213 236.668 523.758 236.333C522.302 235.998 520.947 235.329 519.8 234.382C519.77 234.336 519.731 234.298 519.685 234.27C519.639 234.241 519.587 234.224 519.533 234.218C519.479 234.212 519.424 234.218 519.373 234.236C519.322 234.254 519.276 234.283 519.237 234.321C519.199 234.359 519.169 234.405 519.151 234.456C519.133 234.506 519.127 234.56 519.133 234.614C519.139 234.667 519.157 234.718 519.185 234.764C519.214 234.81 519.253 234.848 519.298 234.877C520.298 235.729 521.459 236.376 522.714 236.781C523.969 237.186 525.292 237.341 526.608 237.236Z" fill="#263238"/>
<path d="M495.746 238.312C496.542 239.475 497.563 240.47 498.749 241.241C499.935 242.013 501.263 242.545 502.658 242.807C506.39 243.491 507.842 240.107 506.58 236.808C505.405 233.834 502.018 229.972 498.424 230.724C497.642 230.916 496.92 231.298 496.324 231.836C495.728 232.373 495.276 233.049 495.011 233.802C494.745 234.555 494.673 235.362 494.801 236.149C494.93 236.936 495.254 237.68 495.746 238.312Z" fill="#FBCABA"/>
<path d="M514.944 217.923C515.084 217.966 515.235 217.964 515.374 217.918C515.513 217.872 515.635 217.784 515.722 217.667C517.64 215.052 521.856 215.086 521.891 215.086C522.078 215.086 522.259 215.013 522.392 214.881C522.524 214.75 522.599 214.572 522.599 214.386C522.601 214.295 522.585 214.204 522.551 214.119C522.518 214.034 522.467 213.957 522.403 213.891C522.338 213.826 522.261 213.774 522.176 213.739C522.091 213.703 522 213.685 521.908 213.685C521.7 213.685 516.931 213.685 514.581 216.847C514.472 216.997 514.427 217.183 514.456 217.366C514.485 217.548 514.586 217.712 514.737 217.821L514.944 217.923Z" fill="#263238"/>
<path d="M536.527 210.523C536.649 210.515 536.767 210.476 536.869 210.41C536.972 210.344 537.056 210.254 537.114 210.147C537.199 209.982 537.213 209.79 537.155 209.614C537.097 209.437 536.97 209.291 536.803 209.207C535.815 208.683 534.716 208.399 533.595 208.378C532.474 208.357 531.365 208.601 530.358 209.088C530.198 209.184 530.083 209.337 530.034 209.515C529.986 209.693 530.009 209.883 530.099 210.045C530.192 210.206 530.347 210.323 530.529 210.371C530.71 210.419 530.903 210.394 531.066 210.301C531.868 209.927 532.748 209.746 533.634 209.773C534.52 209.799 535.387 210.033 536.164 210.455C536.279 210.502 536.402 210.525 536.527 210.523Z" fill="#263238"/>
<path d="M507.302 694.086L507.51 694.002C507.79 693.806 508.015 693.544 508.163 693.238C508.311 692.932 508.377 692.594 508.356 692.256C508.373 692.045 508.332 691.834 508.238 691.644C508.143 691.455 507.998 691.295 507.818 691.181C506.221 690.165 501.303 692.359 500.757 692.617C500.691 692.641 500.636 692.685 500.599 692.744C500.562 692.802 500.546 692.871 500.554 692.939C500.557 693.007 500.58 693.073 500.619 693.129C500.659 693.185 500.714 693.229 500.778 693.255C502.507 693.959 505.676 694.984 507.302 694.086ZM501.773 692.907C503.772 692.098 506.534 691.239 507.37 691.768C507.444 691.825 507.502 691.901 507.538 691.987C507.573 692.073 507.585 692.167 507.573 692.259C507.59 692.484 507.549 692.71 507.455 692.916C507.361 693.122 507.216 693.301 507.033 693.437C506.207 694.012 504.264 693.783 501.773 692.907Z" fill="#333333"/>
<path d="M501.501 693.018C503.127 692.12 505.736 689.716 505.602 688.219C505.588 687.942 505.477 687.678 505.29 687.472C505.103 687.265 504.85 687.128 504.573 687.084C504.313 687.01 504.04 686.992 503.774 687.033C503.507 687.074 503.252 687.173 503.028 687.322C501.218 688.497 500.565 692.695 500.528 692.876C500.524 692.935 500.534 692.995 500.557 693.049C500.579 693.104 500.614 693.153 500.659 693.193C500.709 693.229 500.768 693.252 500.83 693.259C500.892 693.267 500.954 693.258 501.012 693.234C501.182 693.177 501.345 693.105 501.501 693.018ZM503.491 687.854C503.763 687.707 504.083 687.67 504.382 687.752C504.823 687.869 504.892 688.081 504.887 688.25C504.94 689.281 502.926 691.407 501.354 692.302C501.638 690.913 502.326 688.603 503.402 687.909L503.491 687.854Z" fill="#333333"/>
<path d="M549.21 694.081C550.484 694.2 551.76 693.88 552.822 693.175C553.064 692.965 553.249 692.699 553.36 692.401C553.472 692.102 553.507 691.781 553.461 691.466C553.453 691.275 553.395 691.089 553.292 690.927C553.189 690.765 553.045 690.633 552.874 690.543C551.042 689.535 545.098 692.543 544.441 692.884C544.376 692.918 544.324 692.971 544.29 693.035C544.256 693.099 544.242 693.172 544.251 693.243C544.258 693.315 544.289 693.383 544.339 693.436C544.389 693.488 544.455 693.523 544.527 693.534C546.067 693.864 547.635 694.047 549.21 694.081ZM551.871 691.039C552.097 691.026 552.322 691.067 552.528 691.158C552.596 691.197 552.654 691.251 552.696 691.317C552.738 691.382 552.764 691.457 552.77 691.534C552.796 691.741 552.772 691.952 552.7 692.148C552.628 692.344 552.51 692.52 552.355 692.662C551.457 693.466 549.003 693.602 545.702 693.055C547.629 692.044 549.715 691.363 551.871 691.039Z" fill="#333333"/>
<path d="M544.597 693.568H544.735C546.463 692.782 550.022 689.603 549.746 687.928C549.746 687.535 549.4 687.04 548.433 686.937C548.082 686.9 547.727 686.935 547.391 687.041C547.055 687.147 546.744 687.321 546.48 687.552C544.597 689.091 544.251 693.056 544.251 693.226C544.241 693.286 544.249 693.346 544.274 693.401C544.298 693.455 544.338 693.502 544.389 693.534C544.453 693.568 544.525 693.58 544.597 693.568ZM548.139 687.587H548.364C549.003 687.587 549.038 687.911 549.055 687.997C549.228 688.988 546.843 691.5 545.029 692.577C545.168 690.903 545.833 689.314 546.929 688.031C547.259 687.734 547.693 687.575 548.139 687.587Z" fill="#333333"/>
<path d="M521.096 220.777L523.74 219.342C523.74 219.342 522.789 221.837 521.096 220.777Z" fill="#263238"/>
<path d="M492.912 358.099L491.374 363.448C491.167 363.876 491.651 364.303 492.359 364.303H554.688C555.224 364.303 555.673 364.03 555.708 363.688L556.26 358.339C556.26 357.963 555.828 357.655 555.224 357.655H493.966C493.766 357.625 493.561 357.65 493.375 357.729C493.189 357.807 493.029 357.936 492.912 358.099Z" fill="#333333"/>
<path opacity="0.2" d="M492.912 358.099L491.374 363.448C491.167 363.876 491.651 364.303 492.359 364.303H554.688C555.224 364.303 555.673 364.03 555.708 363.688L556.26 358.339C556.26 357.963 555.828 357.655 555.224 357.655H493.966C493.766 357.625 493.561 357.65 493.375 357.729C493.189 357.807 493.029 357.936 492.912 358.099Z" fill="black"/>
<path d="M501.345 364.867H499.703C499.375 364.867 499.133 364.714 499.15 364.508L499.928 357.553C499.928 357.348 500.239 357.177 500.55 357.177H502.278C502.606 357.177 502.865 357.348 502.831 357.553L502.07 364.508C501.967 364.714 501.673 364.867 501.345 364.867Z" fill="#333333"/>
<path opacity="0.4" d="M501.345 364.867H499.703C499.375 364.867 499.133 364.714 499.15 364.508L499.928 357.553C499.928 357.348 500.239 357.177 500.55 357.177H502.278C502.606 357.177 502.865 357.348 502.831 357.553L502.07 364.508C501.967 364.714 501.673 364.867 501.345 364.867Z" fill="white"/>
<path d="M550.005 364.867H548.364C548.035 364.867 547.793 364.714 547.811 364.508L548.571 357.553C548.571 357.348 548.882 357.177 549.21 357.177H550.852C551.18 357.177 551.422 357.348 551.405 357.553L550.645 364.508C550.61 364.714 550.334 364.867 550.005 364.867Z" fill="#333333"/>
<path opacity="0.4" d="M550.005 364.867H548.364C548.035 364.867 547.793 364.714 547.811 364.508L548.571 357.553C548.571 357.348 548.882 357.177 549.21 357.177H550.852C551.18 357.177 551.422 357.348 551.405 357.553L550.645 364.508C550.61 364.714 550.334 364.867 550.005 364.867Z" fill="white"/>
<path d="M525.779 364.867H524.051C523.722 364.867 523.48 364.714 523.498 364.508L524.258 357.553C524.258 357.348 524.569 357.177 524.897 357.177H526.539C526.867 357.177 527.109 357.348 527.092 357.553L526.332 364.508C526.383 364.714 526.107 364.867 525.779 364.867Z" fill="#333333"/>
<path opacity="0.4" d="M525.779 364.867H524.051C523.722 364.867 523.48 364.714 523.498 364.508L524.258 357.553C524.258 357.348 524.569 357.177 524.897 357.177H526.539C526.867 357.177 527.109 357.348 527.092 357.553L526.332 364.508C526.383 364.714 526.107 364.867 525.779 364.867Z" fill="white"/>
<path d="M530.168 373.549L544.856 367.055L540.674 381.462C540.674 381.462 531.343 383.547 527.282 378.916L530.168 373.549Z" fill="#FBCABA"/>
<path d="M476.047 290.028C475.373 295.07 474.837 300.146 474.232 305.188L472.677 320.398C472.124 325.525 471.709 330.533 471.225 335.609L470.586 343.214L470.413 345.128C470.413 345.316 470.413 346.102 470.413 346.649C470.413 347.196 470.413 347.828 470.413 348.358C470.671 350.531 471.371 352.629 472.47 354.528C474.249 357.452 476.598 359.996 479.382 362.013C481.715 363.754 484.189 365.303 486.777 366.645C491.618 369.119 496.651 371.205 501.828 372.883C506.891 374.592 511.972 376.01 517.069 377.275C522.167 378.54 527.265 379.582 532.535 380.386L534.263 373.122C529.511 371.567 524.655 369.977 519.938 368.183C515.22 366.388 510.503 364.628 505.976 362.594C501.519 360.665 497.201 358.439 493.05 355.929C491.136 354.786 489.322 353.488 487.624 352.05C486.293 350.983 485.184 349.671 484.358 348.187C484.178 347.862 484.083 347.498 484.082 347.128C484.082 347.128 484.082 347.128 484.082 346.991C484.082 346.854 484.082 346.991 484.082 346.615L484.358 344.735L485.464 337.164C486.138 332.037 486.898 327.063 487.521 322.005L489.473 306.845C490.026 301.718 490.665 296.728 491.201 291.652L476.047 290.028Z" fill="#FBCABA"/>
<path d="M483.097 272.288C477.049 274.1 469.757 294.745 469.757 294.745L490.959 316.331C490.959 316.331 501.846 294.113 499.306 286.388C496.644 278.321 490.009 270.203 483.097 272.288Z" fill="#333333"/>
<path d="M557.003 370.046L552.856 381.906L540.674 381.462L544.856 367.055L557.003 370.046Z" fill="#FBCABA"/>
</svg>
