<svg width="563" height="488" viewBox="0 0 563 488" fill="none" xmlns="http://www.w3.org/2000/svg">
<g clip-path="url(#clip0_73:24)">
<path d="M196.647 208.37C221.988 202.958 248.853 203.647 273.584 195.739C306.956 185.285 332.793 160.984 360.743 141.116C388.992 121.524 425.021 105.501 458.503 115.598C503.046 128.969 518.836 179.432 527.719 222.155C537.215 267.652 546.71 313.149 556.207 358.923C561.41 383.058 566.028 409.418 553.61 431.425C537.94 459.281 501.281 469.198 468.179 474.373C336.669 495.628 -9.76254 511.92 87.2701 294.217C106.144 251.624 148.35 218.626 196.647 208.37Z" fill="#1F0744"/>
</g>
<path d="M171.798 440.303C171.798 440.303 149.983 444.089 148.919 444.089C140.14 444.594 103.959 454.944 105.023 462.013C105.555 463.023 110.61 464.285 112.738 460.751C120.187 464.032 122.847 463.023 127.902 461.003C131.361 459.741 134.287 458.984 137.213 461.76C139.874 464.537 148.387 467.062 153.176 464.537C157.432 462.265 155.836 458.479 159.028 455.449C159.295 455.197 180.577 450.4 181.11 450.148C185.1 447.119 173.395 439.545 171.798 440.303Z" fill="#F4A082"/>
<path fill-rule="evenodd" clip-rule="evenodd" d="M458.32 206.284C458.32 206.284 451.669 177.758 426.129 170.184C406.709 164.378 372.656 163.873 359.62 191.895C344.988 223.956 365.473 220.674 355.896 234.811C346.318 248.948 331.686 244.656 329.026 256.016C326.366 267.376 337.007 283.028 333.815 289.339C330.356 295.65 313.596 307.263 317.852 317.361C322.907 329.478 333.283 332.507 329.558 338.819C322.375 350.936 309.605 348.664 311.468 351.441C313.33 354.218 353.235 370.627 366.271 357.5C376.114 347.907 371.326 332.255 372.922 324.934C376.381 310.292 398.728 303.224 412.828 297.922C427.194 292.621 428.79 272.678 432.78 263.337C437.037 254.249 466.301 255.006 458.32 206.284Z" fill="#753324"/>
<path d="M424.799 176.496C412.828 170.185 381.967 167.913 368.666 195.934C356.162 222.441 375.316 229.257 365.739 243.142C356.162 257.026 340.998 253.745 338.337 265.105C335.677 276.465 346.318 287.067 342.86 293.379C339.401 299.69 323.971 307.768 328.228 317.613C333.283 329.731 344.19 333.013 324.769 350.684" stroke="#01080A" stroke-miterlimit="10" stroke-linecap="round" stroke-linejoin="round"/>
<path d="M361.216 190.38C346.584 217.391 359.354 216.382 349.511 231.528C339.667 246.675 325.833 243.393 322.907 255.511C319.981 267.628 332.218 282.27 328.76 289.086C325.301 295.902 311.201 306.252 318.118 317.108" stroke="#01080A" stroke-miterlimit="10" stroke-linecap="round" stroke-linejoin="round"/>
<path d="M427.725 183.816C415.754 177.505 412.561 188.36 375.582 197.196C363.079 223.703 385.692 232.033 376.114 246.17C366.537 260.307 351.373 256.773 348.713 268.133C346.052 279.493 356.694 290.096 353.235 296.407C349.777 302.718 334.347 310.797 338.603 320.642C343.658 332.759 354.565 336.041 335.145 353.712" stroke="#01080A" stroke-miterlimit="10" stroke-linecap="round" stroke-linejoin="round"/>
<path d="M396.067 203.76C381.967 229.509 404.314 239.102 393.939 252.734C383.564 266.367 368.665 262.075 365.207 273.183C362.015 284.29 372.124 295.398 368.399 301.709C364.675 308.02 348.713 315.089 352.437 325.439C356.96 337.809 363.345 338.314 342.86 355.228" stroke="#01080A" stroke-miterlimit="10" stroke-linecap="round" stroke-linejoin="round"/>
<path d="M419.213 211.081C402.452 235.316 423.469 246.928 411.764 259.55C400.058 272.173 385.426 266.366 381.169 277.222C376.647 288.077 385.426 299.942 381.169 305.748C376.647 311.554 360.152 317.108 362.813 327.711C366.005 340.333 372.124 341.595 350.043 356.49" stroke="#01080A" stroke-miterlimit="10" stroke-linecap="round" stroke-linejoin="round"/>
<path d="M404.049 232.034C402.984 237.588 402.452 259.045 399.526 258.541C398.462 258.288 390.215 259.298 388.884 259.298C379.573 260.56 363.345 258.541 359.886 267.124C356.694 274.697 389.683 302.971 384.628 321.652C382.5 329.478 373.986 356.49 373.454 364.568C411.498 371.132 451.137 365.073 450.605 362.043C450.605 342.1 439.964 332.002 442.092 315.593C443.688 313.574 449.275 296.912 449.541 291.863C449.807 287.067 474.016 271.415 461.513 263.589C445.816 253.997 426.396 260.813 425.864 257.278C425.332 253.744 425.598 244.656 424.267 234.811C422.937 225.975 405.113 226.227 404.049 232.034Z" fill="#F4A082"/>
<path opacity="0.6" d="M422.937 239.102C422.937 243.141 415.754 249.2 409.103 248.948C402.452 248.948 402.394 246.39 403.053 242.165C403.053 238.126 402.186 233.801 408.837 233.801C415.754 234.053 422.937 234.811 422.937 239.102Z" fill="#DB8C70"/>
<path d="M390.48 212.343C390.48 212.343 386.224 208.052 385.958 213.353C385.426 224.461 392.343 225.976 393.141 226.228C394.205 226.48 390.48 212.343 390.48 212.343Z" fill="#F4A082"/>
<path d="M437.303 212.595C437.303 212.595 441.56 208.303 441.826 213.605C442.358 224.712 435.441 226.227 434.643 226.48C433.579 226.732 437.303 212.595 437.303 212.595Z" fill="#F4A082"/>
<path fill-rule="evenodd" clip-rule="evenodd" d="M390.747 201.488C390.215 205.274 389.683 209.818 389.949 214.615C389.949 237.083 404.049 243.141 416.286 243.394C432.515 244.151 440.496 222.946 438.899 210.576C437.835 202.75 436.771 199.216 434.111 194.419C424.799 181.797 427.46 191.642 390.747 201.488Z" fill="#F4A082"/>
<path d="M449.762 283.409C445.941 278.17 442.83 268.122 441.682 263.596C440.535 259.071 439.457 258.331 439.457 258.331C439.457 258.331 436.251 257.627 435.201 258.401C435.481 259.154 443.295 278.971 440.672 281.034C438.576 282.836 419.33 292.497 411.933 295.397C404.434 292.744 383.515 283.748 381.355 282.016C378.924 280.037 385.503 260.451 385.755 259.69C384.107 259.377 381.636 259.69 381.636 259.69C381.636 259.69 380.686 260.061 379.705 264.622C378.724 269.183 377.3 278.549 374.215 284.407C369.337 294.082 369.55 305.693 379.568 315.121C380.109 315.617 380.944 317.624 381.494 318.624C382.316 319.873 379.994 338.343 379.994 338.343C398.225 345.868 436.487 342.962 446.227 337.246C446.227 337.246 445.264 313.781 445.787 313.268C454.701 306.051 453.583 288.648 449.762 283.409Z" fill="#FFD2B9"/>
<path d="M414.424 206.032C415.754 211.586 414.69 217.392 414.158 218.402C413.094 219.916 410.433 218.654 410.699 219.916C411.231 222.946 415.222 223.198 417.084 221.936" stroke="#EFAFA3" stroke-width="1.38" stroke-miterlimit="10" stroke-linecap="round" stroke-linejoin="round"/>
<path opacity="0.69" d="M396.865 204.265C398.462 203.507 401.92 203.003 404.581 204.012" stroke="#682C1A" stroke-width="1.31" stroke-miterlimit="10" stroke-linecap="round" stroke-linejoin="round"/>
<path d="M405.379 212.343C404.049 214.362 399.26 214.615 397.664 212.595" stroke="#AE4F38" stroke-miterlimit="10" stroke-linecap="round" stroke-linejoin="round"/>
<path d="M431.45 212.596C430.12 214.615 425.331 214.868 423.735 212.848" stroke="#AE4F38" stroke-miterlimit="10" stroke-linecap="round" stroke-linejoin="round"/>
<path opacity="0.69" d="M430.918 204.518C429.322 203.76 425.598 203.255 422.937 204.265" stroke="#682C1A" stroke-width="1.31" stroke-miterlimit="10" stroke-linecap="round" stroke-linejoin="round"/>
<path d="M408.837 229.069C409.369 230.079 415.754 233.108 420.011 228.816" stroke="#BC4926" stroke-width="1.45" stroke-miterlimit="10" stroke-linecap="round" stroke-linejoin="round"/>
<path opacity="0.24" fill-rule="evenodd" clip-rule="evenodd" d="M404.847 221.684C403.782 223.703 400.324 224.208 397.132 223.198C393.939 221.936 392.343 219.412 393.673 217.392C394.737 215.373 398.196 214.868 401.388 215.878C404.581 217.14 405.911 219.664 404.847 221.684Z" fill="#ED5851"/>
<path opacity="0.24" fill-rule="evenodd" clip-rule="evenodd" d="M424.799 221.936C426.129 223.703 429.588 224.208 432.514 222.694C435.441 221.179 436.771 218.655 435.441 216.635C434.111 214.868 430.652 214.363 427.726 215.878C424.533 217.392 423.203 220.169 424.799 221.936Z" fill="#ED5851"/>
<path d="M413.626 362.296C413.626 363.558 413.094 364.82 412.296 364.82C411.498 364.82 410.966 363.81 410.966 362.296C410.966 361.034 411.498 359.771 412.296 359.771C412.828 360.024 413.626 361.034 413.626 362.296Z" fill="#EFAFA3"/>
<path d="M387.288 190.38C391.279 184.069 408.305 173.719 425.598 175.486" stroke="#01080A" stroke-miterlimit="10" stroke-linecap="round" stroke-linejoin="round"/>
<path d="M528.554 304.738C531.214 296.66 521.637 283.785 508.867 288.834C493.171 292.621 449.541 352.45 449.541 352.45C449.541 352.45 419.213 362.296 374.784 355.227C373.188 358.762 368.4 368.859 368.4 368.859C368.4 368.859 329.026 389.055 270.498 414.3C247.619 424.145 171.532 439.292 171.532 440.049C171.532 442.574 171.532 451.409 171.532 451.409C171.532 451.409 261.187 461.002 288.855 432.728C288.855 432.728 360.951 426.165 414.158 402.94C452.467 405.969 467.631 386.026 491.043 358.762C509.399 337.304 524.297 317.613 528.554 304.738Z" fill="#700A3B"/>
<path d="M505.143 400.668C505.143 400.668 500.088 420.612 499.822 421.621C499.29 426.67 501.95 435.253 496.629 454.692C505.675 455.954 502.748 462.77 496.097 462.77C477.209 462.77 482.263 451.41 485.19 443.584C486.52 440.05 484.658 436.263 481.731 433.739C478.805 431.214 475.612 423.388 478.007 418.844C480.401 414.805 485.988 415.815 488.914 412.786C489.18 412.533 488.648 395.619 488.914 395.114C492.107 390.57 505.675 399.154 505.143 400.668Z" fill="#F4A082"/>
<path d="M528.554 300.194C532.012 325.943 504.877 389.56 504.877 411.27C504.877 411.27 494.235 415.814 488.648 410.008C489.446 391.327 473.218 358.004 499.024 324.934C514.72 304.485 518.976 306 528.554 300.194Z" fill="#700A3B"/>
<path d="M359.886 267.124C356.162 270.154 336.209 347.402 342.594 350.431C349.245 353.461 413.626 323.42 413.626 323.42C413.626 323.42 412.296 289.339 412.296 280.504C408.571 279.999 404.048 316.351 404.048 316.351C404.048 316.351 365.207 330.236 363.079 332.003C360.95 333.77 372.39 287.572 374.784 284.038C375.583 280.504 363.877 264.347 359.886 267.124Z" fill="#F4A082"/>
<path d="M464.173 267.124C467.897 270.154 487.85 347.402 481.465 350.431C474.814 353.461 410.699 323.42 410.699 323.42C410.699 323.42 412.03 289.339 412.03 280.504C415.754 279.999 420.277 316.351 420.277 316.351C420.277 316.351 459.118 330.236 461.246 332.003C463.375 333.77 451.935 287.572 449.541 284.038C448.477 280.504 460.448 264.347 464.173 267.124Z" fill="#F4A082"/>
<path d="M412.03 323.924L412.296 279.494" stroke="#DB8C70" stroke-width="1.38" stroke-miterlimit="10" stroke-linecap="round" stroke-linejoin="round"/>
<path d="M415.754 354.47C415.754 355.732 414.956 356.742 414.158 356.742C413.36 356.742 412.828 355.48 412.828 354.217C412.828 352.955 413.626 351.945 414.424 351.945C415.222 351.945 416.02 352.955 415.754 354.47Z" fill="#DB8C70"/>
<path opacity="0.56" d="M518.821 464.607C518.836 465.929 429.043 467.925 318.179 469.019C207.316 470.113 117.5 469.943 117.485 468.569C117.47 467.248 207.262 465.252 318.125 464.158C428.99 463.063 518.807 463.286 518.821 464.607Z" fill="black" fill-opacity="0.2"/>
<defs>
<clipPath id="clip0_73:24">
<rect width="372.708" height="491.268" fill="white" transform="matrix(0.00534047 0.999986 0.999986 -0.00534047 69 114.624)"/>
</clipPath>
</defs>
</svg>
