<svg width="246" height="66" viewBox="0 0 246 66" fill="none" xmlns="http://www.w3.org/2000/svg">
<path d="M25.1484 22.2578C25.1484 23.0391 25 23.75 24.7031 24.3906C24.4219 25.0156 24.0234 25.5547 23.5078 26.0078C22.9922 26.4609 22.3828 26.8125 21.6797 27.0625C20.9922 27.3125 20.2422 27.4375 19.4297 27.4375C18.5391 27.4375 17.7734 27.3281 17.1328 27.1094C16.5078 26.8906 15.9766 26.6172 15.5391 26.2891C15.1172 25.9453 14.7812 25.5703 14.5312 25.1641C14.2812 24.7422 14.0859 24.3359 13.9453 23.9453C13.8203 23.5547 13.7344 23.1953 13.6875 22.8672C13.6562 22.5391 13.6406 22.2891 13.6406 22.1172C13.8281 22.4297 14.0469 22.6328 14.2969 22.7266C14.5469 22.8047 14.7578 22.8438 14.9297 22.8438C15.3672 22.8438 15.6719 22.7266 15.8438 22.4922C16.0312 22.2578 16.125 22.0078 16.125 21.7422C16.125 21.5703 16.0859 21.3906 16.0078 21.2031C15.9453 21.0156 15.8203 20.8438 15.6328 20.6875C15.4609 20.5156 15.2188 20.375 14.9062 20.2656C14.6094 20.1562 14.2344 20.1016 13.7812 20.1016C13.4688 20.1016 13.1484 20.1641 12.8203 20.2891C12.4922 20.3984 12.1875 20.5781 11.9062 20.8281C11.6406 21.0625 11.4219 21.3594 11.25 21.7188C11.0781 22.0781 10.9922 22.5 10.9922 22.9844C10.9922 23.4531 11.0859 23.9219 11.2734 24.3906C11.4766 24.8438 11.7422 25.2734 12.0703 25.6797C12.4141 26.0859 12.8125 26.4531 13.2656 26.7812C13.7344 27.1094 14.2422 27.3828 14.7891 27.6016C15.6484 27.9609 16.5312 28.3125 17.4375 28.6562C18.3594 29 19.25 29.375 20.1094 29.7812C20.9688 30.1875 21.7734 30.6562 22.5234 31.1875C23.2891 31.7031 23.9531 32.3203 24.5156 33.0391C25.0938 33.7578 25.5469 34.6016 25.875 35.5703C26.2188 36.5234 26.3906 37.6406 26.3906 38.9219C26.3906 40.75 26.0156 42.4219 25.2656 43.9375C24.5312 45.4375 23.5391 46.7266 22.2891 47.8047C21.0547 48.8672 19.6172 49.6875 17.9766 50.2656C16.3516 50.8594 14.6484 51.1562 12.8672 51.1562C11.2578 51.1562 9.72656 50.9141 8.27344 50.4297C6.82031 49.9609 5.54688 49.3125 4.45312 48.4844C3.35938 47.6562 2.48438 46.6875 1.82812 45.5781C1.1875 44.4531 0.867188 43.2422 0.867188 41.9453C0.867188 40.9922 1.02344 40.1562 1.33594 39.4375C1.64844 38.7188 2.07812 38.125 2.625 37.6562C3.1875 37.1719 3.83594 36.8125 4.57031 36.5781C5.32031 36.3438 6.11719 36.2266 6.96094 36.2266C7.61719 36.2266 8.25781 36.2969 8.88281 36.4375C9.52344 36.5781 10.1172 36.7891 10.6641 37.0703C11.2266 37.3359 11.7266 37.6641 12.1641 38.0547C12.6172 38.4453 12.9766 38.8906 13.2422 39.3906C12.9141 39.2969 12.625 39.25 12.375 39.25C11.9531 39.25 11.6172 39.375 11.3672 39.625C11.1172 39.875 10.9922 40.25 10.9922 40.75C10.9922 41.0156 11.0547 41.2656 11.1797 41.5C11.3047 41.7188 11.4609 41.9141 11.6484 42.0859C11.8516 42.2578 12.0781 42.3906 12.3281 42.4844C12.5938 42.5781 12.8672 42.625 13.1484 42.625C13.4609 42.625 13.75 42.5625 14.0156 42.4375C14.2812 42.2969 14.5156 42.1172 14.7188 41.8984C14.9219 41.6797 15.0781 41.4375 15.1875 41.1719C15.2969 40.9062 15.3516 40.6328 15.3516 40.3516C15.3516 39.8047 15.1797 39.25 14.8359 38.6875C14.5078 38.125 14.0234 37.625 13.3828 37.1875C12.1641 36.4375 11.0156 35.7891 9.9375 35.2422C8.85938 34.6953 7.86719 34.1797 6.96094 33.6953C6.05469 33.1953 5.23438 32.6953 4.5 32.1953C3.78125 31.6953 3.16406 31.1172 2.64844 30.4609C2.14844 29.8047 1.76562 29.0391 1.5 28.1641C1.23438 27.2734 1.10156 26.2031 1.10156 24.9531C1.10156 23.4531 1.39062 22.0469 1.96875 20.7344C2.54688 19.4219 3.38281 18.2812 4.47656 17.3125C5.58594 16.3281 6.9375 15.5547 8.53125 14.9922C10.125 14.4297 11.9375 14.1484 13.9688 14.1484C16.0156 14.1484 17.75 14.3984 19.1719 14.8984C20.5938 15.3828 21.7422 16.0156 22.6172 16.7969C23.5078 17.5781 24.1484 18.4531 24.5391 19.4219C24.9453 20.375 25.1484 21.3203 25.1484 22.2578ZM46.6406 20.5469C46.5156 21.25 46.4219 21.9375 46.3594 22.6094C46.3125 23.2812 46.2891 23.9688 46.2891 24.6719C46.2891 25.3438 46.3125 26.0234 46.3594 26.7109C46.4219 27.3828 46.5156 28.0625 46.6406 28.75C45.8906 28.3594 45.0391 28.0703 44.0859 27.8828C43.1484 27.6953 42.1875 27.5469 41.2031 27.4375V29.4531C41.2031 31.2188 41.2344 33.0078 41.2969 34.8203C41.3594 36.6172 41.4609 38.3672 41.6016 40.0703C41.7422 41.7578 41.9219 43.3594 42.1406 44.875C42.375 46.3906 42.6562 47.7344 42.9844 48.9062C42.7188 48.8906 42.4062 48.8672 42.0469 48.8359C41.7344 48.8203 41.3672 48.8047 40.9453 48.7891C40.5234 48.7734 40.0391 48.7656 39.4922 48.7656C38.4766 48.7656 37.3047 48.8125 35.9766 48.9062C34.6484 48.9844 33.2109 49.1406 31.6641 49.375C32.1953 46.3281 32.5703 43.1641 32.7891 39.8828C33.0234 36.5859 33.1406 33.3672 33.1406 30.2266V27.4375C32.0781 27.5156 31.0234 27.6406 29.9766 27.8125C28.9453 27.9688 27.9688 28.1641 27.0469 28.3984C27.1094 28.2266 27.1641 28 27.2109 27.7188C27.2578 27.4375 27.2891 27.1484 27.3047 26.8516C27.3359 26.5547 27.3516 26.2656 27.3516 25.9844C27.3672 25.7031 27.375 25.4688 27.375 25.2812C27.375 24.4844 27.3438 23.6953 27.2812 22.9141C27.2188 22.1328 27.1406 21.3438 27.0469 20.5469C27.7969 20.8594 28.6875 21.1172 29.7188 21.3203C30.75 21.5078 31.7969 21.6484 32.8594 21.7422C32.7656 20.3828 32.6562 19.125 32.5312 17.9688C32.4062 16.8125 32.2578 15.7656 32.0859 14.8281C33.3516 15.0469 34.5234 15.1953 35.6016 15.2734C36.6797 15.3516 37.6562 15.3906 38.5312 15.3906C39.0938 15.3906 39.5938 15.3828 40.0312 15.3672C40.4844 15.3359 40.8672 15.3047 41.1797 15.2734C41.5547 15.2422 41.8828 15.2031 42.1641 15.1562C41.9922 15.9062 41.8438 16.8438 41.7188 17.9688C41.6094 19.0781 41.5 20.3203 41.3906 21.6953C42.4219 21.5859 43.3906 21.4375 44.2969 21.25C45.2188 21.0625 46 20.8281 46.6406 20.5469ZM69.0469 21.9766C68.9062 22.6797 68.7734 23.5 68.6484 24.4375C68.5391 25.375 68.4375 26.3906 68.3438 27.4844C68.2656 28.5625 68.2031 29.6953 68.1562 30.8828C68.1094 32.0547 68.0859 33.2266 68.0859 34.3984C68.0859 34.7891 68.0938 35.1797 68.1094 35.5703C68.125 35.9453 68.1328 36.3125 68.1328 36.6719C68.1328 37.4375 68.0859 38.3047 67.9922 39.2734C67.9141 40.2422 67.7422 41.2344 67.4766 42.25C67.2266 43.25 66.875 44.2344 66.4219 45.2031C65.9688 46.1719 65.3672 47.0312 64.6172 47.7812C63.8828 48.5312 62.9844 49.1328 61.9219 49.5859C60.8594 50.0547 59.6016 50.2891 58.1484 50.2891C56.8984 50.2891 55.7891 50.125 54.8203 49.7969C53.8672 49.4688 53.0312 49.0234 52.3125 48.4609C51.6094 47.8828 51.0156 47.2031 50.5312 46.4219C50.0469 45.6406 49.6562 44.8047 49.3594 43.9141C49.0625 43.0078 48.8438 42.0625 48.7031 41.0781C48.5781 40.0938 48.5156 39.1172 48.5156 38.1484C48.5156 37.9141 48.5156 37.7734 48.5156 37.7266C48.5312 37.6641 48.5391 37.625 48.5391 37.6094C48.5391 37.5938 48.5469 37.5703 48.5625 37.5391C48.5781 37.4922 48.5859 37.3672 48.5859 37.1641C48.5859 36.9609 48.5859 36.6406 48.5859 36.2031C48.6016 35.7656 48.6094 35.1484 48.6094 34.3516C48.6094 33.4141 48.5938 32.3594 48.5625 31.1875C48.5312 30 48.4609 28.8438 48.3516 27.7188C48.2578 26.5781 48.1172 25.5469 47.9297 24.625C47.7422 23.7031 47.5 23.0312 47.2031 22.6094C48.4688 22.8281 49.6562 22.9766 50.7656 23.0547C51.8906 23.1328 52.9141 23.1719 53.8359 23.1719C54.4453 23.1719 54.9922 23.1641 55.4766 23.1484C55.9766 23.1172 56.4062 23.0859 56.7656 23.0547C57.1719 23.0234 57.5391 22.9844 57.8672 22.9375C57.5547 24.4688 57.25 26.2109 56.9531 28.1641C56.6719 30.1016 56.5312 32.3281 56.5312 34.8438C56.5312 35.4219 56.5547 36.0234 56.6016 36.6484C56.6641 37.2734 56.7656 37.8516 56.9062 38.3828C57.0469 38.8984 57.2344 39.3281 57.4688 39.6719C57.7188 40 58.0312 40.1641 58.4062 40.1641C58.875 40.1641 59.2422 40.0078 59.5078 39.6953C59.7734 39.3828 59.9688 38.9766 60.0938 38.4766C60.2344 37.9609 60.3125 37.3906 60.3281 36.7656C60.3594 36.1406 60.375 35.5156 60.375 34.8906C60.3594 32.8594 60.2969 30.9609 60.1875 29.1953C60.1406 28.4453 60.0781 27.6875 60 26.9219C59.9375 26.1562 59.8594 25.4375 59.7656 24.7656C59.6719 24.0781 59.5625 23.4688 59.4375 22.9375C59.3125 22.3906 59.1719 21.9609 59.0156 21.6484C60.2812 21.8672 61.4531 22.0156 62.5312 22.0938C63.6094 22.1719 64.5703 22.2109 65.4141 22.2109C65.9766 22.2109 66.4766 22.2031 66.9141 22.1875C67.3672 22.1562 67.75 22.125 68.0625 22.0938C68.4375 22.0625 68.7656 22.0234 69.0469 21.9766ZM94.9453 49.3281C94.5859 49.2969 94.1797 49.2656 93.7266 49.2344C93.3359 49.2031 92.875 49.1797 92.3438 49.1641C91.8281 49.1484 91.2578 49.1406 90.6328 49.1406C89.7422 49.1406 88.7969 49.1719 87.7969 49.2344C86.7969 49.2969 85.8047 49.4141 84.8203 49.5859C84.9141 49.3984 85.0156 49.0078 85.125 48.4141C85.2344 47.8203 85.3359 47.1641 85.4297 46.4453C85.5391 45.7266 85.6328 45.0156 85.7109 44.3125C85.8047 43.6094 85.875 43.0625 85.9219 42.6719C85.6719 43.8438 85.3203 44.9141 84.8672 45.8828C84.4297 46.8359 83.9141 47.6562 83.3203 48.3438C82.7266 49.0156 82.0625 49.5391 81.3281 49.9141C80.5938 50.2891 79.8203 50.4766 79.0078 50.4766C78.6328 50.4766 78.1719 50.4531 77.625 50.4062C77.0781 50.3594 76.4922 50.2031 75.8672 49.9375C75.2578 49.6719 74.6406 49.2656 74.0156 48.7188C73.4062 48.1562 72.8516 47.375 72.3516 46.375C71.8672 45.3594 71.4688 44.0781 71.1562 42.5312C70.8594 40.9844 70.7109 39.0938 70.7109 36.8594C70.7109 34.9844 70.8438 33.3125 71.1094 31.8438C71.3906 30.3594 71.7578 29.0547 72.2109 27.9297C72.6797 26.8047 73.2188 25.8516 73.8281 25.0703C74.4531 24.2734 75.1016 23.625 75.7734 23.125C76.4609 22.625 77.1562 22.2656 77.8594 22.0469C78.5781 21.8125 79.2656 21.6953 79.9219 21.6953C80.6562 21.6953 81.3203 21.8203 81.9141 22.0703C82.5078 22.3047 83.0469 22.6172 83.5312 23.0078C84.0156 23.3828 84.4375 23.8203 84.7969 24.3203C85.1562 24.8047 85.4688 25.2891 85.7344 25.7734C85.7031 25.0547 85.6719 24.2734 85.6406 23.4297C85.6094 22.5859 85.5703 21.7344 85.5234 20.875C85.4766 20.0156 85.4141 19.1719 85.3359 18.3438C85.2734 17.5 85.1953 16.7188 85.1016 16C85.0234 15.2812 84.9297 14.6484 84.8203 14.1016C84.7109 13.5547 84.5859 13.1406 84.4453 12.8594C85.6953 13.0781 86.8594 13.2266 87.9375 13.3047C89.0156 13.3828 89.9922 13.4219 90.8672 13.4219C91.4297 13.4219 91.9375 13.4141 92.3906 13.3984C92.8438 13.3672 93.2266 13.3359 93.5391 13.3047C93.9141 13.2734 94.2422 13.2344 94.5234 13.1875C94.3516 13.9687 94.1953 14.9922 94.0547 16.2578C93.9141 17.5078 93.7891 18.9219 93.6797 20.5C93.5859 22.0781 93.5078 23.7734 93.4453 25.5859C93.3984 27.3828 93.375 29.2188 93.375 31.0938C93.375 32.8281 93.3984 34.5547 93.4453 36.2734C93.5078 37.9922 93.6016 39.6484 93.7266 41.2422C93.8516 42.8203 94.0156 44.3047 94.2188 45.6953C94.4219 47.0703 94.6641 48.2812 94.9453 49.3281ZM85.3125 35.8984V32.1016C85.3125 31.6797 85.2891 31.25 85.2422 30.8125C85.1953 30.375 85.0859 29.9766 84.9141 29.6172C84.7578 29.2578 84.5234 28.9688 84.2109 28.75C83.8984 28.5156 83.4766 28.3984 82.9453 28.3984C82.5703 28.3984 82.25 28.5469 81.9844 28.8438C81.7188 29.1406 81.5 29.5234 81.3281 29.9922C81.1562 30.4609 81.0156 30.9844 80.9062 31.5625C80.7969 32.1406 80.7188 32.7188 80.6719 33.2969C80.625 33.8594 80.5938 34.3906 80.5781 34.8906C80.5625 35.375 80.5547 35.7578 80.5547 36.0391C80.5547 36.4609 80.5703 36.9844 80.6016 37.6094C80.6484 38.2188 80.7422 38.8125 80.8828 39.3906C81.0234 39.9531 81.2344 40.4375 81.5156 40.8438C81.8125 41.25 82.2109 41.4531 82.7109 41.4531C83.2734 41.4531 83.7266 41.2578 84.0703 40.8672C84.4141 40.4766 84.6719 39.9922 84.8438 39.4141C85.0312 38.8359 85.1562 38.2344 85.2188 37.6094C85.2812 36.9688 85.3125 36.3984 85.3125 35.8984ZM119.859 22.0703C119.688 22.7266 119.539 23.5156 119.414 24.4375C119.305 25.3594 119.203 26.3516 119.109 27.4141C119.016 28.4766 118.938 29.5859 118.875 30.7422C118.828 31.8984 118.781 33.0234 118.734 34.1172C118.641 36.6953 118.586 39.4141 118.57 42.2734C118.57 43.8672 118.469 45.4375 118.266 46.9844C118.078 48.5312 117.766 49.9922 117.328 51.3672C116.906 52.7578 116.352 54.0391 115.664 55.2109C114.992 56.3984 114.164 57.4141 113.18 58.2578C112.211 59.1172 111.078 59.7891 109.781 60.2734C108.5 60.7578 107.047 61 105.422 61C103.906 61 102.594 60.8438 101.484 60.5312C100.375 60.2188 99.4531 59.7734 98.7188 59.1953C98 58.6328 97.4609 57.9531 97.1016 57.1562C96.7578 56.3594 96.5859 55.4844 96.5859 54.5312C96.5859 53.5781 96.75 52.7109 97.0781 51.9297C97.4062 51.1641 97.8359 50.5156 98.3672 49.9844C98.8984 49.4531 99.5 49.0469 100.172 48.7656C100.844 48.4688 101.523 48.3203 102.211 48.3203C103.086 48.3203 103.914 48.5703 104.695 49.0703C105.477 49.5703 106.07 50.3594 106.477 51.4375C106.383 51.3594 106.273 51.3047 106.148 51.2734C106.039 51.2578 105.922 51.25 105.797 51.25C105.625 51.25 105.445 51.2891 105.258 51.3672C105.086 51.4453 104.93 51.5547 104.789 51.6953C104.648 51.8359 104.531 51.9922 104.438 52.1641C104.359 52.3516 104.32 52.5469 104.32 52.75C104.32 52.9844 104.367 53.1797 104.461 53.3359C104.555 53.5078 104.664 53.6406 104.789 53.7344C104.93 53.8281 105.078 53.8906 105.234 53.9219C105.406 53.9688 105.562 53.9922 105.703 53.9922C105.922 53.9922 106.195 53.9453 106.523 53.8516C106.852 53.7578 107.188 53.5625 107.531 53.2656C107.891 52.9688 108.242 52.5547 108.586 52.0234C108.945 51.4922 109.258 50.7812 109.523 49.8906C109.805 49.0156 110.023 47.9453 110.18 46.6797C110.352 45.4141 110.43 43.8984 110.414 42.1328C110.008 43.2266 109.578 44.1172 109.125 44.8047C108.688 45.4766 108.219 46 107.719 46.375C107.234 46.75 106.719 47 106.172 47.125C105.641 47.25 105.07 47.3125 104.461 47.3125C103.695 47.3125 102.891 47.1797 102.047 46.9141C101.219 46.6328 100.453 46.1484 99.75 45.4609C99.0625 44.7578 98.4922 43.8047 98.0391 42.6016C97.5859 41.3984 97.3594 39.8672 97.3594 38.0078C97.3594 37.7578 97.3594 37.5859 97.3594 37.4922C97.375 37.3828 97.3828 37.3047 97.3828 37.2578C97.3828 37.1953 97.3906 37.125 97.4062 37.0469C97.4219 36.9688 97.4297 36.8203 97.4297 36.6016C97.4297 36.3672 97.4297 36.0391 97.4297 35.6172C97.4453 35.1953 97.4531 34.6016 97.4531 33.8359C97.4531 32.9453 97.4375 31.9375 97.4062 30.8125C97.375 29.6875 97.3047 28.5859 97.1953 27.5078C97.1016 26.4297 96.9609 25.4531 96.7734 24.5781C96.5859 23.6875 96.3438 23.0312 96.0469 22.6094C97.3125 22.8281 98.5 22.9766 99.6094 23.0547C100.734 23.1328 101.758 23.1719 102.68 23.1719C103.289 23.1719 103.836 23.1641 104.32 23.1484C104.82 23.1172 105.25 23.0859 105.609 23.0547C106.016 23.0234 106.383 22.9844 106.711 22.9375C106.586 23.2031 106.445 23.7109 106.289 24.4609C106.148 25.2109 106.008 26.1094 105.867 27.1562C105.727 28.2031 105.609 29.3516 105.516 30.6016C105.422 31.8359 105.375 33.0859 105.375 34.3516C105.375 35.3047 105.445 36.1172 105.586 36.7891C105.727 37.4609 105.914 38.0156 106.148 38.4531C106.398 38.875 106.68 39.1875 106.992 39.3906C107.32 39.5938 107.672 39.6953 108.047 39.6953C108.641 39.6953 109.109 39.4531 109.453 38.9688C109.812 38.4844 110.117 37.875 110.367 37.1406C110.336 36.1719 110.281 35.0391 110.203 33.7422C110.125 32.4453 110.016 31.0938 109.875 29.6875C109.75 28.2812 109.578 26.8672 109.359 25.4453C109.156 24.0078 108.898 22.6719 108.586 21.4375C109.07 21.6094 109.648 21.7656 110.32 21.9062C110.898 22.0312 111.602 22.1406 112.43 22.2344C113.258 22.3125 114.234 22.3516 115.359 22.3516C116.688 22.3516 118.188 22.2578 119.859 22.0703Z" fill="#1D0073"/>
<path d="M147.141 24.1797C147.141 24.9766 147 25.7891 146.719 26.6172C146.438 27.4297 146.031 28.1719 145.5 28.8438C144.984 29.5 144.352 30.0391 143.602 30.4609C142.852 30.8828 142 31.0938 141.047 31.0938C140.203 31.0938 139.477 30.9531 138.867 30.6719C138.273 30.375 137.781 29.9844 137.391 29.5C137.016 29.0156 136.734 28.4688 136.547 27.8594C136.359 27.25 136.266 26.6172 136.266 25.9609C136.266 25.3047 136.344 24.6719 136.5 24.0625C136.672 23.4375 136.93 22.8828 137.273 22.3984C137.367 22.7266 137.492 22.9844 137.648 23.1719C137.805 23.3438 137.969 23.4688 138.141 23.5469C138.328 23.6406 138.531 23.6953 138.75 23.7109C139.25 23.7109 139.602 23.5781 139.805 23.3125C140.023 23.0469 140.133 22.7422 140.133 22.3984C140.133 22.2422 140.102 22.0859 140.039 21.9297C139.977 21.7578 139.875 21.6016 139.734 21.4609C139.609 21.3203 139.438 21.2031 139.219 21.1094C139 21.0156 138.734 20.9688 138.422 20.9688C138.25 20.9688 138 20.9922 137.672 21.0391C137.359 21.0859 137.008 21.2109 136.617 21.4141C136.227 21.6016 135.828 21.8906 135.422 22.2812C135.016 22.6719 134.641 23.2031 134.297 23.875C133.969 24.5469 133.695 25.3828 133.477 26.3828C133.273 27.3828 133.172 28.6016 133.172 30.0391C133.172 31.0234 133.266 31.8828 133.453 32.6172C133.656 33.3359 133.914 33.9531 134.227 34.4688C134.539 34.9844 134.898 35.4062 135.305 35.7344C135.711 36.0625 136.125 36.3203 136.547 36.5078C136.969 36.6953 137.375 36.8281 137.766 36.9062C138.172 36.9688 138.531 37 138.844 37C139.25 37 139.758 36.9297 140.367 36.7891C140.992 36.6328 141.609 36.3594 142.219 35.9688C142.828 35.5781 143.375 35.0391 143.859 34.3516C144.359 33.6641 144.703 32.7734 144.891 31.6797C145.438 32.4453 145.852 33.3594 146.133 34.4219C146.43 35.4844 146.578 36.6016 146.578 37.7734C146.578 39.3672 146.289 40.9141 145.711 42.4141C145.148 43.8984 144.336 45.2188 143.273 46.375C142.227 47.5312 140.953 48.4531 139.453 49.1406C137.953 49.8438 136.281 50.1953 134.438 50.1953C133.078 50.1953 131.82 49.9766 130.664 49.5391C129.508 49.1172 128.453 48.5234 127.5 47.7578C126.547 46.9922 125.711 46.0938 124.992 45.0625C124.273 44.0156 123.664 42.8828 123.164 41.6641C122.664 40.4453 122.289 39.1641 122.039 37.8203C121.789 36.4609 121.664 35.0859 121.664 33.6953C121.664 32.1641 121.828 30.625 122.156 29.0781C122.484 27.5156 122.953 26.0156 123.562 24.5781C124.188 23.1406 124.938 21.7969 125.812 20.5469C126.703 19.2812 127.711 18.1875 128.836 17.2656C129.961 16.3281 131.195 15.5938 132.539 15.0625C133.883 14.5156 135.312 14.2422 136.828 14.2422C138.203 14.2422 139.414 14.4062 140.461 14.7344C141.508 15.0469 142.406 15.4766 143.156 16.0234C143.922 16.5547 144.562 17.1641 145.078 17.8516C145.594 18.5391 146 19.25 146.297 19.9844C146.609 20.7188 146.828 21.4531 146.953 22.1875C147.078 22.9062 147.141 23.5703 147.141 24.1797ZM171.211 35.3125C171.211 36.2188 171.141 37.2188 171 38.3125C170.859 39.3906 170.625 40.4844 170.297 41.5938C169.969 42.6875 169.523 43.7578 168.961 44.8047C168.398 45.8359 167.695 46.75 166.852 47.5469C166.023 48.3438 165.031 48.9844 163.875 49.4688C162.719 49.9531 161.375 50.1953 159.844 50.1953C158.312 50.1953 156.969 49.9688 155.812 49.5156C154.672 49.0625 153.688 48.4609 152.859 47.7109C152.047 46.9453 151.375 46.0703 150.844 45.0859C150.312 44.0859 149.891 43.0391 149.578 41.9453C149.266 40.8516 149.047 39.75 148.922 38.6406C148.812 37.5156 148.758 36.4531 148.758 35.4531C148.758 33.6875 148.992 31.9609 149.461 30.2734C149.93 28.5703 150.641 27.0547 151.594 25.7266C152.562 24.3984 153.766 23.3281 155.203 22.5156C156.656 21.7031 158.359 21.2969 160.312 21.2969C161.625 21.2969 162.805 21.5 163.852 21.9062C164.898 22.2969 165.828 22.8359 166.641 23.5234C167.453 24.2109 168.141 25.0156 168.703 25.9375C169.281 26.8594 169.758 27.8359 170.133 28.8672C170.508 29.8984 170.781 30.9688 170.953 32.0781C171.125 33.1875 171.211 34.2656 171.211 35.3125ZM163.055 36.0859C163.055 35.7266 163.039 35.2812 163.008 34.75C162.992 34.2031 162.945 33.6328 162.867 33.0391C162.789 32.4453 162.68 31.8516 162.539 31.2578C162.414 30.6641 162.242 30.1328 162.023 29.6641C161.805 29.1953 161.531 28.8125 161.203 28.5156C160.891 28.2188 160.516 28.0703 160.078 28.0703C159.656 28.0703 159.289 28.2109 158.977 28.4922C158.664 28.7734 158.391 29.1406 158.156 29.5938C157.938 30.0469 157.75 30.5625 157.594 31.1406C157.453 31.7031 157.336 32.2734 157.242 32.8516C157.164 33.4141 157.102 33.9609 157.055 34.4922C157.023 35.0078 157.008 35.4453 157.008 35.8047C157.008 36.3203 157.047 36.9453 157.125 37.6797C157.203 38.4141 157.352 39.1172 157.57 39.7891C157.789 40.4609 158.086 41.0391 158.461 41.5234C158.852 41.9922 159.359 42.2266 159.984 42.2266C160.578 42.2266 161.07 42.0078 161.461 41.5703C161.867 41.1328 162.188 40.6016 162.422 39.9766C162.656 39.3359 162.82 38.6641 162.914 37.9609C163.008 37.2578 163.055 36.6328 163.055 36.0859ZM197.32 49.3281C197.023 49.2969 196.68 49.2656 196.289 49.2344C195.961 49.2031 195.562 49.1797 195.094 49.1641C194.641 49.1484 194.141 49.1406 193.594 49.1406C192.812 49.1406 191.953 49.1719 191.016 49.2344C190.094 49.2969 189.141 49.4141 188.156 49.5859L188.25 43C187.656 45.3281 186.781 47.125 185.625 48.3906C184.484 49.6562 183.141 50.2891 181.594 50.2891C181.109 50.2891 180.562 50.2266 179.953 50.1016C179.344 49.9766 178.719 49.7344 178.078 49.375C177.453 49.0312 176.836 48.5469 176.227 47.9219C175.633 47.2969 175.102 46.4922 174.633 45.5078C174.164 44.5078 173.789 43.3047 173.508 41.8984C173.227 40.4766 173.086 38.7969 173.086 36.8594C173.086 34.2344 173.352 31.9922 173.883 30.1328C174.414 28.2578 175.094 26.7266 175.922 25.5391C176.75 24.3516 177.664 23.4844 178.664 22.9375C179.664 22.3906 180.641 22.1172 181.594 22.1172C182.406 22.1172 183.141 22.2344 183.797 22.4688C184.469 22.6875 185.062 22.9766 185.578 23.3359C186.094 23.6797 186.539 24.0703 186.914 24.5078C187.289 24.9453 187.594 25.3828 187.828 25.8203C187.781 25.2891 187.711 24.7266 187.617 24.1328C187.523 23.5234 187.414 22.8984 187.289 22.2578C188.305 22.4609 189.336 22.5938 190.383 22.6562C191.43 22.7188 192.398 22.75 193.289 22.75C194.352 22.75 195.211 22.7266 195.867 22.6797C196.242 22.6641 196.586 22.6406 196.898 22.6094C196.727 23.3906 196.57 24.2656 196.43 25.2344C196.289 26.2031 196.164 27.2422 196.055 28.3516C195.961 29.4453 195.883 30.6016 195.82 31.8203C195.773 33.0234 195.75 34.2578 195.75 35.5234C195.75 37.8828 195.867 40.25 196.102 42.625C196.336 45 196.742 47.2344 197.32 49.3281ZM187.688 35.8984V32.1016C187.688 31.6797 187.664 31.25 187.617 30.8125C187.57 30.375 187.461 29.9766 187.289 29.6172C187.133 29.2578 186.898 28.9688 186.586 28.75C186.273 28.5156 185.852 28.3984 185.32 28.3984C184.758 28.3984 184.289 28.5938 183.914 28.9844C183.555 29.375 183.258 29.9141 183.023 30.6016C182.805 31.2734 182.648 32.0781 182.555 33.0156C182.477 33.9375 182.438 34.9453 182.438 36.0391C182.438 36.6641 182.477 37.2969 182.555 37.9375C182.648 38.5781 182.797 39.1641 183 39.6953C183.203 40.2109 183.477 40.6328 183.82 40.9609C184.164 41.2891 184.586 41.4531 185.086 41.4531C185.648 41.4531 186.102 41.2578 186.445 40.8672C186.789 40.4766 187.047 39.9922 187.219 39.4141C187.406 38.8359 187.531 38.2344 187.594 37.6094C187.656 36.9688 187.688 36.3984 187.688 35.8984ZM219.492 29.125C219.492 29.7812 219.375 30.4375 219.141 31.0938C218.922 31.75 218.602 32.3438 218.18 32.875C217.758 33.3906 217.234 33.8203 216.609 34.1641C216 34.4922 215.312 34.6562 214.547 34.6562C213.859 34.6562 213.273 34.5391 212.789 34.3047C212.305 34.0703 211.906 33.7656 211.594 33.3906C211.281 33.0156 211.047 32.5859 210.891 32.1016C210.75 31.6016 210.68 31.0938 210.68 30.5781C210.68 29.4844 210.945 28.5391 211.477 27.7422C211.555 28.0078 211.664 28.2109 211.805 28.3516C211.961 28.4766 212.102 28.5703 212.227 28.6328C212.383 28.6953 212.539 28.7344 212.695 28.75C213.148 28.75 213.438 28.6484 213.562 28.4453C213.688 28.2422 213.766 28.0078 213.797 27.7422C213.797 27.4766 213.695 27.2188 213.492 26.9688C213.289 26.7188 212.938 26.5938 212.438 26.5938C212.297 26.5938 212.094 26.6172 211.828 26.6641C211.578 26.6953 211.289 26.7891 210.961 26.9453C210.648 27.1016 210.328 27.3359 210 27.6484C209.672 27.9453 209.367 28.3672 209.086 28.9141C208.82 29.4453 208.602 30.1172 208.43 30.9297C208.258 31.7266 208.172 32.6953 208.172 33.8359C208.172 35.0078 208.344 35.9609 208.688 36.6953C209.031 37.4141 209.438 37.9766 209.906 38.3828C210.391 38.7734 210.898 39.0391 211.43 39.1797C211.961 39.3203 212.414 39.3906 212.789 39.3906C213.117 39.3906 213.531 39.3359 214.031 39.2266C214.531 39.1016 215.023 38.8828 215.508 38.5703C216.008 38.2578 216.461 37.8281 216.867 37.2812C217.273 36.7188 217.547 36 217.688 35.125C218.109 35.75 218.445 36.5 218.695 37.375C218.945 38.2344 219.07 39.1328 219.07 40.0703C219.07 41.3516 218.828 42.6016 218.344 43.8203C217.875 45.0391 217.203 46.125 216.328 47.0781C215.469 48.0156 214.43 48.7656 213.211 49.3281C211.992 49.9062 210.648 50.1953 209.18 50.1953C208.086 50.1953 207.07 50.0156 206.133 49.6562C205.195 49.3125 204.344 48.8281 203.578 48.2031C202.828 47.5781 202.156 46.8438 201.562 46C200.969 45.1406 200.469 44.2188 200.062 43.2344C199.672 42.2344 199.375 41.1875 199.172 40.0938C198.969 39 198.867 37.9062 198.867 36.8125C198.867 35.5938 199 34.3516 199.266 33.0859C199.531 31.8203 199.906 30.6016 200.391 29.4297C200.891 28.2578 201.5 27.1562 202.219 26.125C202.938 25.0938 203.75 24.2031 204.656 23.4531C205.562 22.6875 206.562 22.0859 207.656 21.6484C208.75 21.1953 209.914 20.9688 211.148 20.9688C212.258 20.9688 213.234 21.1016 214.078 21.3672C214.922 21.6328 215.656 21.9844 216.281 22.4219C216.906 22.8594 217.422 23.3672 217.828 23.9453C218.234 24.5078 218.562 25.0938 218.812 25.7031C219.062 26.2969 219.234 26.8906 219.328 27.4844C219.438 28.0781 219.492 28.625 219.492 29.125ZM245.086 49.9609C244.242 49.8359 243.305 49.7422 242.273 49.6797C241.242 49.6172 240.211 49.5859 239.18 49.5859C238.195 49.5859 237.242 49.6172 236.32 49.6797C235.414 49.7422 234.625 49.8203 233.953 49.9141C234.281 48.7891 234.539 47.625 234.727 46.4219C234.93 45.2188 235.078 43.9688 235.172 42.6719C235.281 41.3594 235.352 39.9922 235.383 38.5703C235.414 37.1484 235.43 35.6484 235.43 34.0703C235.43 33.8359 235.414 33.5234 235.383 33.1328C235.367 32.7422 235.328 32.3203 235.266 31.8672C235.203 31.4141 235.109 30.9609 234.984 30.5078C234.875 30.0391 234.727 29.6172 234.539 29.2422C234.352 28.8672 234.117 28.5625 233.836 28.3281C233.57 28.0938 233.258 27.9766 232.898 27.9766C232.664 27.9766 232.43 28.1016 232.195 28.3516C231.977 28.5859 231.75 28.9062 231.516 29.3125C231.281 29.7031 231.055 30.1641 230.836 30.6953C230.617 31.2109 230.406 31.7578 230.203 32.3359C230.234 33.9297 230.289 35.5078 230.367 37.0703C230.461 38.6172 230.578 40.1094 230.719 41.5469C230.875 42.9688 231.055 44.3125 231.258 45.5781C231.461 46.8281 231.703 47.9375 231.984 48.9062C231.719 48.8906 231.406 48.8672 231.047 48.8359C230.734 48.8203 230.359 48.8047 229.922 48.7891C229.5 48.7734 229.016 48.7656 228.469 48.7656C227.453 48.7656 226.281 48.8125 224.953 48.9062C223.641 48.9844 222.211 49.1406 220.664 49.375C220.883 48.9375 221.078 48.3359 221.25 47.5703C221.422 46.7891 221.57 45.9141 221.695 44.9453C221.82 43.9609 221.922 42.9219 222 41.8281C222.094 40.7188 222.164 39.6094 222.211 38.5C222.273 37.3906 222.312 36.3203 222.328 35.2891C222.359 34.2422 222.383 33.3047 222.398 32.4766C222.414 31.6328 222.422 30.9219 222.422 30.3438C222.422 29.7656 222.422 29.3906 222.422 29.2188C222.391 26.6094 222.32 24.1875 222.211 21.9531C222.164 21.0156 222.109 20.0703 222.047 19.1172C221.984 18.1641 221.906 17.2734 221.812 16.4453C221.719 15.6172 221.609 14.8906 221.484 14.2656C221.375 13.6406 221.242 13.1719 221.086 12.8594C222.352 13.0781 223.523 13.2266 224.602 13.3047C225.68 13.3828 226.648 13.4219 227.508 13.4219C228.07 13.4219 228.578 13.4141 229.031 13.3984C229.484 13.3672 229.867 13.3359 230.18 13.3047C230.555 13.2734 230.883 13.2344 231.164 13.1875C231.039 13.7344 230.93 14.3906 230.836 15.1562C230.742 15.9219 230.656 16.7812 230.578 17.7344C230.5 18.6875 230.43 19.7109 230.367 20.8047C230.32 21.8984 230.281 23.0391 230.25 24.2266C231.141 22.8359 232.102 21.8594 233.133 21.2969C234.164 20.7188 235.234 20.4297 236.344 20.4297C237.453 20.4297 238.469 20.6797 239.391 21.1797C240.328 21.6641 241.133 22.4219 241.805 23.4531C242.492 24.4688 243.023 25.7578 243.398 27.3203C243.789 28.8828 243.984 30.7344 243.984 32.875C243.984 34.3438 243.984 35.8672 243.984 37.4453C244 39.0078 244.039 40.5469 244.102 42.0625C244.164 43.5625 244.273 44.9922 244.43 46.3516C244.586 47.7109 244.805 48.9141 245.086 49.9609Z" fill="#7B0B2D"/>
</svg>
