<svg width="246" height="74" viewBox="0 0 246 74" fill="none" xmlns="http://www.w3.org/2000/svg">
<path d="M25.1484 22.3022C25.1484 23.0835 25 23.7944 24.7031 24.4351C24.4219 25.0601 24.0234 25.5991 23.5078 26.0522C22.9922 26.5054 22.3828 26.8569 21.6797 27.1069C20.9922 27.3569 20.2422 27.4819 19.4297 27.4819C18.5391 27.4819 17.7734 27.3726 17.1328 27.1538C16.5078 26.9351 15.9766 26.6616 15.5391 26.3335C15.1172 25.9897 14.7812 25.6147 14.5312 25.2085C14.2812 24.7866 14.0859 24.3804 13.9453 23.9897C13.8203 23.5991 13.7344 23.2397 13.6875 22.9116C13.6562 22.5835 13.6406 22.3335 13.6406 22.1616C13.8281 22.4741 14.0469 22.6772 14.2969 22.771C14.5469 22.8491 14.7578 22.8882 14.9297 22.8882C15.3672 22.8882 15.6719 22.771 15.8438 22.5366C16.0312 22.3022 16.125 22.0522 16.125 21.7866C16.125 21.6147 16.0859 21.4351 16.0078 21.2476C15.9453 21.0601 15.8203 20.8882 15.6328 20.7319C15.4609 20.5601 15.2188 20.4194 14.9062 20.3101C14.6094 20.2007 14.2344 20.146 13.7812 20.146C13.4688 20.146 13.1484 20.2085 12.8203 20.3335C12.4922 20.4429 12.1875 20.6226 11.9062 20.8726C11.6406 21.1069 11.4219 21.4038 11.25 21.7632C11.0781 22.1226 10.9922 22.5444 10.9922 23.0288C10.9922 23.4976 11.0859 23.9663 11.2734 24.4351C11.4766 24.8882 11.7422 25.3179 12.0703 25.7241C12.4141 26.1304 12.8125 26.4976 13.2656 26.8257C13.7344 27.1538 14.2422 27.4272 14.7891 27.646C15.6484 28.0054 16.5312 28.3569 17.4375 28.7007C18.3594 29.0444 19.25 29.4194 20.1094 29.8257C20.9688 30.2319 21.7734 30.7007 22.5234 31.2319C23.2891 31.7476 23.9531 32.3647 24.5156 33.0835C25.0938 33.8022 25.5469 34.646 25.875 35.6147C26.2188 36.5679 26.3906 37.6851 26.3906 38.9663C26.3906 40.7944 26.0156 42.4663 25.2656 43.9819C24.5312 45.4819 23.5391 46.771 22.2891 47.8491C21.0547 48.9116 19.6172 49.7319 17.9766 50.3101C16.3516 50.9038 14.6484 51.2007 12.8672 51.2007C11.2578 51.2007 9.72656 50.9585 8.27344 50.4741C6.82031 50.0054 5.54688 49.3569 4.45312 48.5288C3.35938 47.7007 2.48438 46.7319 1.82812 45.6226C1.1875 44.4976 0.867188 43.2866 0.867188 41.9897C0.867188 41.0366 1.02344 40.2007 1.33594 39.4819C1.64844 38.7632 2.07812 38.1694 2.625 37.7007C3.1875 37.2163 3.83594 36.8569 4.57031 36.6226C5.32031 36.3882 6.11719 36.271 6.96094 36.271C7.61719 36.271 8.25781 36.3413 8.88281 36.4819C9.52344 36.6226 10.1172 36.8335 10.6641 37.1147C11.2266 37.3804 11.7266 37.7085 12.1641 38.0991C12.6172 38.4897 12.9766 38.9351 13.2422 39.4351C12.9141 39.3413 12.625 39.2944 12.375 39.2944C11.9531 39.2944 11.6172 39.4194 11.3672 39.6694C11.1172 39.9194 10.9922 40.2944 10.9922 40.7944C10.9922 41.0601 11.0547 41.3101 11.1797 41.5444C11.3047 41.7632 11.4609 41.9585 11.6484 42.1304C11.8516 42.3022 12.0781 42.4351 12.3281 42.5288C12.5938 42.6226 12.8672 42.6694 13.1484 42.6694C13.4609 42.6694 13.75 42.6069 14.0156 42.4819C14.2812 42.3413 14.5156 42.1616 14.7188 41.9429C14.9219 41.7241 15.0781 41.4819 15.1875 41.2163C15.2969 40.9507 15.3516 40.6772 15.3516 40.396C15.3516 39.8491 15.1797 39.2944 14.8359 38.7319C14.5078 38.1694 14.0234 37.6694 13.3828 37.2319C12.1641 36.4819 11.0156 35.8335 9.9375 35.2866C8.85938 34.7397 7.86719 34.2241 6.96094 33.7397C6.05469 33.2397 5.23438 32.7397 4.5 32.2397C3.78125 31.7397 3.16406 31.1616 2.64844 30.5054C2.14844 29.8491 1.76562 29.0835 1.5 28.2085C1.23438 27.3179 1.10156 26.2476 1.10156 24.9976C1.10156 23.4976 1.39062 22.0913 1.96875 20.7788C2.54688 19.4663 3.38281 18.3257 4.47656 17.3569C5.58594 16.3726 6.9375 15.5991 8.53125 15.0366C10.125 14.4741 11.9375 14.1929 13.9688 14.1929C16.0156 14.1929 17.75 14.4429 19.1719 14.9429C20.5938 15.4272 21.7422 16.0601 22.6172 16.8413C23.5078 17.6226 24.1484 18.4976 24.5391 19.4663C24.9453 20.4194 25.1484 21.3647 25.1484 22.3022ZM46.6406 20.5913C46.5156 21.2944 46.4219 21.9819 46.3594 22.6538C46.3125 23.3257 46.2891 24.0132 46.2891 24.7163C46.2891 25.3882 46.3125 26.0679 46.3594 26.7554C46.4219 27.4272 46.5156 28.1069 46.6406 28.7944C45.8906 28.4038 45.0391 28.1147 44.0859 27.9272C43.1484 27.7397 42.1875 27.5913 41.2031 27.4819V29.4976C41.2031 31.2632 41.2344 33.0522 41.2969 34.8647C41.3594 36.6616 41.4609 38.4116 41.6016 40.1147C41.7422 41.8022 41.9219 43.4038 42.1406 44.9194C42.375 46.4351 42.6562 47.7788 42.9844 48.9507C42.7188 48.9351 42.4062 48.9116 42.0469 48.8804C41.7344 48.8647 41.3672 48.8491 40.9453 48.8335C40.5234 48.8179 40.0391 48.8101 39.4922 48.8101C38.4766 48.8101 37.3047 48.8569 35.9766 48.9507C34.6484 49.0288 33.2109 49.1851 31.6641 49.4194C32.1953 46.3726 32.5703 43.2085 32.7891 39.9272C33.0234 36.6304 33.1406 33.4116 33.1406 30.271V27.4819C32.0781 27.5601 31.0234 27.6851 29.9766 27.8569C28.9453 28.0132 27.9688 28.2085 27.0469 28.4429C27.1094 28.271 27.1641 28.0444 27.2109 27.7632C27.2578 27.4819 27.2891 27.1929 27.3047 26.896C27.3359 26.5991 27.3516 26.3101 27.3516 26.0288C27.3672 25.7476 27.375 25.5132 27.375 25.3257C27.375 24.5288 27.3438 23.7397 27.2812 22.9585C27.2188 22.1772 27.1406 21.3882 27.0469 20.5913C27.7969 20.9038 28.6875 21.1616 29.7188 21.3647C30.75 21.5522 31.7969 21.6929 32.8594 21.7866C32.7656 20.4272 32.6562 19.1694 32.5312 18.0132C32.4062 16.8569 32.2578 15.8101 32.0859 14.8726C33.3516 15.0913 34.5234 15.2397 35.6016 15.3179C36.6797 15.396 37.6562 15.4351 38.5312 15.4351C39.0938 15.4351 39.5938 15.4272 40.0312 15.4116C40.4844 15.3804 40.8672 15.3491 41.1797 15.3179C41.5547 15.2866 41.8828 15.2476 42.1641 15.2007C41.9922 15.9507 41.8438 16.8882 41.7188 18.0132C41.6094 19.1226 41.5 20.3647 41.3906 21.7397C42.4219 21.6304 43.3906 21.4819 44.2969 21.2944C45.2188 21.1069 46 20.8726 46.6406 20.5913ZM69.0469 22.021C68.9062 22.7241 68.7734 23.5444 68.6484 24.4819C68.5391 25.4194 68.4375 26.4351 68.3438 27.5288C68.2656 28.6069 68.2031 29.7397 68.1562 30.9272C68.1094 32.0991 68.0859 33.271 68.0859 34.4429C68.0859 34.8335 68.0938 35.2241 68.1094 35.6147C68.125 35.9897 68.1328 36.3569 68.1328 36.7163C68.1328 37.4819 68.0859 38.3491 67.9922 39.3179C67.9141 40.2866 67.7422 41.2788 67.4766 42.2944C67.2266 43.2944 66.875 44.2788 66.4219 45.2476C65.9688 46.2163 65.3672 47.0757 64.6172 47.8257C63.8828 48.5757 62.9844 49.1772 61.9219 49.6304C60.8594 50.0991 59.6016 50.3335 58.1484 50.3335C56.8984 50.3335 55.7891 50.1694 54.8203 49.8413C53.8672 49.5132 53.0312 49.0679 52.3125 48.5054C51.6094 47.9272 51.0156 47.2476 50.5312 46.4663C50.0469 45.6851 49.6562 44.8491 49.3594 43.9585C49.0625 43.0522 48.8438 42.1069 48.7031 41.1226C48.5781 40.1382 48.5156 39.1616 48.5156 38.1929C48.5156 37.9585 48.5156 37.8179 48.5156 37.771C48.5312 37.7085 48.5391 37.6694 48.5391 37.6538C48.5391 37.6382 48.5469 37.6147 48.5625 37.5835C48.5781 37.5366 48.5859 37.4116 48.5859 37.2085C48.5859 37.0054 48.5859 36.6851 48.5859 36.2476C48.6016 35.8101 48.6094 35.1929 48.6094 34.396C48.6094 33.4585 48.5938 32.4038 48.5625 31.2319C48.5312 30.0444 48.4609 28.8882 48.3516 27.7632C48.2578 26.6226 48.1172 25.5913 47.9297 24.6694C47.7422 23.7476 47.5 23.0757 47.2031 22.6538C48.4688 22.8726 49.6562 23.021 50.7656 23.0991C51.8906 23.1772 52.9141 23.2163 53.8359 23.2163C54.4453 23.2163 54.9922 23.2085 55.4766 23.1929C55.9766 23.1616 56.4062 23.1304 56.7656 23.0991C57.1719 23.0679 57.5391 23.0288 57.8672 22.9819C57.5547 24.5132 57.25 26.2554 56.9531 28.2085C56.6719 30.146 56.5312 32.3726 56.5312 34.8882C56.5312 35.4663 56.5547 36.0679 56.6016 36.6929C56.6641 37.3179 56.7656 37.896 56.9062 38.4272C57.0469 38.9429 57.2344 39.3726 57.4688 39.7163C57.7188 40.0444 58.0312 40.2085 58.4062 40.2085C58.875 40.2085 59.2422 40.0522 59.5078 39.7397C59.7734 39.4272 59.9688 39.021 60.0938 38.521C60.2344 38.0054 60.3125 37.4351 60.3281 36.8101C60.3594 36.1851 60.375 35.5601 60.375 34.9351C60.3594 32.9038 60.2969 31.0054 60.1875 29.2397C60.1406 28.4897 60.0781 27.7319 60 26.9663C59.9375 26.2007 59.8594 25.4819 59.7656 24.8101C59.6719 24.1226 59.5625 23.5132 59.4375 22.9819C59.3125 22.4351 59.1719 22.0054 59.0156 21.6929C60.2812 21.9116 61.4531 22.0601 62.5312 22.1382C63.6094 22.2163 64.5703 22.2554 65.4141 22.2554C65.9766 22.2554 66.4766 22.2476 66.9141 22.2319C67.3672 22.2007 67.75 22.1694 68.0625 22.1382C68.4375 22.1069 68.7656 22.0679 69.0469 22.021ZM94.9453 49.3726C94.5859 49.3413 94.1797 49.3101 93.7266 49.2788C93.3359 49.2476 92.875 49.2241 92.3438 49.2085C91.8281 49.1929 91.2578 49.1851 90.6328 49.1851C89.7422 49.1851 88.7969 49.2163 87.7969 49.2788C86.7969 49.3413 85.8047 49.4585 84.8203 49.6304C84.9141 49.4429 85.0156 49.0522 85.125 48.4585C85.2344 47.8647 85.3359 47.2085 85.4297 46.4897C85.5391 45.771 85.6328 45.0601 85.7109 44.3569C85.8047 43.6538 85.875 43.1069 85.9219 42.7163C85.6719 43.8882 85.3203 44.9585 84.8672 45.9272C84.4297 46.8804 83.9141 47.7007 83.3203 48.3882C82.7266 49.0601 82.0625 49.5835 81.3281 49.9585C80.5938 50.3335 79.8203 50.521 79.0078 50.521C78.6328 50.521 78.1719 50.4976 77.625 50.4507C77.0781 50.4038 76.4922 50.2476 75.8672 49.9819C75.2578 49.7163 74.6406 49.3101 74.0156 48.7632C73.4062 48.2007 72.8516 47.4194 72.3516 46.4194C71.8672 45.4038 71.4688 44.1226 71.1562 42.5757C70.8594 41.0288 70.7109 39.1382 70.7109 36.9038C70.7109 35.0288 70.8438 33.3569 71.1094 31.8882C71.3906 30.4038 71.7578 29.0991 72.2109 27.9741C72.6797 26.8491 73.2188 25.896 73.8281 25.1147C74.4531 24.3179 75.1016 23.6694 75.7734 23.1694C76.4609 22.6694 77.1562 22.3101 77.8594 22.0913C78.5781 21.8569 79.2656 21.7397 79.9219 21.7397C80.6562 21.7397 81.3203 21.8647 81.9141 22.1147C82.5078 22.3491 83.0469 22.6616 83.5312 23.0522C84.0156 23.4272 84.4375 23.8647 84.7969 24.3647C85.1562 24.8491 85.4688 25.3335 85.7344 25.8179C85.7031 25.0991 85.6719 24.3179 85.6406 23.4741C85.6094 22.6304 85.5703 21.7788 85.5234 20.9194C85.4766 20.0601 85.4141 19.2163 85.3359 18.3882C85.2734 17.5444 85.1953 16.7632 85.1016 16.0444C85.0234 15.3257 84.9297 14.6929 84.8203 14.146C84.7109 13.5991 84.5859 13.1851 84.4453 12.9038C85.6953 13.1226 86.8594 13.271 87.9375 13.3491C89.0156 13.4272 89.9922 13.4663 90.8672 13.4663C91.4297 13.4663 91.9375 13.4585 92.3906 13.4429C92.8438 13.4116 93.2266 13.3804 93.5391 13.3491C93.9141 13.3179 94.2422 13.2788 94.5234 13.2319C94.3516 14.0132 94.1953 15.0366 94.0547 16.3022C93.9141 17.5522 93.7891 18.9663 93.6797 20.5444C93.5859 22.1226 93.5078 23.8179 93.4453 25.6304C93.3984 27.4272 93.375 29.2632 93.375 31.1382C93.375 32.8726 93.3984 34.5991 93.4453 36.3179C93.5078 38.0366 93.6016 39.6929 93.7266 41.2866C93.8516 42.8647 94.0156 44.3491 94.2188 45.7397C94.4219 47.1147 94.6641 48.3257 94.9453 49.3726ZM85.3125 35.9429V32.146C85.3125 31.7241 85.2891 31.2944 85.2422 30.8569C85.1953 30.4194 85.0859 30.021 84.9141 29.6616C84.7578 29.3022 84.5234 29.0132 84.2109 28.7944C83.8984 28.5601 83.4766 28.4429 82.9453 28.4429C82.5703 28.4429 82.25 28.5913 81.9844 28.8882C81.7188 29.1851 81.5 29.5679 81.3281 30.0366C81.1562 30.5054 81.0156 31.0288 80.9062 31.6069C80.7969 32.1851 80.7188 32.7632 80.6719 33.3413C80.625 33.9038 80.5938 34.4351 80.5781 34.9351C80.5625 35.4194 80.5547 35.8022 80.5547 36.0835C80.5547 36.5054 80.5703 37.0288 80.6016 37.6538C80.6484 38.2632 80.7422 38.8569 80.8828 39.4351C81.0234 39.9976 81.2344 40.4819 81.5156 40.8882C81.8125 41.2944 82.2109 41.4976 82.7109 41.4976C83.2734 41.4976 83.7266 41.3022 84.0703 40.9116C84.4141 40.521 84.6719 40.0366 84.8438 39.4585C85.0312 38.8804 85.1562 38.2788 85.2188 37.6538C85.2812 37.0132 85.3125 36.4429 85.3125 35.9429ZM119.859 22.1147C119.688 22.771 119.539 23.5601 119.414 24.4819C119.305 25.4038 119.203 26.396 119.109 27.4585C119.016 28.521 118.938 29.6304 118.875 30.7866C118.828 31.9429 118.781 33.0679 118.734 34.1616C118.641 36.7397 118.586 39.4585 118.57 42.3179C118.57 43.9116 118.469 45.4819 118.266 47.0288C118.078 48.5757 117.766 50.0366 117.328 51.4116C116.906 52.8022 116.352 54.0835 115.664 55.2554C114.992 56.4429 114.164 57.4585 113.18 58.3022C112.211 59.1616 111.078 59.8335 109.781 60.3179C108.5 60.8022 107.047 61.0444 105.422 61.0444C103.906 61.0444 102.594 60.8882 101.484 60.5757C100.375 60.2632 99.4531 59.8179 98.7188 59.2397C98 58.6772 97.4609 57.9976 97.1016 57.2007C96.7578 56.4038 96.5859 55.5288 96.5859 54.5757C96.5859 53.6226 96.75 52.7554 97.0781 51.9741C97.4062 51.2085 97.8359 50.5601 98.3672 50.0288C98.8984 49.4976 99.5 49.0913 100.172 48.8101C100.844 48.5132 101.523 48.3647 102.211 48.3647C103.086 48.3647 103.914 48.6147 104.695 49.1147C105.477 49.6147 106.07 50.4038 106.477 51.4819C106.383 51.4038 106.273 51.3491 106.148 51.3179C106.039 51.3022 105.922 51.2944 105.797 51.2944C105.625 51.2944 105.445 51.3335 105.258 51.4116C105.086 51.4897 104.93 51.5991 104.789 51.7397C104.648 51.8804 104.531 52.0366 104.438 52.2085C104.359 52.396 104.32 52.5913 104.32 52.7944C104.32 53.0288 104.367 53.2241 104.461 53.3804C104.555 53.5522 104.664 53.6851 104.789 53.7788C104.93 53.8726 105.078 53.9351 105.234 53.9663C105.406 54.0132 105.562 54.0366 105.703 54.0366C105.922 54.0366 106.195 53.9897 106.523 53.896C106.852 53.8022 107.188 53.6069 107.531 53.3101C107.891 53.0132 108.242 52.5991 108.586 52.0679C108.945 51.5366 109.258 50.8257 109.523 49.9351C109.805 49.0601 110.023 47.9897 110.18 46.7241C110.352 45.4585 110.43 43.9429 110.414 42.1772C110.008 43.271 109.578 44.1616 109.125 44.8491C108.688 45.521 108.219 46.0444 107.719 46.4194C107.234 46.7944 106.719 47.0444 106.172 47.1694C105.641 47.2944 105.07 47.3569 104.461 47.3569C103.695 47.3569 102.891 47.2241 102.047 46.9585C101.219 46.6772 100.453 46.1929 99.75 45.5054C99.0625 44.8022 98.4922 43.8491 98.0391 42.646C97.5859 41.4429 97.3594 39.9116 97.3594 38.0522C97.3594 37.8022 97.3594 37.6304 97.3594 37.5366C97.375 37.4272 97.3828 37.3491 97.3828 37.3022C97.3828 37.2397 97.3906 37.1694 97.4062 37.0913C97.4219 37.0132 97.4297 36.8647 97.4297 36.646C97.4297 36.4116 97.4297 36.0835 97.4297 35.6616C97.4453 35.2397 97.4531 34.646 97.4531 33.8804C97.4531 32.9897 97.4375 31.9819 97.4062 30.8569C97.375 29.7319 97.3047 28.6304 97.1953 27.5522C97.1016 26.4741 96.9609 25.4976 96.7734 24.6226C96.5859 23.7319 96.3438 23.0757 96.0469 22.6538C97.3125 22.8726 98.5 23.021 99.6094 23.0991C100.734 23.1772 101.758 23.2163 102.68 23.2163C103.289 23.2163 103.836 23.2085 104.32 23.1929C104.82 23.1616 105.25 23.1304 105.609 23.0991C106.016 23.0679 106.383 23.0288 106.711 22.9819C106.586 23.2476 106.445 23.7554 106.289 24.5054C106.148 25.2554 106.008 26.1538 105.867 27.2007C105.727 28.2476 105.609 29.396 105.516 30.646C105.422 31.8804 105.375 33.1304 105.375 34.396C105.375 35.3491 105.445 36.1616 105.586 36.8335C105.727 37.5054 105.914 38.0601 106.148 38.4976C106.398 38.9194 106.68 39.2319 106.992 39.4351C107.32 39.6382 107.672 39.7397 108.047 39.7397C108.641 39.7397 109.109 39.4976 109.453 39.0132C109.812 38.5288 110.117 37.9194 110.367 37.1851C110.336 36.2163 110.281 35.0835 110.203 33.7866C110.125 32.4897 110.016 31.1382 109.875 29.7319C109.75 28.3257 109.578 26.9116 109.359 25.4897C109.156 24.0522 108.898 22.7163 108.586 21.4819C109.07 21.6538 109.648 21.8101 110.32 21.9507C110.898 22.0757 111.602 22.1851 112.43 22.2788C113.258 22.3569 114.234 22.396 115.359 22.396C116.688 22.396 118.188 22.3022 119.859 22.1147Z" fill="#EDEFFE"/>
<path d="M147.141 24.2241C147.141 25.021 147 25.8335 146.719 26.6616C146.438 27.4741 146.031 28.2163 145.5 28.8882C144.984 29.5444 144.352 30.0835 143.602 30.5054C142.852 30.9272 142 31.1382 141.047 31.1382C140.203 31.1382 139.477 30.9976 138.867 30.7163C138.273 30.4194 137.781 30.0288 137.391 29.5444C137.016 29.0601 136.734 28.5132 136.547 27.9038C136.359 27.2944 136.266 26.6616 136.266 26.0054C136.266 25.3491 136.344 24.7163 136.5 24.1069C136.672 23.4819 136.93 22.9272 137.273 22.4429C137.367 22.771 137.492 23.0288 137.648 23.2163C137.805 23.3882 137.969 23.5132 138.141 23.5913C138.328 23.6851 138.531 23.7397 138.75 23.7554C139.25 23.7554 139.602 23.6226 139.805 23.3569C140.023 23.0913 140.133 22.7866 140.133 22.4429C140.133 22.2866 140.102 22.1304 140.039 21.9741C139.977 21.8022 139.875 21.646 139.734 21.5054C139.609 21.3647 139.438 21.2476 139.219 21.1538C139 21.0601 138.734 21.0132 138.422 21.0132C138.25 21.0132 138 21.0366 137.672 21.0835C137.359 21.1304 137.008 21.2554 136.617 21.4585C136.227 21.646 135.828 21.9351 135.422 22.3257C135.016 22.7163 134.641 23.2476 134.297 23.9194C133.969 24.5913 133.695 25.4272 133.477 26.4272C133.273 27.4272 133.172 28.646 133.172 30.0835C133.172 31.0679 133.266 31.9272 133.453 32.6616C133.656 33.3804 133.914 33.9976 134.227 34.5132C134.539 35.0288 134.898 35.4507 135.305 35.7788C135.711 36.1069 136.125 36.3647 136.547 36.5522C136.969 36.7397 137.375 36.8726 137.766 36.9507C138.172 37.0132 138.531 37.0444 138.844 37.0444C139.25 37.0444 139.758 36.9741 140.367 36.8335C140.992 36.6772 141.609 36.4038 142.219 36.0132C142.828 35.6226 143.375 35.0835 143.859 34.396C144.359 33.7085 144.703 32.8179 144.891 31.7241C145.438 32.4897 145.852 33.4038 146.133 34.4663C146.43 35.5288 146.578 36.646 146.578 37.8179C146.578 39.4116 146.289 40.9585 145.711 42.4585C145.148 43.9429 144.336 45.2632 143.273 46.4194C142.227 47.5757 140.953 48.4976 139.453 49.1851C137.953 49.8882 136.281 50.2397 134.438 50.2397C133.078 50.2397 131.82 50.021 130.664 49.5835C129.508 49.1616 128.453 48.5679 127.5 47.8022C126.547 47.0366 125.711 46.1382 124.992 45.1069C124.273 44.0601 123.664 42.9272 123.164 41.7085C122.664 40.4897 122.289 39.2085 122.039 37.8647C121.789 36.5054 121.664 35.1304 121.664 33.7397C121.664 32.2085 121.828 30.6694 122.156 29.1226C122.484 27.5601 122.953 26.0601 123.562 24.6226C124.188 23.1851 124.938 21.8413 125.812 20.5913C126.703 19.3257 127.711 18.2319 128.836 17.3101C129.961 16.3726 131.195 15.6382 132.539 15.1069C133.883 14.5601 135.312 14.2866 136.828 14.2866C138.203 14.2866 139.414 14.4507 140.461 14.7788C141.508 15.0913 142.406 15.521 143.156 16.0679C143.922 16.5991 144.562 17.2085 145.078 17.896C145.594 18.5835 146 19.2944 146.297 20.0288C146.609 20.7632 146.828 21.4976 146.953 22.2319C147.078 22.9507 147.141 23.6147 147.141 24.2241ZM171.211 35.3569C171.211 36.2632 171.141 37.2632 171 38.3569C170.859 39.4351 170.625 40.5288 170.297 41.6382C169.969 42.7319 169.523 43.8022 168.961 44.8491C168.398 45.8804 167.695 46.7944 166.852 47.5913C166.023 48.3882 165.031 49.0288 163.875 49.5132C162.719 49.9976 161.375 50.2397 159.844 50.2397C158.312 50.2397 156.969 50.0132 155.812 49.5601C154.672 49.1069 153.688 48.5054 152.859 47.7554C152.047 46.9897 151.375 46.1147 150.844 45.1304C150.312 44.1304 149.891 43.0835 149.578 41.9897C149.266 40.896 149.047 39.7944 148.922 38.6851C148.812 37.5601 148.758 36.4976 148.758 35.4976C148.758 33.7319 148.992 32.0054 149.461 30.3179C149.93 28.6147 150.641 27.0991 151.594 25.771C152.562 24.4429 153.766 23.3726 155.203 22.5601C156.656 21.7476 158.359 21.3413 160.312 21.3413C161.625 21.3413 162.805 21.5444 163.852 21.9507C164.898 22.3413 165.828 22.8804 166.641 23.5679C167.453 24.2554 168.141 25.0601 168.703 25.9819C169.281 26.9038 169.758 27.8804 170.133 28.9116C170.508 29.9429 170.781 31.0132 170.953 32.1226C171.125 33.2319 171.211 34.3101 171.211 35.3569ZM163.055 36.1304C163.055 35.771 163.039 35.3257 163.008 34.7944C162.992 34.2476 162.945 33.6772 162.867 33.0835C162.789 32.4897 162.68 31.896 162.539 31.3022C162.414 30.7085 162.242 30.1772 162.023 29.7085C161.805 29.2397 161.531 28.8569 161.203 28.5601C160.891 28.2632 160.516 28.1147 160.078 28.1147C159.656 28.1147 159.289 28.2554 158.977 28.5366C158.664 28.8179 158.391 29.1851 158.156 29.6382C157.938 30.0913 157.75 30.6069 157.594 31.1851C157.453 31.7476 157.336 32.3179 157.242 32.896C157.164 33.4585 157.102 34.0054 157.055 34.5366C157.023 35.0522 157.008 35.4897 157.008 35.8491C157.008 36.3647 157.047 36.9897 157.125 37.7241C157.203 38.4585 157.352 39.1616 157.57 39.8335C157.789 40.5054 158.086 41.0835 158.461 41.5679C158.852 42.0366 159.359 42.271 159.984 42.271C160.578 42.271 161.07 42.0522 161.461 41.6147C161.867 41.1772 162.188 40.646 162.422 40.021C162.656 39.3804 162.82 38.7085 162.914 38.0054C163.008 37.3022 163.055 36.6772 163.055 36.1304ZM197.32 49.3726C197.023 49.3413 196.68 49.3101 196.289 49.2788C195.961 49.2476 195.562 49.2241 195.094 49.2085C194.641 49.1929 194.141 49.1851 193.594 49.1851C192.812 49.1851 191.953 49.2163 191.016 49.2788C190.094 49.3413 189.141 49.4585 188.156 49.6304L188.25 43.0444C187.656 45.3726 186.781 47.1694 185.625 48.4351C184.484 49.7007 183.141 50.3335 181.594 50.3335C181.109 50.3335 180.562 50.271 179.953 50.146C179.344 50.021 178.719 49.7788 178.078 49.4194C177.453 49.0757 176.836 48.5913 176.227 47.9663C175.633 47.3413 175.102 46.5366 174.633 45.5522C174.164 44.5522 173.789 43.3491 173.508 41.9429C173.227 40.521 173.086 38.8413 173.086 36.9038C173.086 34.2788 173.352 32.0366 173.883 30.1772C174.414 28.3022 175.094 26.771 175.922 25.5835C176.75 24.396 177.664 23.5288 178.664 22.9819C179.664 22.4351 180.641 22.1616 181.594 22.1616C182.406 22.1616 183.141 22.2788 183.797 22.5132C184.469 22.7319 185.062 23.021 185.578 23.3804C186.094 23.7241 186.539 24.1147 186.914 24.5522C187.289 24.9897 187.594 25.4272 187.828 25.8647C187.781 25.3335 187.711 24.771 187.617 24.1772C187.523 23.5679 187.414 22.9429 187.289 22.3022C188.305 22.5054 189.336 22.6382 190.383 22.7007C191.43 22.7632 192.398 22.7944 193.289 22.7944C194.352 22.7944 195.211 22.771 195.867 22.7241C196.242 22.7085 196.586 22.6851 196.898 22.6538C196.727 23.4351 196.57 24.3101 196.43 25.2788C196.289 26.2476 196.164 27.2866 196.055 28.396C195.961 29.4897 195.883 30.646 195.82 31.8647C195.773 33.0679 195.75 34.3022 195.75 35.5679C195.75 37.9272 195.867 40.2944 196.102 42.6694C196.336 45.0444 196.742 47.2788 197.32 49.3726ZM187.688 35.9429V32.146C187.688 31.7241 187.664 31.2944 187.617 30.8569C187.57 30.4194 187.461 30.021 187.289 29.6616C187.133 29.3022 186.898 29.0132 186.586 28.7944C186.273 28.5601 185.852 28.4429 185.32 28.4429C184.758 28.4429 184.289 28.6382 183.914 29.0288C183.555 29.4194 183.258 29.9585 183.023 30.646C182.805 31.3179 182.648 32.1226 182.555 33.0601C182.477 33.9819 182.438 34.9897 182.438 36.0835C182.438 36.7085 182.477 37.3413 182.555 37.9819C182.648 38.6226 182.797 39.2085 183 39.7397C183.203 40.2554 183.477 40.6772 183.82 41.0054C184.164 41.3335 184.586 41.4976 185.086 41.4976C185.648 41.4976 186.102 41.3022 186.445 40.9116C186.789 40.521 187.047 40.0366 187.219 39.4585C187.406 38.8804 187.531 38.2788 187.594 37.6538C187.656 37.0132 187.688 36.4429 187.688 35.9429ZM219.492 29.1694C219.492 29.8257 219.375 30.4819 219.141 31.1382C218.922 31.7944 218.602 32.3882 218.18 32.9194C217.758 33.4351 217.234 33.8647 216.609 34.2085C216 34.5366 215.312 34.7007 214.547 34.7007C213.859 34.7007 213.273 34.5835 212.789 34.3491C212.305 34.1147 211.906 33.8101 211.594 33.4351C211.281 33.0601 211.047 32.6304 210.891 32.146C210.75 31.646 210.68 31.1382 210.68 30.6226C210.68 29.5288 210.945 28.5835 211.477 27.7866C211.555 28.0522 211.664 28.2554 211.805 28.396C211.961 28.521 212.102 28.6147 212.227 28.6772C212.383 28.7397 212.539 28.7788 212.695 28.7944C213.148 28.7944 213.438 28.6929 213.562 28.4897C213.688 28.2866 213.766 28.0522 213.797 27.7866C213.797 27.521 213.695 27.2632 213.492 27.0132C213.289 26.7632 212.938 26.6382 212.438 26.6382C212.297 26.6382 212.094 26.6616 211.828 26.7085C211.578 26.7397 211.289 26.8335 210.961 26.9897C210.648 27.146 210.328 27.3804 210 27.6929C209.672 27.9897 209.367 28.4116 209.086 28.9585C208.82 29.4897 208.602 30.1616 208.43 30.9741C208.258 31.771 208.172 32.7397 208.172 33.8804C208.172 35.0522 208.344 36.0054 208.688 36.7397C209.031 37.4585 209.438 38.021 209.906 38.4272C210.391 38.8179 210.898 39.0835 211.43 39.2241C211.961 39.3647 212.414 39.4351 212.789 39.4351C213.117 39.4351 213.531 39.3804 214.031 39.271C214.531 39.146 215.023 38.9272 215.508 38.6147C216.008 38.3022 216.461 37.8726 216.867 37.3257C217.273 36.7632 217.547 36.0444 217.688 35.1694C218.109 35.7944 218.445 36.5444 218.695 37.4194C218.945 38.2788 219.07 39.1772 219.07 40.1147C219.07 41.396 218.828 42.646 218.344 43.8647C217.875 45.0835 217.203 46.1694 216.328 47.1226C215.469 48.0601 214.43 48.8101 213.211 49.3726C211.992 49.9507 210.648 50.2397 209.18 50.2397C208.086 50.2397 207.07 50.0601 206.133 49.7007C205.195 49.3569 204.344 48.8726 203.578 48.2476C202.828 47.6226 202.156 46.8882 201.562 46.0444C200.969 45.1851 200.469 44.2632 200.062 43.2788C199.672 42.2788 199.375 41.2319 199.172 40.1382C198.969 39.0444 198.867 37.9507 198.867 36.8569C198.867 35.6382 199 34.396 199.266 33.1304C199.531 31.8647 199.906 30.646 200.391 29.4741C200.891 28.3022 201.5 27.2007 202.219 26.1694C202.938 25.1382 203.75 24.2476 204.656 23.4976C205.562 22.7319 206.562 22.1304 207.656 21.6929C208.75 21.2397 209.914 21.0132 211.148 21.0132C212.258 21.0132 213.234 21.146 214.078 21.4116C214.922 21.6772 215.656 22.0288 216.281 22.4663C216.906 22.9038 217.422 23.4116 217.828 23.9897C218.234 24.5522 218.562 25.1382 218.812 25.7476C219.062 26.3413 219.234 26.9351 219.328 27.5288C219.438 28.1226 219.492 28.6694 219.492 29.1694ZM245.086 50.0054C244.242 49.8804 243.305 49.7866 242.273 49.7241C241.242 49.6616 240.211 49.6304 239.18 49.6304C238.195 49.6304 237.242 49.6616 236.32 49.7241C235.414 49.7866 234.625 49.8647 233.953 49.9585C234.281 48.8335 234.539 47.6694 234.727 46.4663C234.93 45.2632 235.078 44.0132 235.172 42.7163C235.281 41.4038 235.352 40.0366 235.383 38.6147C235.414 37.1929 235.43 35.6929 235.43 34.1147C235.43 33.8804 235.414 33.5679 235.383 33.1772C235.367 32.7866 235.328 32.3647 235.266 31.9116C235.203 31.4585 235.109 31.0054 234.984 30.5522C234.875 30.0835 234.727 29.6616 234.539 29.2866C234.352 28.9116 234.117 28.6069 233.836 28.3726C233.57 28.1382 233.258 28.021 232.898 28.021C232.664 28.021 232.43 28.146 232.195 28.396C231.977 28.6304 231.75 28.9507 231.516 29.3569C231.281 29.7476 231.055 30.2085 230.836 30.7397C230.617 31.2554 230.406 31.8022 230.203 32.3804C230.234 33.9741 230.289 35.5522 230.367 37.1147C230.461 38.6616 230.578 40.1538 230.719 41.5913C230.875 43.0132 231.055 44.3569 231.258 45.6226C231.461 46.8726 231.703 47.9819 231.984 48.9507C231.719 48.9351 231.406 48.9116 231.047 48.8804C230.734 48.8647 230.359 48.8491 229.922 48.8335C229.5 48.8179 229.016 48.8101 228.469 48.8101C227.453 48.8101 226.281 48.8569 224.953 48.9507C223.641 49.0288 222.211 49.1851 220.664 49.4194C220.883 48.9819 221.078 48.3804 221.25 47.6147C221.422 46.8335 221.57 45.9585 221.695 44.9897C221.82 44.0054 221.922 42.9663 222 41.8726C222.094 40.7632 222.164 39.6538 222.211 38.5444C222.273 37.4351 222.312 36.3647 222.328 35.3335C222.359 34.2866 222.383 33.3491 222.398 32.521C222.414 31.6772 222.422 30.9663 222.422 30.3882C222.422 29.8101 222.422 29.4351 222.422 29.2632C222.391 26.6538 222.32 24.2319 222.211 21.9976C222.164 21.0601 222.109 20.1147 222.047 19.1616C221.984 18.2085 221.906 17.3179 221.812 16.4897C221.719 15.6616 221.609 14.9351 221.484 14.3101C221.375 13.6851 221.242 13.2163 221.086 12.9038C222.352 13.1226 223.523 13.271 224.602 13.3491C225.68 13.4272 226.648 13.4663 227.508 13.4663C228.07 13.4663 228.578 13.4585 229.031 13.4429C229.484 13.4116 229.867 13.3804 230.18 13.3491C230.555 13.3179 230.883 13.2788 231.164 13.2319C231.039 13.7788 230.93 14.4351 230.836 15.2007C230.742 15.9663 230.656 16.8257 230.578 17.7788C230.5 18.7319 230.43 19.7554 230.367 20.8491C230.32 21.9429 230.281 23.0835 230.25 24.271C231.141 22.8804 232.102 21.9038 233.133 21.3413C234.164 20.7632 235.234 20.4741 236.344 20.4741C237.453 20.4741 238.469 20.7241 239.391 21.2241C240.328 21.7085 241.133 22.4663 241.805 23.4976C242.492 24.5132 243.023 25.8022 243.398 27.3647C243.789 28.9272 243.984 30.7788 243.984 32.9194C243.984 34.3882 243.984 35.9116 243.984 37.4897C244 39.0522 244.039 40.5913 244.102 42.1069C244.164 43.6069 244.273 45.0366 244.43 46.396C244.586 47.7554 244.805 48.9585 245.086 50.0054Z" fill="#7B0B2D"/>
</svg>
